<?xml version="1.0" encoding="utf-8"?>
<!-- Generator: Adobe Illustrator 22.1.0, SVG Export Plug-In . SVG Version: 6.00 Build 0)  -->
<svg version="1.1" xmlns="http://www.w3.org/2000/svg" xmlns:xlink="http://www.w3.org/1999/xlink" x="0px" y="0px"
	 viewBox="0 0 1500 1122" style="enable-background:new 0 0 1500 1122;" xml:space="preserve">
<style type="text/css">
	.st0{fill:#FFFFFF;}
	.st1{fill:#CACDE1;}
	.st2{fill:#ABB0D3;}
	.st3{fill:#EEEEEE;}
	.st4{fill:#323270;}
	.st5{opacity:0.5;}
	.st6{fill:#B6BAD3;}
	.st7{opacity:0.8;}
	.st8{fill:#8B93BE;}
	.st9{opacity:0.54;fill:#FFFFFF;}
	.st10{fill:#F1F1F1;}
	.st11{fill:none;stroke:#323270;stroke-width:2;stroke-linecap:round;stroke-linejoin:round;stroke-miterlimit:10;}
	.st12{opacity:0.4;}
	.st13{filter:url(#Adobe_OpacityMaskFilter);}
	.st14{filter:url(#Adobe_OpacityMaskFilter_1_);}
	.st15{mask:url(#SVGID_1_);fill:url(#SVGID_2_);}
	.st16{opacity:0.5;fill:url(#SVGID_3_);}
	.st17{opacity:0.8;fill:#B6BAD3;}
</style>
<g id="BG">
	<g>
		<rect class="st0" width="1500" height="862"/>
		<rect y="862" class="st1" width="1500" height="260"/>
	</g>
</g>
<g id="Objects">
	<g>
		<g>
			<g id="XMLID_226_">
				<g>
					<g>
						<path class="st2" d="M342.2,665.8c5.3,52-28,68-44,89.3c-16,21.3-2.3,39.9-2.3,39.9h-7.2c0,0-2-6.3-4.4-14.4h0
							c0-23.8-1.1-34.3,28.9-55.7C342.9,703.8,342.2,665.8,342.2,665.8z"/>
					</g>
					<g>
						<path class="st1" d="M342.2,665.8c0,0,0.6,38.1-28.9,59.2c-30,21.4-28.9,31.9-28.9,55.7h0c-2-7.1-4.2-15.5-5.6-22.3v0
							c1.9-5.3,4.1-11.2,6.9-17.9c2.9-6.9,5.5-13.3,7.8-19.2c10.2-17.6,14.2-26.1,23.1-30.8c2.4-1.3,5.2-2.3,8.6-3
							C340.9,683.8,342.2,665.8,342.2,665.8z"/>
					</g>
					<g>
						<polygon class="st3" points="330.1,795 330.1,886.9 219.2,886.9 219.2,795 255.2,795 258.5,795 261.5,795 270.2,795 
							280.7,795 288.7,795 295.9,795 						"/>
					</g>
					<g>
						<path class="st3" d="M322.5,653.4c4,9,5.6,26-5.8,37c-8.8,4.6-12.9,13.1-23.1,30.8c9.6-24.6,14.1-41.8,10.2-60.2c0,0,0,0,0,0
							c0.1-0.4,1.8-11,18.7-22.8C322.5,638.2,318.5,644.4,322.5,653.4z"/>
					</g>
					<g>
						<path class="st1" d="M293.6,721.2c-2.3,5.9-5,12.3-7.8,19.2c-2.8,6.6-5,12.6-6.9,17.9c-0.5-2.8-0.9-5.3-1.1-7.4
							c-0.2-2.7-0.1-8.8-0.5-16.8c-0.6-12.3-2.4-29.1-8.1-44.6c-1.6-58.3,35.6-82.6,35.6-82.6s-11.5,20.5-3,46.5
							c0.8,2.5,1.5,5.1,2,7.5c0,0,0,0,0,0C307.6,679.4,303.2,696.6,293.6,721.2z"/>
					</g>
					<g>
						<path class="st1" d="M274.2,772.8c-2-4.1-4.6-8.5-8.1-13c-0.4-0.6-0.9-1.2-1.3-1.7c-1.2-1.5-2.5-3-3.8-4.6
							c-0.4-1.9-0.8-3.8-1.3-5.7c-3.8-15.3-18-27.8-29.2-35.4c-3.9-8.4-5.6-16.8-3.2-24.8c6.9-23.7-13.4-39.5-14-39.9
							c0.9,0.4,60.8,29,64,86.6h0c0.4,7.9,0.3,14,0.5,16.8c0.2,2.1,0.5,4.6,1.1,7.4v0c1.3,6.8,3.5,15.3,5.6,22.3
							c2.3,8.1,4.4,14.4,4.4,14.4h-8C280.7,795,280.5,785.5,274.2,772.8z"/>
					</g>
					<g>
						<path class="st2" d="M269.1,689.5c5.7,15.5,7.5,32.3,8.1,44.6h0c-3.2-57.6-63-86.2-64-86.6c0,0,0,0,0,0
							c23.9,0.7,38.9,11.8,48.3,26.5v0C264.6,678.9,267.1,684.1,269.1,689.5z"/>
					</g>
					<g>
						<path class="st1" d="M274.2,772.8c-4.4,15.7-4,22.2-4,22.2h-8.8c0,0,1.5-6.8,1.6-17.4c1.3-9.3,3-17.8,3-17.8
							C269.5,764.3,272.2,768.7,274.2,772.8z"/>
					</g>
					<g>
						<path class="st2" d="M304.7,606.9c0,0-37.2,24.3-35.6,82.6c-2-5.4-4.5-10.7-7.6-15.5v0C260.3,620.6,304.7,606.9,304.7,606.9z"
							/>
					</g>
					<g>
						<path class="st3" d="M260.9,753.4c1.8,9.1,2.3,17.4,2.2,24.2c-0.1,10.6-1.6,17.4-1.6,17.4h-3c-1.5-16.7-5.3-29.4-24.3-45.6
							c-19.7-16.9-18-45.6-18-45.6s6.3,3.1,14.2,8.5c11.1,7.7,25.4,20.1,29.2,35.4C260.1,749.6,260.6,751.5,260.9,753.4z"/>
					</g>
					<g>
						<path class="st1" d="M258.5,795h-3.3c0,0-0.3-17.9-25.3-35.3c-25-17.4-13.7-56-13.7-56s-1.7,28.7,18,45.6
							C253.2,765.7,257,778.4,258.5,795z"/>
					</g>
				</g>
				<g>
					<g>
						<path class="st4" d="M280.7,796h-19.3c-0.6,0-1-0.4-1-1c0-0.6,0.4-1,1-1h19.3c0.6,0,1,0.4,1,1
							C281.7,795.6,281.3,796,280.7,796z"/>
					</g>
					<g>
						<path class="st4" d="M330.1,887.9H219.2c-0.6,0-1-0.4-1-1V795c0-0.6,0.4-1,1-1h36c0.6,0,1,0.4,1,1c0,0.6-0.4,1-1,1h-35v89.9
							h108.9V796h-40.4c-0.6,0-1-0.4-1-1c0-0.6,0.4-1,1-1h41.4c0.6,0,1,0.4,1,1v91.9C331.1,887.5,330.7,887.9,330.1,887.9z"/>
					</g>
					<g>
						<path class="st4" d="M288.7,796h-8c-0.5,0-1-0.4-1-1c0-0.1-0.4-9.4-6.4-21.8c-2.2-4.5-4.9-8.8-8-12.9
							c-0.4-0.6-0.9-1.1-1.3-1.7c-1.1-1.4-2.4-2.9-3.8-4.6c-0.4-0.4-0.3-1.1,0.1-1.4c0.4-0.4,1.1-0.3,1.4,0.1
							c1.4,1.7,2.7,3.2,3.8,4.6c0.5,0.6,0.9,1.2,1.4,1.8c3.2,4.2,5.9,8.6,8.2,13.2c5.2,10.6,6.4,18.9,6.6,21.7h5.7
							c-0.7-2.3-2.3-7.3-4-13.2c-2.6-9.1-4.5-16.6-5.6-22.4c-0.1-0.5,0.3-1.1,0.8-1.2c0.5-0.1,1.1,0.3,1.2,0.8
							c1.1,5.7,3,13.2,5.5,22.2c2.3,8,4.3,14.3,4.4,14.4c0.1,0.3,0,0.6-0.1,0.9C289.4,795.9,289.1,796,288.7,796z"/>
					</g>
					<g>
						<path class="st4" d="M278.8,759.3c-0.5,0-0.9-0.3-1-0.8c-0.6-2.9-0.9-5.4-1.1-7.5c-0.1-1.3-0.1-3.2-0.2-5.6
							c-0.1-3-0.1-6.8-0.3-11.2c-0.9-17.6-3.5-32.1-8-44.3c-2.1-5.6-4.6-10.8-7.5-15.3c-0.3-0.5-0.2-1.1,0.3-1.4
							c0.5-0.3,1.1-0.2,1.4,0.3c3,4.7,5.6,9.9,7.7,15.7c4.6,12.4,7.3,27.1,8.2,44.9c0.2,4.4,0.3,8.2,0.3,11.2c0,2.4,0.1,4.3,0.2,5.5
							c0.2,2,0.5,4.4,1.1,7.2c0.1,0.5-0.2,1.1-0.8,1.2C278.9,759.3,278.9,759.3,278.8,759.3z"/>
					</g>
					<g>
						<path class="st4" d="M261.5,675c-0.3,0-0.7-0.2-0.8-0.5c-10.6-16.7-26.6-25.4-47.5-26.1c-0.6,0-1-0.5-1-1c0-0.6,0.5-0.9,1-1
							c21.6,0.6,38.1,9.7,49.1,27c0.3,0.5,0.2,1.1-0.3,1.4C261.9,674.9,261.7,675,261.5,675z"/>
					</g>
					<g>
						<path class="st4" d="M230.5,713.3c-0.4,0-0.7-0.2-0.9-0.6c-4.4-9.6-5.5-17.9-3.3-25.5c6.7-23-12.8-38.2-13.6-38.9
							c-0.4-0.3-0.5-1-0.2-1.4c0.3-0.4,1-0.5,1.4-0.2c0.9,0.7,21.4,16.7,14.3,41c-2.1,7.1-1,15,3.2,24.1c0.2,0.5,0,1.1-0.5,1.3
							C230.8,713.2,230.6,713.3,230.5,713.3z"/>
					</g>
					<g>
						<path class="st4" d="M270.2,796c-0.5,0-1-0.4-1-0.9c0-0.3-0.4-6.9,4-22.5c0.1-0.4,0.5-0.8,1-0.8c0.6,0,1,0.4,1,1v0
							c0,0.1,0,0.2,0,0.3c-4.3,15.3-3.9,21.8-3.9,21.9C271.3,795.5,270.9,796,270.2,796C270.3,796,270.3,796,270.2,796z"/>
					</g>
					<g>
						<path class="st4" d="M278.8,759.3c-0.6,0-1-0.4-1-1c0-0.1,0-0.2,0.1-0.3c2-5.7,4.4-11.8,6.9-17.9c2.5-5.9,5.4-12.9,7.8-19.2
							c9.4-23.9,14-41.3,10.1-59.7c-0.1-0.5,0.2-1.1,0.8-1.2c0.5-0.1,1.1,0.2,1.2,0.8c4,18.9-0.7,36.6-10.2,60.8
							c-2.5,6.4-5.4,13.3-7.8,19.2c-2.5,6.1-4.9,12.1-6.9,17.8C279.6,759,279.3,759.3,278.8,759.3z"/>
					</g>
					<g>
						<path class="st4" d="M261.5,674l-1,0c-0.6-27.9,11.3-45,21.5-54.3c11-10.1,22-13.6,22.5-13.7c0.4-0.1,0.8,0,1.1,0.3
							c0.3,0.3,0.3,0.8,0.1,1.1c-0.1,0.2-11.2,20.4-2.9,45.7c0.8,2.6,1.5,5.2,2.1,7.6c0.1,0.5-0.2,1.1-0.8,1.2
							c-0.5,0.1-1.1-0.2-1.2-0.8c-0.5-2.4-1.2-4.9-2-7.4c-6.9-21.1-0.7-38.9,2-45c-3.8,1.5-11.7,5.3-19.5,12.5
							c-9.8,9.1-21.4,25.6-20.8,52.7L261.5,674z"/>
					</g>
					<g>
						<path class="st4" d="M295.9,796c-0.3,0-0.6-0.1-0.8-0.4c-0.1-0.2-3.6-4.9-5-12.4c-1.3-6.9-1.1-17.4,7.4-28.8
							c3.8-5,8.4-9.7,13.4-14.7c15.2-15.3,32.3-32.4,30.9-67.3c-2,5.8-6.4,13.6-16.3,15.9c-3.3,0.8-6,1.7-8.4,3
							c-7.5,3.9-11.5,10.8-19.3,24.5c-1,1.8-2.1,3.7-3.3,5.8c-0.1,0.1-0.1,0.2-0.2,0.3c-0.4,0.4-1,0.4-1.4,0
							c-0.3-0.3-0.4-0.8-0.2-1.2c0,0,0,0,0-0.1c1.2-2.1,2.3-4,3.3-5.8c8-14.1,12.1-21.1,20.1-25.3c2.5-1.3,5.4-2.3,8.8-3.1
							c14.8-3.5,16.2-20.6,16.2-20.8c0-0.5,0.5-0.9,1-0.9c0.5,0,1,0.4,1,0.9c4.1,40.4-14.5,59.1-31,75.6c-4.9,4.9-9.5,9.5-13.2,14.5
							c-6.4,8.6-8.8,17.7-7,27.1c1.3,7,4.6,11.6,4.7,11.7c0.3,0.4,0.2,1.1-0.2,1.4C296.3,796,296.1,796,295.9,796z"/>
					</g>
					<g>
						<path class="st4" d="M263.1,778.6c0,0-0.1,0-0.1,0c-0.5-0.1-0.9-0.6-0.8-1.1c1.3-9.2,3-17.8,3-17.9c0.1-0.5,0.6-0.9,1.2-0.8
							c0.5,0.1,0.9,0.6,0.8,1.2c0,0.1-1.7,8.6-3,17.8C264,778.2,263.6,778.6,263.1,778.6z"/>
					</g>
					<g>
						<path class="st4" d="M261.5,796h-6.2c-0.5,0-1-0.4-1-1c0-0.3-0.8-17.7-24.9-34.4c-25.3-17.6-14.2-56.7-14-57.1
							c0.1-0.3,0.3-0.5,0.6-0.6c0.3-0.1,0.6-0.1,0.8,0c0.1,0,6.5,3.2,14.4,8.6c11.4,7.8,25.7,20.4,29.6,36c0.5,1.9,0.9,3.8,1.3,5.8
							c1.5,8,2.3,16.2,2.2,24.4c-0.1,10.6-1.6,17.4-1.7,17.6C262.4,795.7,261.9,796,261.5,796z M256.2,794h4.5
							c0.4-2.1,1.4-8.1,1.5-16.5c0.1-8.1-0.6-16.1-2.2-24c-0.4-1.9-0.8-3.8-1.3-5.7c-3.7-15-17.7-27.2-28.8-34.8
							c-5.9-4-10.9-6.8-13-7.9c-1.6,6.5-8.1,38.7,13.6,53.7C252.6,774.3,255.7,790,256.2,794z"/>
					</g>
					<g>
						<path class="st4" d="M258.5,796c-0.5,0-0.9-0.4-1-0.9c-1.5-17.2-5.8-29.5-23.9-45c-19.9-17-18.4-46.2-18.3-46.5
							c0-0.6,0.5-1,1.1-0.9c0.6,0,1,0.5,0.9,1.1c0,0.3-1.5,28.4,17.7,44.8c18.6,15.9,23,28.6,24.6,46.3
							C259.5,795.5,259.1,796,258.5,796C258.5,796,258.5,796,258.5,796z"/>
					</g>
					<g>
						<path class="st4" d="M316.6,691.5c-0.3,0-0.5-0.1-0.7-0.3c-0.4-0.4-0.4-1,0-1.4c11.1-10.7,9.4-27.4,5.6-35.9
							c-2.4-5.4-2.1-9.9-1.3-12.8c-13.6,10.4-15.4,19.5-15.5,20.1c-0.1,0.5-0.5,0.9-1,0.9c-0.6,0-1-0.4-1-1v0c0-0.1,0-0.1,0-0.2
							c0.2-1.2,2.4-11.8,19.1-23.4c0.4-0.3,0.9-0.2,1.3,0.1c0.3,0.3,0.4,0.9,0.1,1.3c-0.1,0.2-3.6,5.9,0.1,14.3
							c4,9.1,5.7,26.7-6.1,38.2C317.1,691.4,316.9,691.5,316.6,691.5z"/>
					</g>
					<g>
						<path class="st4" d="M284.4,781.6c-0.6,0-1-0.4-1-1l0-2.4c0-22.1-0.1-33.1,29.3-54.1c28.8-20.5,28.5-58,28.5-58.3
							c0-0.6,0.4-1,1-1c0,0,0,0,0,0c0.5,0,1,0.4,1,1c0,0.4,0.3,38.9-29.3,60c-28.6,20.4-28.5,30.5-28.5,52.5l0,2.4
							C285.4,781.1,284.9,781.6,284.4,781.6z"/>
					</g>
					<g>
						<path class="st4" d="M269.1,689.6l-1,0c-1.6-58.2,35.7-83.2,36.1-83.5c0.5-0.3,1.1-0.2,1.4,0.3c0.3,0.5,0.2,1.1-0.3,1.4
							c-0.4,0.2-36.8,24.7-35.2,81.8L269.1,689.6z"/>
					</g>
					<g>
						<path class="st4" d="M277.2,735.1c-0.5,0-1-0.4-1-0.9c-3.2-57-62.8-85.5-63.4-85.8c-0.1,0-0.2-0.1-0.3-0.2
							c-0.4-0.4-0.4-1,0-1.4c0.3-0.3,0.8-0.4,1.2-0.2c2.6,1.3,61.3,30.3,64.5,87.5C278.2,734.6,277.8,735.1,277.2,735.1
							C277.2,735.1,277.2,735.1,277.2,735.1z"/>
					</g>
				</g>
			</g>
		</g>
		<g class="st5">
			<g>
				<polygon class="st6" points="330.1,886.9 219.2,886.9 219.2,795 				"/>
			</g>
		</g>
	</g>
	<g>
		<g>
			<path class="st4" d="M1276.1,798.6c-0.4,0-0.8-0.3-1-0.7l-23.1-83.4l-35.2,74.7c-0.2,0.4-0.5,0.6-0.9,0.6s-0.7-0.2-0.9-0.6
				l-35.2-74.7l-23.1,83.4c-0.1,0.5-0.7,0.8-1.2,0.7c-0.5-0.1-0.8-0.7-0.7-1.2l23.8-86c0.1-0.4,0.5-0.7,0.9-0.7c0.4,0,0.8,0.2,1,0.6
				l35.4,75.3l35.4-75.3c0.2-0.4,0.6-0.6,1-0.6c0.4,0,0.8,0.3,0.9,0.7l23.8,86c0.1,0.5-0.2,1.1-0.7,1.2
				C1276.2,798.6,1276.1,798.6,1276.1,798.6z"/>
		</g>
		<g>
			<path class="st4" d="M1245.2,870.2C1245.1,870.2,1245.1,870.2,1245.2,870.2c-0.4,0-0.8-0.3-0.9-0.7l-28.2-77.7l-25.3,77.3
				c-0.1,0.4-0.5,0.7-0.9,0.7c-0.4,0-0.8-0.2-1-0.6l-33.9-70.2c-0.2-0.5,0-1.1,0.5-1.3c0.5-0.2,1.1,0,1.3,0.5l32.8,68l25.5-77.7
				c0.1-0.4,0.5-0.7,0.9-0.7c0.4,0,0.8,0.3,1,0.7l28.4,78.1l29.9-68.3c0.2-0.5,0.8-0.7,1.3-0.5c0.5,0.2,0.7,0.8,0.5,1.3l-30.9,70.6
				C1245.9,870,1245.6,870.2,1245.2,870.2z"/>
		</g>
		<g>
			<g>
				<g>
					<path class="st4" d="M1215.9,887.9c-24.3,0-50.2-3.8-50.2-10.8s25.8-10.8,50.2-10.8s50.2,3.8,50.2,10.8
						S1240.3,887.9,1215.9,887.9z M1215.9,868.3c-29.8,0-48.2,5.1-48.2,8.8c0,3.7,18.3,8.8,48.2,8.8s48.2-5.1,48.2-8.8
						C1264.1,873.4,1245.8,868.3,1215.9,868.3z"/>
				</g>
				<g>
					<path class="st4" d="M1215.9,881.5c-6,0-12.4-1.4-12.4-4.4c0-3,6.4-4.4,12.4-4.4s12.4,1.4,12.4,4.4
						C1228.3,880.1,1221.9,881.5,1215.9,881.5z M1215.9,874.8c-6.7,0-10.4,1.7-10.4,2.4s3.6,2.4,10.4,2.4s10.4-1.7,10.4-2.4
						S1222.7,874.8,1215.9,874.8z"/>
				</g>
				<g>
					<path class="st4" d="M1175,883.6c-0.5,0-0.9-0.3-1-0.8c-0.1-0.5,0.3-1.1,0.8-1.2l25.3-4.7l-20.1-5.6c-0.5-0.1-0.8-0.7-0.7-1.2
						c0.1-0.5,0.7-0.8,1.2-0.7l24.3,6.8c0.4,0.1,0.8,0.5,0.7,1c0,0.5-0.4,0.9-0.8,0.9l-29.6,5.4
						C1175.1,883.6,1175.1,883.6,1175,883.6z"/>
				</g>
				<g>
					<path class="st4" d="M1256.9,883.6c-0.1,0-0.1,0-0.2,0l-29.6-5.4c-0.5-0.1-0.8-0.5-0.8-0.9c0-0.5,0.3-0.9,0.7-1l24.3-6.8
						c0.5-0.1,1.1,0.2,1.2,0.7c0.1,0.5-0.2,1.1-0.7,1.2l-20.1,5.6l25.3,4.7c0.5,0.1,0.9,0.6,0.8,1.2
						C1257.8,883.2,1257.3,883.6,1256.9,883.6z"/>
				</g>
			</g>
			<g>
				<path class="st4" d="M1215.9,874.8c-0.6,0-1-0.4-1-1v-6.4c0-0.6,0.4-1,1-1s1,0.4,1,1v6.4
					C1216.9,874.3,1216.5,874.8,1215.9,874.8z"/>
			</g>
		</g>
		<g id="XMLID_105_">
			<g>
				<g>
					<path class="st1" d="M1215.2,856c-0.8-0.8-1.5-1.5-2.3-2.3c-0.6-0.6-1.3-1.3-1.9-1.8l0-2.3l3.5,0.1
						C1214.6,851.8,1215.2,853.8,1215.2,856z"/>
				</g>
				<g>
					<path class="st1" d="M1210.6,849.6l0.5,0l0,2.3c-0.7-0.6-1.4-1-2.3-1.3c-2.5-0.9-5.4,0.1-7.4,1.8c-3.5-2.2-4,3.7-7.5,1.5
						c-1.1-0.7-2.4-1.3-3.5-0.8c-1.9,0.9-1,3.7-1.5,5.7c-1.1,0.1-2.3-2.7-2.9-3.6c-0.6-0.9-0.7-2.2-0.2-3.1c0.2-0.4,0.6-0.8,0.9-1.2
						c0.1-0.1,0.2-0.3,0.3-0.4c0.9-1.7,3-2.4,4.8-1.5c0.3,0.2,0.6,0.2,0.8,0.2c1.2-0.1,2.3-0.9,3.3-1.5c1-0.7,2.1-1.4,3.3-1.3
						c1.4,0.1,2.6,1.1,3.9,1.1c1.4,0,2.5-1.2,3.9-1.4C1209,845.6,1211,847.6,1210.6,849.6z"/>
				</g>
				<g>
					<path class="st2" d="M1218,876.1c-1.2,1.4-3.3,2.1-3,4c-1.6-0.6-3.2-1.3-4.9-1.5c-1.7-0.2-3.5,0-4.9,0.9
						c-1.2,0.7-2.3,2-3.6,1.7c-0.7-0.1-1.2-0.7-1.8-1.1c-1.4-1-3.2-1.2-4.8-0.9c-1.7,0.2-3.2,0.9-4.8,1.5c0.1-0.8,0.7-1.9,1.3-3.1
						c-4.1,0.9-10.2-5.4-6.9-8.1c3.3-2.8,0.6-5,2.1-7c0.8-1.1,1.9-2.1,2.2-3.5c0.5-2-0.3-4.8,1.5-5.7c1.1-0.5,2.4,0.1,3.5,0.8
						c3.5,2.2,4-3.7,7.5-1.5c2-1.8,4.9-2.7,7.4-1.8c0.8,0.3,1.6,0.8,2.3,1.3c0.7,0.6,1.3,1.2,1.9,1.8c0.8,0.8,1.5,1.5,2.3,2.3
						c0.6,0.6,1.1,1.1,1.6,1.7c1.9,1.9,3.9,4.6,2.8,7c-0.6,0-1.4-0.3-2.3-0.5c1.1,2.3,2.9,6.1,4,8.3
						C1219.5,872.5,1219.2,874.6,1218,876.1z"/>
				</g>
			</g>
			<g>
				<g>
					<path class="st4" d="M1190.5,878.6c-3,0-6.1-2.4-7.4-5c-1-2-0.7-3.8,0.7-5c1.6-1.3,1.5-2.3,1.3-3.6c-0.1-1-0.2-2.1,0.6-3.3
						c0.2-0.3,0.5-0.6,0.7-0.9c0.6-0.8,1.2-1.5,1.4-2.3c0.2-0.6,0.2-1.3,0.2-2c0-1.6,0.1-3.5,1.9-4.4c1.8-0.9,3.7,0.3,4.5,0.9
						c1,0.7,1.5,0.3,2.5-0.6c1-0.9,2.6-2.4,4.9-0.9c0.5,0.3,0.6,0.9,0.3,1.4c-0.3,0.5-0.9,0.6-1.4,0.3c-1-0.6-1.5-0.3-2.5,0.6
						c-1,0.9-2.6,2.4-5,0.9c-0.8-0.5-1.9-1.1-2.5-0.8c-0.6,0.3-0.7,1.1-0.8,2.7c0,0.8,0,1.7-0.3,2.4c-0.3,1.2-1.1,2.1-1.8,3
						c-0.2,0.3-0.4,0.5-0.6,0.8c-0.4,0.5-0.3,1-0.2,1.9c0.2,1.4,0.4,3.3-2.1,5.3c-0.7,0.6-0.8,1.4-0.2,2.6c1.1,2.1,4.1,4.3,6.3,3.8
						c0.5-0.1,1.1,0.2,1.2,0.8c0.1,0.5-0.2,1.1-0.8,1.2C1191.3,878.5,1190.9,878.6,1190.5,878.6z"/>
				</g>
				<g>
					<path class="st4" d="M1210.3,873.2c-1.5,0-3.2-0.4-4.4-1.2c-1.3-0.8-1.7-1.8-1.7-2.4c-0.1-0.5,0.3-1,0.9-1.1
						c0.5-0.1,1,0.3,1.1,0.9c0,0.3,0.3,0.6,0.8,0.9c1.3,0.8,3.4,1.1,4.4,0.8l0.2-0.1c1.8-0.7,2.4-0.9,2-3c-0.5-2.4-0.3-3.9,0.5-4.7
						c1-0.9,2.6-0.5,3.5-0.2l0.3,0.1c0.3,0.1,0.7,0.2,1,0.3c0.2-1.4-0.7-3.1-2.8-5.2c-0.3-0.3-0.5-0.6-0.8-0.8
						c-0.3-0.3-0.5-0.6-0.8-0.8l-2.3-2.3c-0.6-0.6-1.2-1.2-1.8-1.8c-0.7-0.6-1.3-0.9-2-1.2c-2.4-0.8-4.9,0.3-6.4,1.7
						c-0.2,0.2-0.4,0.4-0.6,0.6c-1.9,2-3.1,4.8-4.1,7.4c-0.2,0.5-0.8,0.8-1.3,0.6c-0.5-0.2-0.8-0.8-0.6-1.3c1.2-2.8,2.3-5.8,4.5-8.1
						c0.2-0.2,0.5-0.5,0.7-0.7c2.6-2.2,5.8-3,8.4-2c0.8,0.3,1.7,0.8,2.6,1.5c0.7,0.6,1.4,1.3,2,1.9l2.3,2.3c0.3,0.3,0.6,0.6,0.8,0.9
						c0.3,0.3,0.5,0.6,0.8,0.8c1.1,1.2,4.6,4.7,2.9,8.1c-0.2,0.3-0.5,0.6-0.9,0.6c-0.7,0-1.5-0.2-2.3-0.5l-0.3-0.1
						c-1.2-0.4-1.5-0.3-1.6-0.2c0,0-0.4,0.4,0.1,2.8c0.8,3.8-1.5,4.6-3.3,5.3l-0.2,0.1C1211.6,873.1,1211,873.2,1210.3,873.2z"/>
				</g>
				<g>
					<path class="st4" d="M1188.8,859.8c-1.4,0-2.4-1.7-3.2-3.3c-0.2-0.3-0.3-0.6-0.5-0.8c-0.8-1.2-0.9-2.9-0.2-4.2
						c0.3-0.6,0.7-1,1-1.4c0.1-0.1,0.1-0.1,0.2-0.3c1.2-2.2,3.8-3,6.1-2c0.2,0.1,0.3,0.1,0.3,0.1c0.9-0.1,1.7-0.7,2.6-1.3l0.2-0.1
						c1.2-0.8,2.5-1.6,4-1.5c0.8,0.1,1.5,0.4,2.2,0.6c0.6,0.2,1.1,0.5,1.6,0.5c0,0,0,0,0,0c0.5,0,1.1-0.3,1.7-0.6
						c0.6-0.3,1.3-0.7,2.1-0.8c1.3-0.2,2.6,0.3,3.5,1.3c0.7,0.7,1.1,1.5,1.2,2.4l3.1,0.1c0.5,0,1,0.5,1,1c0,1,0.1,2,0.3,3
						c0.2,1.1,0.3,2.1,0.3,3.3c0,0.6-0.4,1-1,1s-1-0.4-1-1c0-1-0.1-2-0.3-3c-0.1-0.8-0.2-1.5-0.3-2.4l-3.1-0.1
						c-0.3,0-0.6-0.1-0.8-0.4c-0.2-0.2-0.3-0.5-0.2-0.8c0.1-0.6-0.1-1.3-0.6-1.8c-0.5-0.5-1.2-0.8-1.8-0.7c-0.5,0.1-1,0.3-1.5,0.6
						c-0.7,0.4-1.6,0.8-2.5,0.8c-0.9,0-1.8-0.3-2.5-0.6c-0.5-0.2-1.1-0.4-1.5-0.5c-0.9-0.1-1.9,0.6-2.7,1.1l-0.2,0.1
						c-1,0.7-2.2,1.5-3.6,1.6c-0.4,0-0.9-0.1-1.3-0.3c-1.3-0.6-2.8-0.1-3.5,1.1c-0.1,0.2-0.2,0.4-0.4,0.6c-0.3,0.3-0.6,0.7-0.8,1
						c-0.3,0.6-0.3,1.5,0.1,2.1c0.2,0.2,0.3,0.6,0.6,1c0.3,0.6,1.1,2,1.5,2.2c0,0,0,0,0,0c0.5,0,0.9,0.4,1,0.9c0,0.5-0.4,1-0.9,1.1
						C1188.9,859.8,1188.8,859.8,1188.8,859.8z M1188.8,857.8C1188.8,857.8,1188.8,857.8,1188.8,857.8
						C1188.8,857.8,1188.8,857.8,1188.8,857.8z"/>
				</g>
				<g>
					<path class="st4" d="M1201.9,882.1c-0.2,0-0.4,0-0.6-0.1c-0.7-0.2-1.3-0.6-1.7-0.9c-0.1-0.1-0.3-0.2-0.4-0.3
						c-1.1-0.7-2.5-1-4.1-0.8c-1.6,0.2-3.1,0.8-4.5,1.4c-0.3,0.1-0.7,0.1-1-0.1s-0.4-0.6-0.4-0.9c0.1-0.9,0.7-2.1,1.4-3.4l0.2-0.3
						c1.5-2.8,3.4-6.4,1.5-8.5c-0.4-0.4-0.3-1,0.1-1.4c0.4-0.4,1-0.3,1.4,0.1c2.8,3.2,0.5,7.6-1.2,10.8l-0.2,0.3
						c-0.1,0.3-0.3,0.6-0.5,0.9c0.9-0.3,1.9-0.6,2.9-0.7c2.1-0.3,4,0.1,5.5,1.1c0.2,0.1,0.3,0.2,0.5,0.4c0.4,0.3,0.7,0.5,0.9,0.6
						c0.6,0.1,1.3-0.4,2-0.9c0.3-0.2,0.6-0.4,0.9-0.6c1.5-0.9,3.5-1.3,5.6-1c1.4,0.2,2.6,0.6,3.9,1.1c0.4-0.9,1.2-1.6,1.9-2.2
						c0.4-0.3,0.9-0.7,1.2-1.1c0.3-0.4,0.6-0.9,0.9-1.4c0.4-0.8,1-1.7,1.9-2.2c-0.5-1-1-2.1-1.5-3.2c-0.7-1.5-1.4-2.9-1.9-4
						c-0.2-0.5,0-1.1,0.5-1.3c0.5-0.2,1.1,0,1.3,0.5c0.5,1.1,1.2,2.6,1.9,4c0.7,1.6,1.5,3.1,2.1,4.3c0.2,0.3,0.1,0.7-0.1,1
						c-0.2,0.3-0.5,0.5-0.8,0.5c0,0,0,0,0,0c-0.6,0-0.9,0.4-1.5,1.5c-0.3,0.5-0.6,1.2-1.1,1.7c-0.5,0.5-1,1-1.5,1.3
						c-1,0.8-1.4,1.2-1.3,1.8c0.1,0.4-0.1,0.7-0.4,0.9c-0.3,0.2-0.7,0.3-1,0.2c-1.6-0.6-3.1-1.2-4.7-1.4c-1.7-0.2-3.2,0-4.3,0.7
						c-0.3,0.2-0.5,0.4-0.8,0.5C1204.1,881.4,1203.1,882.1,1201.9,882.1z"/>
				</g>
			</g>
		</g>
		<g id="XMLID_40_">
			<g>
				<g>
					<path class="st2" d="M1248.2,871.4c-0.3-1.9,1.8-2.5,3-4c0.5-0.6,0.9-1.3,1.2-2c0.6,0.7,1.1,1.5,1.4,1.9
						c0.7,0.8,0.9,2.1,0.5,3.1c-0.2,0.5-0.5,0.9-0.8,1.3c-0.1,0.1-0.2,0.3-0.2,0.5c-0.7,1.8-2.7,2.7-4.6,2.1
						c-0.3-0.1-0.5-0.1-0.7-0.1L1248.2,871.4z"/>
				</g>
				<g>
					<path class="st2" d="M1248.2,871.4l-0.1,2.7c-0.1,0-0.1,0-0.2,0c-1.2,0.2-2.2,1.1-3.1,1.9s-2,1.6-3.2,1.7
						c-1.4,0.1-0.4,3.5-1.8,3.7c-1.4,0.2-3.6-2.2-4.5-1.2c-4.2,4.8-5.9,2.3-6.9-2.8l-2.6-1.4c-0.2-1.6-0.7-3.1-1.1-4.7
						c1.2-0.3,2.5-0.8,3.2-0.9c1.7-0.2,3.4,0,4.8,0.9c0.6,0.4,1.1,0.9,1.8,1.1c1.3,0.3,2.5-0.9,3.6-1.7c1.4-0.9,3.3-1.1,4.9-0.9
						C1245,870.1,1246.6,870.8,1248.2,871.4z"/>
				</g>
				<g>
					<path class="st1" d="M1254.6,863.8c-1.1,0-1.6,0.7-2.2,1.6c0,0,0,0,0,0c-0.4,0.7-0.7,1.4-1.2,2c-1.2,1.4-3.3,2.1-3,4
						c-1.6-0.6-3.2-1.3-4.9-1.5c-1.7-0.2-3.5,0-4.9,0.9c-1.2,0.7-2.3,2-3.6,1.7c-0.7-0.1-1.2-0.7-1.8-1.1c-1.4-1-3.2-1.2-4.8-0.9
						c-0.7,0.1-2,0.7-3.2,0.9c-1.7,0.4-3.4,0.3-3.3-2.5c0-0.6,0-1.1,0.1-1.6c0.7-8.6,6.6-10.7,7.9-15.2c1.1-2.8,2.3-5.6,4.3-7.8
						c0.2-0.2,0.4-0.4,0.7-0.6c2.1-1.8,4.9-2.7,7.4-1.8c1.7,0.6,3,1.9,4.2,3.2c1.3,1.3,2.6,2.7,3.9,4c1.9,1.9,3.9,4.6,2.7,7
						c-0.6,0-1.4-0.3-2.3-0.5C1251.7,857.7,1253.5,861.5,1254.6,863.8z"/>
				</g>
				<g>
					<path class="st2" d="M1229.6,852.1c-1.3,4.5-7.2,6.6-7.9,15.2c-4.1,0-6.1-4.8-4-6.6c3.3-2.8,0.6-5,2.1-7
						c0.8-1.1,1.9-2.1,2.2-3.5c0.5-2-0.3-4.8,1.5-5.7c1.1-0.5,2.4,0.1,3.5,0.8c3.5,2.2,4-3.7,7.5-1.5c-0.2,0.2-0.5,0.4-0.7,0.6
						C1231.9,846.5,1230.7,849.3,1229.6,852.1z"/>
				</g>
			</g>
			<g>
				<g>
					<path class="st4" d="M1221.7,868.2C1221.7,868.2,1221.7,868.2,1221.7,868.2c-2.8,0-4.8-2-5.5-3.9c-0.6-1.8-0.3-3.5,0.9-4.5
						c1.6-1.3,1.5-2.3,1.3-3.6c-0.1-1-0.2-2.1,0.6-3.3c0.2-0.3,0.5-0.6,0.7-0.9c0.6-0.8,1.2-1.5,1.4-2.3c0.2-0.6,0.2-1.3,0.2-2
						c0-1.6,0.1-3.5,1.9-4.4c1.8-0.9,3.7,0.3,4.5,0.9c1,0.7,1.5,0.3,2.5-0.6c1-0.9,2.6-2.4,5-0.9c0.5,0.3,0.6,0.9,0.3,1.4
						c-0.3,0.5-0.9,0.6-1.4,0.3c-1-0.7-1.5-0.3-2.5,0.6c-1,0.9-2.6,2.4-4.9,0.9c-0.8-0.5-1.9-1.1-2.5-0.7c-0.6,0.3-0.7,1.1-0.8,2.7
						c0,0.8,0,1.7-0.3,2.4c-0.3,1.2-1.1,2.1-1.8,3c-0.2,0.3-0.4,0.5-0.6,0.8c-0.4,0.5-0.3,1-0.2,1.9c0.2,1.4,0.4,3.3-2,5.3
						c-0.6,0.5-0.6,1.5-0.3,2.3c0.4,1.2,1.6,2.6,3.6,2.6c0.6,0,1,0.5,1,1C1222.7,867.8,1222.3,868.2,1221.7,868.2z"/>
				</g>
				<g>
					<path class="st4" d="M1231.7,883.8c-0.2,0-0.5,0-0.7-0.1c-2-0.5-2.8-3.2-3.3-5.6l-2.2-1.2c-0.3-0.2-0.5-0.4-0.5-0.8
						c-0.1-1-0.4-1.9-0.6-2.9c-0.2-0.6-0.3-1.1-0.4-1.7c-0.1-0.5,0.2-1.1,0.8-1.2c0.5-0.1,1.1,0.2,1.2,0.8c0.1,0.5,0.3,1.1,0.4,1.6
						c0.2,0.9,0.5,1.7,0.6,2.7l2.1,1.2c0.3,0.1,0.4,0.4,0.5,0.7c0.7,3.7,1.6,4.4,2,4.5c0.3,0.1,1.2,0,3.1-2.2c1-1.2,2.5-0.4,3.6,0.2
						c0.4,0.2,1,0.6,1.4,0.6c0.1-0.2,0.1-0.7,0.2-1c0.1-1,0.3-2.6,1.8-2.7c0.9,0,1.8-0.7,2.6-1.4l0.1-0.1c0.9-0.8,2-1.8,3.4-2
						c0.5-0.1,0.8,0,1.4,0.1c1.4,0.4,2.8-0.2,3.3-1.5c0.1-0.2,0.2-0.4,0.3-0.6c0.3-0.4,0.5-0.8,0.7-1.1c0.3-0.7,0.1-1.5-0.3-2.1
						c-0.2-0.2-0.4-0.5-0.6-0.8c-0.2-0.3-0.5-0.7-0.8-1.1c-0.3-0.4-0.3-1.1,0.1-1.4c0.4-0.3,1.1-0.3,1.4,0.1
						c0.3,0.4,0.6,0.8,0.9,1.2c0.2,0.3,0.4,0.5,0.5,0.7c1,1.1,1.2,2.7,0.7,4.1c-0.2,0.6-0.6,1.1-0.9,1.5c0,0-0.1,0.1-0.1,0.3
						c-0.9,2.3-3.4,3.4-5.8,2.6c-0.2-0.1-0.4-0.1-0.4-0.1c-0.9,0.2-1.7,0.9-2.5,1.6l-0.1,0.1c-1,0.9-2.2,1.7-3.6,1.9
						c-0.1,0.2-0.1,0.7-0.1,0.9c-0.1,1-0.3,2.6-1.7,2.8c-0.9,0.1-1.8-0.4-2.7-0.8c-0.4-0.2-1-0.5-1.2-0.6
						C1235,882.3,1233.4,883.8,1231.7,883.8z M1236.2,880.9C1236.2,880.9,1236.2,880.9,1236.2,880.9
						C1236.2,880.9,1236.2,880.9,1236.2,880.9z M1239.8,880.4L1239.8,880.4L1239.8,880.4z"/>
				</g>
				<g>
					<path class="st4" d="M1235.2,873.5c-0.2,0-0.4,0-0.6-0.1c-0.7-0.2-1.3-0.6-1.7-0.9c-0.1-0.1-0.3-0.2-0.4-0.3
						c-1.1-0.7-2.5-1-4.1-0.8c-0.3,0-0.8,0.2-1.2,0.4c-0.6,0.2-1.2,0.4-1.8,0.6c-0.6,0.1-2.3,0.6-3.5-0.4c-0.8-0.6-1.1-1.7-1.1-3.1
						c0-0.6,0-1.1,0.1-1.7c0.4-5.6,3.1-8.7,5.2-11.1c1.3-1.5,2.3-2.7,2.8-4.3c0,0,0-0.1,0-0.1c1.1-2.7,2.3-5.8,4.5-8.1
						c0.2-0.2,0.5-0.5,0.8-0.7c2.5-2.2,5.8-3,8.4-2c1.9,0.7,3.4,2.2,4.6,3.4l3.9,4c1.1,1.2,4.5,4.7,2.9,8.1
						c-0.2,0.3-0.5,0.6-0.9,0.6c-0.1,0-0.3,0-0.5,0c0.3,0.7,0.7,1.4,1,2.1c0.7,1.5,1.5,3.1,2,4.3c0.2,0.3,0.1,0.7,0,1
						c-0.2,0.3-0.5,0.5-0.9,0.5c-0.4,0-0.7,0.1-1.2,1c0,0,0,0,0,0.1l-0.2,0.4c-0.3,0.5-0.6,1.2-1.1,1.7c-0.5,0.5-1,1-1.5,1.4
						c-1,0.8-1.4,1.2-1.3,1.8c0.1,0.4-0.1,0.7-0.4,0.9c-0.3,0.2-0.7,0.3-1,0.2c-1.5-0.6-3.1-1.2-4.7-1.4c-1.6-0.2-3.2,0-4.3,0.7
						c-0.3,0.2-0.5,0.3-0.8,0.5C1237.3,872.7,1236.3,873.5,1235.2,873.5z M1229.4,869.3c1.6,0,3,0.4,4.2,1.2
						c0.2,0.1,0.3,0.2,0.5,0.4c0.3,0.3,0.7,0.5,1,0.6c0.5,0.1,1.1-0.3,2-0.9c0.3-0.2,0.6-0.4,0.9-0.6c1.9-1.2,4.1-1.2,5.6-1
						c1.4,0.2,2.7,0.6,3.9,1.1c0.4-0.9,1.2-1.6,1.9-2.2c0.4-0.3,0.9-0.7,1.2-1.1c0.3-0.4,0.6-0.9,0.9-1.4l0.2-0.4c0,0,0-0.1,0.1-0.1
						c0.3-0.5,0.8-1.3,1.6-1.8c-0.5-1-1-2.1-1.5-3.2c-0.6-1.3-1.2-2.6-1.7-3.7c-0.9-0.2-1.1-0.2-1.2-0.1c0,0-0.4,0.4,0.1,2.8
						c0.3,1.6,0.2,2.8-0.5,3.7c-0.8,1.2-2.2,1.5-3.2,1.7c-4.1,0.6-6.3,0.4-7.3-0.9c-1.1-1.4-0.2-3.4,0.8-5.7c1.2-2.7,2.6-5.7,1-8.1
						c-0.3-0.5-0.2-1.1,0.2-1.4c0.5-0.3,1.1-0.2,1.4,0.2c2.3,3.3,0.5,7.2-0.8,10.1c-0.6,1.4-1.4,3.2-1.1,3.7c0.2,0.2,1,0.8,5.4,0.1
						c1-0.2,1.6-0.4,1.9-0.8c0.3-0.4,0.4-1.2,0.1-2.2c-0.5-2.4-0.3-3.9,0.5-4.7c1-0.9,2.6-0.5,3.5-0.2c0,0,0,0,0,0l0.3,0.1
						c0.3,0.1,0.7,0.2,1,0.3c0.2-1.4-0.7-3.1-2.8-5.2l-3.9-4c-1.1-1.1-2.3-2.4-3.8-2.9c-2.3-0.8-4.9,0.3-6.4,1.7
						c-0.2,0.2-0.4,0.4-0.6,0.6c-1.9,2-3,4.8-4.1,7.4c-0.6,1.9-1.8,3.4-3.2,5c-2,2.4-4.3,5-4.7,10c0,0.5-0.1,1-0.1,1.6
						c0,0.8,0.1,1.3,0.3,1.5c0.2,0.1,0.6,0.3,1.7,0c0.6-0.1,1.1-0.3,1.7-0.5c0.6-0.2,1.2-0.4,1.6-0.5
						C1228.4,869.3,1228.9,869.3,1229.4,869.3z"/>
				</g>
			</g>
		</g>
		<g>
			<g>
				<path class="st4" d="M1215.9,730.9c-28.9,0-71.8-2.9-71.8-10.8c0-7.9,43-10.8,71.8-10.8s71.8,2.9,71.8,10.8
					C1287.8,728,1244.8,730.9,1215.9,730.9z M1215.9,711.3c-46.5,0-69.8,5.6-69.8,8.8c0,3.2,23.3,8.8,69.8,8.8s69.8-5.7,69.8-8.8
					C1285.8,716.9,1262.4,711.3,1215.9,711.3z"/>
			</g>
			<g>
				<path class="st4" d="M1215.9,809.4c-24.6,0-61.1-2.9-61.1-10.8c0-7.9,36.6-10.8,61.1-10.8s61.1,2.9,61.1,10.8
					C1277.1,806.5,1240.5,809.4,1215.9,809.4z M1215.9,789.8c-36.6,0-59.1,5.1-59.1,8.8c0,3.7,22.5,8.8,59.1,8.8s59.1-5.1,59.1-8.8
					C1275.1,794.9,1252.6,789.8,1215.9,789.8z"/>
			</g>
			<g>
				<path class="st4" d="M1166.8,878.1c-0.5,0-0.9-0.4-1-0.9l-21.7-157.1c-0.1-0.5,0.3-1.1,0.9-1.1c0.5-0.1,1.1,0.3,1.1,0.9
					l21.7,157.1c0.1,0.5-0.3,1.1-0.9,1.1C1166.9,878.1,1166.8,878.1,1166.8,878.1z"/>
			</g>
			<g>
				<path class="st4" d="M1265.1,878.1c0,0-0.1,0-0.1,0c-0.5-0.1-0.9-0.6-0.9-1.1l21.7-157.1c0.1-0.5,0.6-0.9,1.1-0.9
					c0.5,0.1,0.9,0.6,0.9,1.1l-21.7,157.1C1266,877.8,1265.6,878.1,1265.1,878.1z"/>
			</g>
			<g>
				<path class="st4" d="M1252.7,807.3c-0.4,0-0.7-0.2-0.9-0.6l-35.9-74.6l-35.9,74.6c-0.2,0.4-0.5,0.6-0.9,0.6
					c-0.4,0-0.7-0.3-0.9-0.6l-34-86.3c-0.2-0.5,0.1-1.1,0.6-1.3c0.5-0.2,1.1,0.1,1.3,0.6l33.1,84.2l35.9-74.4
					c0.2-0.3,0.5-0.6,0.9-0.6h0c0.4,0,0.7,0.2,0.9,0.6l35.8,74.4l33.1-84.1c0.2-0.5,0.8-0.8,1.3-0.6c0.5,0.2,0.8,0.8,0.6,1.3
					l-34,86.3C1253.5,807.1,1253.1,807.3,1252.7,807.3C1252.7,807.3,1252.7,807.3,1252.7,807.3z"/>
			</g>
			<g>
				<path class="st4" d="M1215.9,887.9c-0.4,0-0.7-0.2-0.9-0.6l-35.5-77.7l-11.8,67.6c-0.1,0.5-0.6,0.9-1.2,0.8
					c-0.5-0.1-0.9-0.6-0.8-1.2l12.3-70.8c0.1-0.4,0.4-0.8,0.9-0.8c0.4,0,0.9,0.2,1,0.6l36.8,80.6c0.2,0.5,0,1.1-0.5,1.3
					C1216.2,887.9,1216.1,887.9,1215.9,887.9z"/>
			</g>
			<g>
				<path class="st4" d="M1215.9,887.9c-0.1,0-0.3,0-0.4-0.1c-0.5-0.2-0.7-0.8-0.5-1.3l36.8-80.6c0.2-0.4,0.6-0.6,1-0.6
					c0.4,0.1,0.8,0.4,0.9,0.8l12.3,70.8c0.1,0.5-0.3,1.1-0.8,1.2c-0.5,0.1-1.1-0.3-1.2-0.8l-11.8-67.6l-35.5,77.7
					C1216.7,887.7,1216.3,887.9,1215.9,887.9z"/>
			</g>
		</g>
	</g>
	<g>
		<g id="XMLID_232_">
			<g>
				<g>
					<path class="st1" d="M981.8,761.3v56.9h-91.4v-56.9H981.8z M973.1,807.3v-35.1h-32.9v35.1H973.1z M931.9,807.3v-35.1H899v35.1
						H931.9z"/>
				</g>
				<g>
					<path class="st3" d="M973.1,772.1v35.1h-32.9v-35.1H973.1z M965.6,790.3v-1.1c0-1.5-1.2-2.7-2.7-2.7h-3.8v6.5h3.8
						C964.4,793,965.6,791.8,965.6,790.3z M954.3,793v-6.5h-3.8c-1.5,0-2.7,1.2-2.7,2.7v1.1c0,1.5,1.2,2.7,2.7,2.7H954.3z"/>
				</g>
				<g>
					<path class="st2" d="M965.6,789.2v1.1c0,1.5-1.2,2.7-2.7,2.7h-3.8v-6.5h3.8C964.4,786.5,965.6,787.7,965.6,789.2z"/>
				</g>
				<g>
					<path class="st2" d="M954.3,786.5v6.5h-3.8c-1.5,0-2.7-1.2-2.7-2.7v-1.1c0-1.5,1.2-2.7,2.7-2.7H954.3z"/>
				</g>
				<g>
					<path class="st3" d="M931.9,772.1v35.1H899v-35.1H931.9z M924.3,790.3v-1.1c0-1.5-1.2-2.7-2.7-2.7h-3.8v6.5h3.8
						C923.1,793,924.3,791.8,924.3,790.3z M913,793v-6.5h-3.8c-1.5,0-2.7,1.2-2.7,2.7v1.1c0,1.5,1.2,2.7,2.7,2.7H913z"/>
				</g>
				<g>
					<path class="st2" d="M924.3,789.2v1.1c0,1.5-1.2,2.7-2.7,2.7h-3.8v-6.5h3.8C923.1,786.5,924.3,787.7,924.3,789.2z"/>
				</g>
				<g>
					<path class="st2" d="M913,786.5v6.5h-3.8c-1.5,0-2.7-1.2-2.7-2.7v-1.1c0-1.5,1.2-2.7,2.7-2.7H913z"/>
				</g>
			</g>
			<g>
				<g>
					<path class="st4" d="M981.8,819.2h-91.4c-0.6,0-1-0.4-1-1v-56.9c0-0.6,0.4-1,1-1h91.4c0.6,0,1,0.4,1,1v56.9
						C982.8,818.7,982.3,819.2,981.8,819.2z M891.3,817.2h89.4v-54.9h-89.4V817.2z"/>
				</g>
				<g>
					<path class="st4" d="M973.1,808.3h-32.9c-0.6,0-1-0.4-1-1v-35.1c0-0.6,0.4-1,1-1h32.9c0.6,0,1,0.4,1,1v35.1
						C974.1,807.9,973.7,808.3,973.1,808.3z M941.2,806.3h30.9v-33.1h-30.9V806.3z"/>
				</g>
				<g>
					<path class="st4" d="M954.3,794h-3.8c-2,0-3.7-1.7-3.7-3.7v-1.1c0-2,1.7-3.7,3.7-3.7h3.8c0.6,0,1,0.4,1,1v6.5
						C955.3,793.5,954.8,794,954.3,794z M950.4,787.5c-0.9,0-1.7,0.8-1.7,1.7v1.1c0,0.9,0.8,1.7,1.7,1.7h2.8v-4.5H950.4z"/>
				</g>
				<g>
					<path class="st4" d="M962.9,794h-3.8c-0.6,0-1-0.4-1-1v-6.5c0-0.6,0.4-1,1-1h3.8c2,0,3.7,1.7,3.7,3.7v1.1
						C966.6,792.3,964.9,794,962.9,794z M960.1,792h2.8c0.9,0,1.7-0.8,1.7-1.7v-1.1c0-0.9-0.8-1.7-1.7-1.7h-2.8V792z"/>
				</g>
				<g>
					<path class="st4" d="M913,794h-3.8c-2,0-3.7-1.7-3.7-3.7v-1.1c0-2,1.7-3.7,3.7-3.7h3.8c0.6,0,1,0.4,1,1v6.5
						C914,793.5,913.6,794,913,794z M909.2,787.5c-0.9,0-1.7,0.8-1.7,1.7v1.1c0,0.9,0.8,1.7,1.7,1.7h2.8v-4.5H909.2z"/>
				</g>
				<g>
					<path class="st4" d="M921.6,794h-3.8c-0.6,0-1-0.4-1-1v-6.5c0-0.6,0.4-1,1-1h3.8c2,0,3.7,1.7,3.7,3.7v1.1
						C925.3,792.3,923.7,794,921.6,794z M918.8,792h2.8c0.9,0,1.7-0.8,1.7-1.7v-1.1c0-0.9-0.8-1.7-1.7-1.7h-2.8V792z"/>
				</g>
				<g>
					<path class="st4" d="M931.9,808.3H899c-0.6,0-1-0.4-1-1v-35.1c0-0.6,0.4-1,1-1h32.9c0.6,0,1,0.4,1,1v35.1
						C932.9,807.9,932.4,808.3,931.9,808.3z M900,806.3h30.9v-33.1H900V806.3z"/>
				</g>
			</g>
		</g>
		<g class="st5">
			<g>
				<polygon class="st6" points="899,772.1 931.9,807.3 899,807.3 				"/>
			</g>
		</g>
		<g class="st5">
			<g>
				<polygon class="st6" points="940.2,772.1 973.1,807.3 940.2,807.3 				"/>
			</g>
		</g>
	</g>
	<g>
		<g>
			<g>
				<g id="XMLID_231_">
					<g>
						<g>
							<polygon class="st3" points="1144.2,531.1 1144.2,544 1136.2,544 1118.9,544 1110.8,544 1110.8,531.1 							"/>
						</g>
						<g>
							<polygon class="st1" points="1144.2,512 1144.2,531.1 1110.8,531.1 1047.9,531.1 1004,531.1 482.1,531.1 438.3,531.1 
								375.3,531.1 341.9,531.1 341.9,512 							"/>
						</g>
						<g>
							<path class="st1" d="M1136.2,544v16.6h-17.3V544H1136.2z M1131.6,552.3c0-2.2-1.8-3.9-4.1-3.9s-4.1,1.8-4.1,3.9
								c0,2.2,1.8,3.9,4.1,3.9S1131.6,554.5,1131.6,552.3z"/>
						</g>
						<g>
							<ellipse class="st3" cx="1127.5" cy="552.3" rx="4.1" ry="3.9"/>
						</g>
						<g>
							<polygon class="st3" points="1047.9,531.1 1047.9,544 1042.9,544 1009,544 1004,544 1004,531.1 							"/>
						</g>
						<g>
							<polygon class="st2" points="1042.9,544 1038.4,708.2 1033.5,886.9 1018.4,886.9 1009,544 							"/>
						</g>
						<g>
							<polygon class="st3" points="482.1,531.1 482.1,544 477.1,544 443.3,544 438.3,544 438.3,531.1 							"/>
						</g>
						<g>
							<polygon class="st2" points="477.1,544 467.8,886.9 452.6,886.9 447.7,708.2 443.3,544 							"/>
						</g>
						<g>
							<polygon class="st3" points="375.3,531.1 375.3,544 367.2,544 350,544 341.9,544 341.9,531.1 							"/>
						</g>
						<g>
							<path class="st1" d="M367.2,544v16.6H350V544H367.2z M362.7,552.3c0-2.2-1.8-3.9-4.1-3.9c-2.3,0-4.1,1.8-4.1,3.9
								c0,2.2,1.8,3.9,4.1,3.9C360.9,556.2,362.7,554.5,362.7,552.3z"/>
						</g>
						<g>
							<ellipse class="st3" cx="358.6" cy="552.3" rx="4.1" ry="3.9"/>
						</g>
					</g>
					<g>
						<g>
							<path class="st4" d="M1144.2,532.1c-0.6,0-1-0.4-1-1V513H342.9v18.2c0,0.6-0.4,1-1,1c-0.6,0-1-0.4-1-1V512c0-0.6,0.4-1,1-1
								h802.3c0.6,0,1,0.4,1,1v19.2C1145.2,531.7,1144.8,532.1,1144.2,532.1z"/>
						</g>
						<g>
							<path class="st4" d="M438.3,532.1h-63c-0.6,0-1-0.4-1-1c0-0.6,0.4-1,1-1h63c0.6,0,1,0.4,1,1
								C439.3,531.7,438.8,532.1,438.3,532.1z"/>
						</g>
						<g>
							<path class="st4" d="M1004,532.1H482.1c-0.6,0-1-0.4-1-1c0-0.6,0.4-1,1-1H1004c0.6,0,1,0.4,1,1
								C1005,531.7,1004.6,532.1,1004,532.1z"/>
						</g>
						<g>
							<path class="st4" d="M1110.8,532.1h-63c-0.6,0-1-0.4-1-1c0-0.6,0.4-1,1-1h63c0.6,0,1,0.4,1,1
								C1111.8,531.7,1111.4,532.1,1110.8,532.1z"/>
						</g>
						<g>
							<path class="st4" d="M482.1,545h-5c-0.6,0-1-0.4-1-1c0-0.6,0.4-1,1-1h4v-10.8h-41.8V543h4c0.6,0,1,0.4,1,1c0,0.6-0.4,1-1,1
								h-5c-0.6,0-1-0.4-1-1v-12.8c0-0.6,0.4-1,1-1h43.8c0.6,0,1,0.4,1,1V544C483.1,544.5,482.7,545,482.1,545z"/>
						</g>
						<g>
							<path class="st4" d="M375.3,545h-8.1c-0.6,0-1-0.4-1-1c0-0.6,0.4-1,1-1h7.1v-10.8h-31.4V543h7.1c0.6,0,1,0.4,1,1
								c0,0.6-0.4,1-1,1h-8.1c-0.6,0-1-0.4-1-1v-12.8c0-0.6,0.4-1,1-1h33.4c0.6,0,1,0.4,1,1V544C376.3,544.5,375.9,545,375.3,545z"
								/>
						</g>
						<g>
							<path class="st4" d="M367.2,561.6H350c-0.6,0-1-0.4-1-1V544c0-0.6,0.4-1,1-1h17.3c0.6,0,1,0.4,1,1v16.6
								C368.2,561.2,367.8,561.6,367.2,561.6z M351,559.6h15.3V545H351V559.6z"/>
						</g>
						<g>
							<path class="st4" d="M447.7,709.2c-0.4,0-0.7-0.2-0.9-0.5l-80.5-147.6c-0.3-0.5-0.1-1.1,0.4-1.4c0.5-0.3,1.1-0.1,1.4,0.4
								l80.5,147.6c0.3,0.5,0.1,1.1-0.4,1.4C448.1,709.2,447.9,709.2,447.7,709.2z"/>
						</g>
						<g>
							<path class="st4" d="M358.6,557.2c-2.8,0-5.1-2.2-5.1-4.9c0-2.7,2.3-4.9,5.1-4.9c2.8,0,5.1,2.2,5.1,4.9
								C363.7,555,361.4,557.2,358.6,557.2z M358.6,549.3c-1.7,0-3.1,1.3-3.1,2.9c0,1.6,1.4,2.9,3.1,2.9c1.7,0,3.1-1.3,3.1-2.9
								C361.7,550.7,360.3,549.3,358.6,549.3z"/>
						</g>
						<g>
							<path class="st4" d="M467.8,887.9h-15.1c-0.5,0-1-0.4-1-1l-9.4-343c0-0.3,0.1-0.5,0.3-0.7c0.2-0.2,0.4-0.3,0.7-0.3h33.9
								c0.3,0,0.5,0.1,0.7,0.3c0.2,0.2,0.3,0.5,0.3,0.7l-9.4,343C468.8,887.5,468.3,887.9,467.8,887.9z M453.6,885.9h13.2l9.3-341
								h-31.8L453.6,885.9z"/>
						</g>
						<g>
							<path class="st4" d="M1047.9,545h-5c-0.6,0-1-0.4-1-1c0-0.6,0.4-1,1-1h4v-10.8H1005V543h4c0.6,0,1,0.4,1,1c0,0.6-0.4,1-1,1
								h-5c-0.6,0-1-0.4-1-1v-12.8c0-0.6,0.4-1,1-1h43.8c0.6,0,1,0.4,1,1V544C1048.9,544.5,1048.4,545,1047.9,545z"/>
						</g>
						<g>
							<path class="st4" d="M1144.2,545h-8.1c-0.6,0-1-0.4-1-1c0-0.6,0.4-1,1-1h7.1v-10.8h-31.4V543h7.1c0.6,0,1,0.4,1,1
								c0,0.6-0.4,1-1,1h-8.1c-0.6,0-1-0.4-1-1v-12.8c0-0.6,0.4-1,1-1h33.4c0.6,0,1,0.4,1,1V544C1145.2,544.5,1144.8,545,1144.2,545
								z"/>
						</g>
						<g>
							<path class="st4" d="M1136.2,561.6h-17.3c-0.6,0-1-0.4-1-1V544c0-0.6,0.4-1,1-1h17.3c0.6,0,1,0.4,1,1v16.6
								C1137.2,561.2,1136.7,561.6,1136.2,561.6z M1119.9,559.6h15.3V545h-15.3V559.6z"/>
						</g>
						<g>
							<path class="st4" d="M1038.4,709.2c-0.2,0-0.3,0-0.5-0.1c-0.5-0.3-0.7-0.9-0.4-1.4l80.5-147.6c0.3-0.5,0.9-0.7,1.4-0.4
								c0.5,0.3,0.7,0.9,0.4,1.4l-80.5,147.6C1039.1,709,1038.8,709.2,1038.4,709.2z"/>
						</g>
						<g>
							<path class="st4" d="M1127.5,557.2c-2.8,0-5.1-2.2-5.1-4.9c0-2.7,2.3-4.9,5.1-4.9s5.1,2.2,5.1,4.9
								C1132.6,555,1130.4,557.2,1127.5,557.2z M1127.5,549.3c-1.7,0-3.1,1.3-3.1,2.9c0,1.6,1.4,2.9,3.1,2.9c1.7,0,3.1-1.3,3.1-2.9
								C1130.6,550.7,1129.3,549.3,1127.5,549.3z"/>
						</g>
						<g>
							<path class="st4" d="M1033.5,887.9h-15.1c-0.5,0-1-0.4-1-1l-9.4-343c0-0.3,0.1-0.5,0.3-0.7c0.2-0.2,0.4-0.3,0.7-0.3h33.9
								c0.3,0,0.5,0.1,0.7,0.3c0.2,0.2,0.3,0.5,0.3,0.7l-9.4,343C1034.5,887.5,1034.1,887.9,1033.5,887.9z M1019.4,885.9h13.2
								l9.3-341H1010L1019.4,885.9z"/>
						</g>
					</g>
				</g>
			</g>
		</g>
		<g>
			<g>
				<g class="st7">
					<g>
						<polygon class="st8" points="1042.5,560.1 1009.5,560.1 1009,544 1042.9,544 						"/>
					</g>
				</g>
				<g class="st5">
					<g>
						<rect x="1004" y="531.1" class="st6" width="43.8" height="5.9"/>
					</g>
				</g>
				<g class="st5">
					<g>
						<rect x="1110.9" y="531.1" class="st6" width="33.4" height="5.9"/>
					</g>
				</g>
			</g>
			<g>
				<g class="st7">
					<g>
						<polygon class="st8" points="443.7,560.1 476.7,560.1 477.2,544 443.3,544 						"/>
					</g>
				</g>
				<g class="st5">
					<g>
						
							<rect x="438.3" y="531.1" transform="matrix(-1 -1.224647e-16 1.224647e-16 -1 920.4261 1068.1829)" class="st6" width="43.8" height="5.9"/>
					</g>
				</g>
				<g class="st5">
					<g>
						
							<rect x="341.9" y="531.1" transform="matrix(-1 -1.224647e-16 1.224647e-16 -1 717.2556 1068.1829)" class="st6" width="33.4" height="5.9"/>
					</g>
				</g>
			</g>
		</g>
	</g>
	<g>
		<g>
			<g id="XMLID_307_">
				<g>
					<g>
						<path class="st2" d="M859.1,498.3v9c0,2.6-2.1,4.7-4.7,4.7H631.7c-2.6,0-4.7-2.1-4.7-4.7v-9h20h69.6v0.4c0,3,2.4,5.4,5.4,5.4
							h42c3,0,5.4-2.4,5.4-5.4v-0.4h69.6H859.1z"/>
					</g>
					<g>
						<path class="st3" d="M843.8,364.6v128.9c0,2.6-2.1,4.8-4.8,4.8h-69.6h-52.9h-69.6c-2.6,0-4.8-2.1-4.8-4.8V364.6
							c0-2.6,2.1-4.8,4.8-4.8h192C841.7,359.8,843.8,362,843.8,364.6z M746.8,368.8c0-2.1-1.7-3.7-3.7-3.7c-2.1,0-3.7,1.7-3.7,3.7
							c0,2.1,1.7,3.7,3.7,3.7C745.1,372.5,746.8,370.8,746.8,368.8z"/>
					</g>
					<g>
						<path class="st1" d="M769.5,498.3v0.4c0,3-2.4,5.4-5.4,5.4h-42c-3,0-5.4-2.4-5.4-5.4v-0.4H769.5z"/>
					</g>
					<g>
						<path class="st2" d="M743.1,365c2.1,0,3.7,1.7,3.7,3.7c0,2.1-1.7,3.7-3.7,3.7c-2.1,0-3.7-1.7-3.7-3.7
							C739.4,366.7,741,365,743.1,365z"/>
					</g>
				</g>
				<g>
					<g>
						<path class="st4" d="M839.1,499.3c-0.6,0-1-0.4-1-1c0-0.6,0.4-1,1-1c2.1,0,3.8-1.7,3.8-3.8V364.6c0-2.1-1.7-3.8-3.8-3.8h-192
							c-2.1,0-3.8,1.7-3.8,3.8v128.9c0,2.1,1.7,3.8,3.8,3.8c0.6,0,1,0.4,1,1c0,0.6-0.4,1-1,1c-3.2,0-5.8-2.6-5.8-5.8V364.6
							c0-3.2,2.6-5.8,5.8-5.8h192c3.2,0,5.8,2.6,5.8,5.8v128.9C844.8,496.7,842.3,499.3,839.1,499.3z"/>
					</g>
					<g>
						<path class="st4" d="M854.5,513H631.7c-3.1,0-5.7-2.5-5.7-5.7v-9c0-0.6,0.4-1,1-1h89.6c0.6,0,1,0.4,1,1c0,0.6-0.4,1-1,1H628v8
							c0,2,1.6,3.7,3.7,3.7h222.8c2,0,3.7-1.6,3.7-3.7v-8h-88.6c-0.6,0-1-0.4-1-1c0-0.6,0.4-1,1-1h89.6c0.6,0,1,0.4,1,1v9
							C860.1,510.4,857.6,513,854.5,513z"/>
					</g>
					<g>
						<path class="st4" d="M764.1,505.1h-42c-3.5,0-6.4-2.9-6.4-6.4v-0.4c0-0.6,0.4-1,1-1h52.9c0.6,0,1,0.4,1,1v0.4
							C770.5,502.2,767.6,505.1,764.1,505.1z M717.7,499.3c0.3,2.1,2.2,3.8,4.4,3.8h42c2.2,0,4.1-1.6,4.4-3.8H717.7z"/>
					</g>
					<g>
						<path class="st4" d="M743.1,373.5c-2.6,0-4.7-2.1-4.7-4.7c0-2.6,2.1-4.7,4.7-4.7c2.6,0,4.7,2.1,4.7,4.7
							C747.8,371.4,745.7,373.5,743.1,373.5z M743.1,366c-1.5,0-2.7,1.2-2.7,2.7c0,1.5,1.2,2.7,2.7,2.7c1.5,0,2.7-1.2,2.7-2.7
							C745.8,367.3,744.6,366,743.1,366z"/>
					</g>
				</g>
			</g>
		</g>
		<g>
			<g id="XMLID_306_">
				<g>
					<g>
						<rect x="653.6" y="378" class="st2" width="179" height="105.1"/>
					</g>
				</g>
				<g>
					<g>
						<path class="st4" d="M832.6,484.1h-179c-0.6,0-1-0.4-1-1V378c0-0.6,0.4-1,1-1h179c0.6,0,1,0.4,1,1v105
							C833.6,483.6,833.1,484.1,832.6,484.1z M654.6,482.1h177V379h-177V482.1z"/>
					</g>
				</g>
			</g>
			<g>
				<g id="XMLID_304_">
					<g>
						<g>
							<rect x="709.6" y="390.5" class="st2" width="114.7" height="84.7"/>
						</g>
					</g>
					<g>
						<g>
							<path class="st4" d="M824.3,476.2H709.6c-0.6,0-1-0.4-1-1v-84.7c0-0.6,0.4-1,1-1h114.7c0.6,0,1,0.4,1,1v84.7
								C825.3,475.8,824.8,476.2,824.3,476.2z M710.6,474.2h112.7v-82.7H710.6V474.2z"/>
						</g>
					</g>
				</g>
				<g id="XMLID_295_">
					<g id="XMLID_296_">
						<g id="XMLID_297_">
							<g>
								<g>
									<polygon class="st1" points="824.3,468.1 824.3,475.2 709.6,475.2 709.6,468.1 709.6,468.1 738.7,468.1 									"/>
								</g>
								<g>
									<polygon class="st1" points="824.3,390.5 824.3,403.7 738.7,403.7 709.6,403.7 709.6,403.7 709.6,390.5 									"/>
								</g>
								<g>
									<rect x="788.4" y="439.2" class="st1" width="29.8" height="19.9"/>
								</g>
								<g>
									<rect x="788.4" y="411.8" class="st1" width="29.8" height="19.9"/>
								</g>
								<g>
									<rect x="745.2" y="411.8" class="st1" width="36" height="48.3"/>
								</g>
								<g>
									<rect x="709.6" y="403.7" class="st1" width="29" height="64.3"/>
								</g>
							</g>
							<g>
								<g>
									<path class="st4" d="M824.3,404.7h-85.6c-0.6,0-1-0.4-1-1c0-0.6,0.4-1,1-1h84.6v-11.3H710.6v12.2c0,0,0,0.1,0,0.1
										c0,0.6-0.4,1-1,1h0c-0.6,0-1-0.4-1-1v-13.3c0-0.6,0.4-1,1-1h114.7c0.6,0,1,0.4,1,1v13.3
										C825.3,404.3,824.8,404.7,824.3,404.7z"/>
								</g>
								<g>
									<path class="st4" d="M824.3,476.2H709.6c-0.6,0-1-0.4-1-1v-7.1c0-0.6,0.4-1,1-1c0.6,0,1,0.4,1,1c0,0,0,0.1,0,0.1v6.1h112.7
										v-5.1h-84.6c-0.6,0-1-0.4-1-1c0-0.6,0.4-1,1-1h85.6c0.6,0,1,0.4,1,1v7.1C825.3,475.8,824.8,476.2,824.3,476.2z"/>
								</g>
								<g>
									<path class="st4" d="M818.2,432.7h-29.8c-0.6,0-1-0.4-1-1v-19.9c0-0.6,0.4-1,1-1h29.8c0.6,0,1,0.4,1,1v19.9
										C819.2,432.3,818.8,432.7,818.2,432.7z M789.4,430.7h27.8v-17.9h-27.8V430.7z"/>
								</g>
								<g>
									<path class="st4" d="M818.2,460.1h-29.8c-0.6,0-1-0.4-1-1v-19.9c0-0.6,0.4-1,1-1h29.8c0.6,0,1,0.4,1,1v19.9
										C819.2,459.7,818.8,460.1,818.2,460.1z M789.4,458.1h27.8v-17.9h-27.8V458.1z"/>
								</g>
								<g>
									<path class="st4" d="M738.7,469.1h-29c-0.6,0-1-0.4-1-1v-64.3c0-0.6,0.4-1,1-1h29c0.6,0,1,0.4,1,1v64.3
										C739.7,468.6,739.2,469.1,738.7,469.1z M710.6,467.1h27v-62.3h-27V467.1z"/>
								</g>
								<g>
									<path class="st4" d="M781.2,461h-36c-0.6,0-1-0.4-1-1v-48.3c0-0.6,0.4-1,1-1h36c0.6,0,1,0.4,1,1V460
										C782.2,460.6,781.7,461,781.2,461z M746.2,459h34v-46.3h-34V459z"/>
								</g>
							</g>
						</g>
					</g>
				</g>
			</g>
			<g id="XMLID_294_">
				<g>
					<g>
						<rect x="660.7" y="397.1" class="st3" width="70.6" height="56.2"/>
					</g>
				</g>
				<g>
					<g>
						<path class="st4" d="M731.3,454.3h-70.6c-0.6,0-1-0.4-1-1v-56.2c0-0.6,0.4-1,1-1h70.6c0.6,0,1,0.4,1,1v56.2
							C732.3,453.9,731.8,454.3,731.3,454.3z M661.7,452.3h68.6v-54.2h-68.6V452.3z"/>
					</g>
				</g>
			</g>
			<g id="XMLID_293_">
				<g>
					<g>
						<polygon class="st3" points="718.5,410.3 718.5,443.1 701.4,426 701.3,426 						"/>
					</g>
					<g>
						<polygon class="st1" points="718.5,410.3 701.3,426 694.9,431.9 688.5,426 671.3,410.3 						"/>
					</g>
					<g>
						<polygon class="st3" points="718.5,443.1 671.3,443.1 688.4,426 688.5,426 694.9,431.9 701.3,426 701.4,426 						"/>
					</g>
					<g>
						<polygon class="st3" points="688.5,426 688.4,426 671.3,443.1 671.3,410.3 						"/>
					</g>
				</g>
				<g>
					<g>
						<path class="st4" d="M718.5,444.1h-47.1c-0.6,0-1-0.4-1-1v-32.8c0-0.6,0.4-1,1-1h47.1c0.6,0,1,0.4,1,1v32.8
							C719.5,443.6,719,444.1,718.5,444.1z M672.3,442.1h45.1v-30.8h-45.1V442.1z"/>
					</g>
					<g>
						<path class="st4" d="M694.9,432.9c-0.2,0-0.5-0.1-0.7-0.3l-23.6-21.5c-0.4-0.4-0.4-1-0.1-1.4c0.4-0.4,1-0.4,1.4-0.1l22.9,20.9
							l22.9-20.9c0.4-0.4,1-0.3,1.4,0.1c0.4,0.4,0.3,1-0.1,1.4l-23.6,21.5C695.4,432.8,695.1,432.9,694.9,432.9z"/>
					</g>
					<g>
						<path class="st4" d="M671.3,444.1c-0.3,0-0.5-0.1-0.7-0.3c-0.4-0.4-0.4-1,0-1.4l17.1-17.1c0.4-0.4,1-0.4,1.4,0
							c0.4,0.4,0.4,1,0,1.4L672,443.8C671.9,444,671.6,444.1,671.3,444.1z"/>
					</g>
					<g>
						<path class="st4" d="M718.5,444.1c-0.3,0-0.5-0.1-0.7-0.3l-17.1-17.1c-0.4-0.4-0.4-1,0-1.4c0.4-0.4,1-0.4,1.4,0l17.1,17.1
							c0.4,0.4,0.4,1,0,1.4C719,444,718.7,444.1,718.5,444.1z"/>
					</g>
				</g>
			</g>
			<g id="XMLID_292_">
				<g>
					<g>
						<path class="st2" d="M718.5,403.7c3.6,0,6.6,3,6.6,6.6c0,3.7-3,6.6-6.6,6.6c-3.7,0-6.6-3-6.6-6.6
							C711.9,406.7,714.8,403.7,718.5,403.7z"/>
					</g>
				</g>
				<g>
					<g>
						<path class="st4" d="M718.5,418c-4.2,0-7.6-3.4-7.6-7.6c0-4.2,3.4-7.6,7.6-7.6c4.2,0,7.6,3.4,7.6,7.6
							C726.1,414.5,722.7,418,718.5,418z M718.5,404.7c-3.1,0-5.6,2.5-5.6,5.6c0,3.1,2.5,5.6,5.6,5.6c3.1,0,5.6-2.5,5.6-5.6
							C724.1,407.3,721.6,404.7,718.5,404.7z"/>
					</g>
				</g>
			</g>
		</g>
		<g>
			<polygon class="st9" points="654.6,379 723,379 654.6,448 			"/>
			<polygon class="st9" points="721.7,482.1 831.6,379 831.6,424 772.2,482.1 			"/>
		</g>
	</g>
	<g id="XMLID_291_">
		<g>
			<g>
				<polygon class="st1" points="526.6,434.9 526.6,512 516.9,503.2 516.9,489 516.9,474.8 516.9,466.3 516.9,443.7 				"/>
			</g>
			<g>
				<polygon class="st1" points="526.6,328.4 526.6,434.9 517.8,426.1 517.8,337.1 				"/>
			</g>
			<g>
				<polygon class="st1" points="526.6,328.4 517.8,337.1 458.3,337.1 449.5,328.4 				"/>
			</g>
			<g>
				<polygon class="st1" points="526.6,434.9 516.9,443.7 417.6,443.7 407.9,434.9 449.5,434.9 				"/>
			</g>
			<g>
				<polygon class="st2" points="526.6,434.9 449.5,434.9 458.3,426.1 473.8,426.1 485.1,426.1 497.5,426.1 517.8,426.1 				"/>
			</g>
			<g>
				<polygon class="st2" points="526.6,512 407.9,512 417.6,503.2 431.3,503.2 440.4,503.2 452.8,503.2 516.9,503.2 				"/>
			</g>
			<g>
				<polygon class="st3" points="517.8,337.1 517.8,426.1 497.5,426.1 494.5,407 488,365.8 485.9,351.8 473.8,353.7 474.5,358.4 
					473.8,358.5 458.3,358.5 458.3,337.1 				"/>
			</g>
			<g>
				<polygon class="st3" points="516.9,489 516.9,503.2 452.8,503.2 452.8,489 457.4,489 494.3,489 				"/>
			</g>
			<g>
				<rect x="494.3" y="474.8" class="st2" width="22.6" height="14.2"/>
			</g>
			<g>
				<polygon class="st1" points="516.9,466.3 516.9,474.8 494.3,474.8 457.4,474.8 434.9,474.8 434.9,466.3 				"/>
			</g>
			<g>
				<polygon class="st3" points="516.9,443.7 516.9,466.3 434.9,466.3 434.9,474.8 434.9,489 431.3,489 431.3,503.2 417.6,503.2 
					417.6,443.7 				"/>
			</g>
			<g>
				<polygon class="st2" points="494.5,407 497.5,426.1 485.1,426.1 482.4,409 				"/>
			</g>
			<g>
				<polygon class="st1" points="488,365.8 494.5,407 482.4,409 476,367.7 				"/>
			</g>
			<g>
				<rect x="457.4" y="474.8" class="st1" width="36.8" height="14.2"/>
			</g>
			<g>
				<polygon class="st2" points="485.9,351.8 488,365.8 476,367.7 474.5,358.4 473.8,353.7 				"/>
			</g>
			<g>
				<polygon class="st3" points="482.4,409 485.1,426.1 473.8,426.1 473.8,409.9 473.8,358.5 474.5,358.4 476,367.7 482.4,409 				
					"/>
			</g>
			<g>
				<rect x="458.3" y="409.9" class="st3" width="15.5" height="16.3"/>
			</g>
			<g>
				<rect x="458.3" y="358.5" class="st1" width="15.5" height="51.4"/>
			</g>
			<g>
				<polygon class="st2" points="458.3,409.9 458.3,426.1 449.5,434.9 449.5,328.4 458.3,337.1 458.3,358.5 				"/>
			</g>
			<g>
				<polygon class="st2" points="457.4,474.8 457.4,489 452.8,489 440.4,489 434.9,489 434.9,474.8 				"/>
			</g>
			<g>
				<rect x="440.4" y="489" class="st1" width="12.4" height="14.2"/>
			</g>
			<g>
				<polygon class="st3" points="440.4,489 440.4,503.2 431.3,503.2 431.3,489 434.9,489 				"/>
			</g>
			<g>
				<polygon class="st2" points="417.6,443.7 417.6,503.2 407.9,512 407.9,434.9 				"/>
			</g>
		</g>
		<g>
			<g>
				<path class="st4" d="M526.6,513H407.9c-0.6,0-1-0.4-1-1v-77.1c0-0.6,0.4-1,1-1h41.6c0.6,0,1,0.4,1,1s-0.4,1-1,1h-40.6V511h116.7
					v-76.1c0-0.6,0.4-1,1-1c0.6,0,1,0.4,1,1V512C527.6,512.5,527.1,513,526.6,513z"/>
			</g>
			<g>
				<path class="st4" d="M431.3,504.2h-13.6c-0.6,0-1-0.4-1-1v-59.5c0-0.6,0.4-1,1-1h99.2c0.6,0,1,0.4,1,1v22.7c0,0.6-0.4,1-1,1
					c-0.6,0-1-0.4-1-1v-21.7h-97.2v57.5h12.6c0.6,0,1,0.4,1,1C432.3,503.7,431.8,504.2,431.3,504.2z"/>
			</g>
			<g>
				<path class="st4" d="M417.6,444.7c-0.2,0-0.5-0.1-0.7-0.3l-9.7-8.8c-0.4-0.4-0.4-1-0.1-1.4c0.4-0.4,1-0.4,1.4-0.1l9.7,8.8
					c0.4,0.4,0.4,1,0.1,1.4C418.2,444.5,417.9,444.7,417.6,444.7z"/>
			</g>
			<g>
				<path class="st4" d="M516.9,444.7c-0.3,0-0.5-0.1-0.7-0.3c-0.4-0.4-0.3-1,0.1-1.4l9.7-8.8c0.4-0.4,1-0.3,1.4,0.1
					c0.4,0.4,0.3,1-0.1,1.4l-9.7,8.8C517.3,444.6,517.1,444.7,516.9,444.7z"/>
			</g>
			<g>
				<path class="st4" d="M526.6,513c-0.2,0-0.5-0.1-0.7-0.3l-9.7-8.8c-0.4-0.4-0.4-1-0.1-1.4c0.4-0.4,1-0.4,1.4-0.1l9.7,8.8
					c0.4,0.4,0.4,1,0.1,1.4C527.1,512.9,526.9,513,526.6,513z"/>
			</g>
			<g>
				<path class="st4" d="M407.9,513c-0.3,0-0.5-0.1-0.7-0.3c-0.4-0.4-0.3-1,0.1-1.4l9.7-8.8c0.4-0.4,1-0.3,1.4,0.1
					c0.4,0.4,0.3,1-0.1,1.4l-9.7,8.8C408.4,512.9,408.1,513,407.9,513z"/>
			</g>
			<g>
				<path class="st4" d="M526.6,435.9h-77.1c-0.6,0-1-0.4-1-1V328.4c0-0.6,0.4-1,1-1h77.1c0.6,0,1,0.4,1,1v106.5
					C527.6,435.4,527.1,435.9,526.6,435.9z M450.5,433.9h75.1V329.4h-75.1V433.9z"/>
			</g>
			<g>
				<path class="st4" d="M517.8,427.1h-20.3c-0.6,0-1-0.4-1-1c0-0.6,0.4-1,1-1h19.3v-87h-57.5v20.4c0,0.6-0.4,1-1,1
					c-0.6,0-1-0.4-1-1v-21.4c0-0.6,0.4-1,1-1h59.5c0.6,0,1,0.4,1,1v89C518.8,426.7,518.3,427.1,517.8,427.1z"/>
			</g>
			<g>
				<path class="st4" d="M485.1,427.1h-11.3c-0.6,0-1-0.4-1-1c0-0.6,0.4-1,1-1h11.3c0.6,0,1,0.4,1,1
					C486.1,426.7,485.7,427.1,485.1,427.1z"/>
			</g>
			<g>
				<path class="st4" d="M517.8,338.1c-0.3,0-0.5-0.1-0.7-0.3c-0.4-0.4-0.4-1,0-1.4l8.8-8.7c0.4-0.4,1-0.4,1.4,0
					c0.4,0.4,0.4,1,0,1.4l-8.8,8.7C518.3,338,518,338.1,517.8,338.1z"/>
			</g>
			<g>
				<path class="st4" d="M526.6,435.9c-0.3,0-0.5-0.1-0.7-0.3l-8.8-8.7c-0.4-0.4-0.4-1,0-1.4c0.4-0.4,1-0.4,1.4,0l8.8,8.7
					c0.4,0.4,0.4,1,0,1.4C527.1,435.8,526.9,435.9,526.6,435.9z"/>
			</g>
			<g>
				<path class="st4" d="M449.5,435.9c-0.3,0-0.5-0.1-0.7-0.3c-0.4-0.4-0.4-1,0-1.4l8.8-8.7c0.4-0.4,1-0.4,1.4,0
					c0.4,0.4,0.4,1,0,1.4l-8.8,8.7C450,435.8,449.7,435.9,449.5,435.9z"/>
			</g>
			<g>
				<path class="st4" d="M458.3,338.1c-0.3,0-0.5-0.1-0.7-0.3l-8.8-8.7c-0.4-0.4-0.4-1,0-1.4c0.4-0.4,1-0.4,1.4,0l8.8,8.7
					c0.4,0.4,0.4,1,0,1.4C458.8,338,458.5,338.1,458.3,338.1z"/>
			</g>
			<g>
				<path class="st4" d="M516.9,504.2h-64c-0.6,0-1-0.4-1-1c0-0.6,0.4-1,1-1h63V489c0-0.6,0.4-1,1-1c0.6,0,1,0.4,1,1v14.2
					C517.9,503.7,517.4,504.2,516.9,504.2z"/>
			</g>
			<g>
				<path class="st4" d="M440.4,504.2h-9.1c-0.6,0-1-0.4-1-1V489c0-0.6,0.4-1,1-1h3.6c0.6,0,1,0.4,1,1s-0.4,1-1,1h-2.6v12.2h8.1
					c0.6,0,1,0.4,1,1C441.4,503.7,440.9,504.2,440.4,504.2z"/>
			</g>
			<g>
				<path class="st4" d="M516.9,490h-22.6c-0.6,0-1-0.4-1-1s0.4-1,1-1h21.6v-13.2c0-0.6,0.4-1,1-1c0.6,0,1,0.4,1,1V489
					C517.9,489.5,517.4,490,516.9,490z"/>
			</g>
			<g>
				<path class="st4" d="M457.4,490h-4.6c-0.6,0-1-0.4-1-1s0.4-1,1-1h4.6c0.6,0,1,0.4,1,1S458,490,457.4,490z"/>
			</g>
			<g>
				<path class="st4" d="M440.4,490h-5.5c-0.6,0-1-0.4-1-1v-14.2c0-0.6,0.4-1,1-1c0.6,0,1,0.4,1,1V488h4.5c0.6,0,1,0.4,1,1
					S440.9,490,440.4,490z"/>
			</g>
			<g>
				<path class="st4" d="M473.8,427.1h-15.5c-0.6,0-1-0.4-1-1v-67.6c0-0.6,0.4-1,1-1h15.5c0.6,0,1,0.4,1,1v67.6
					C474.8,426.7,474.3,427.1,473.8,427.1z M459.3,425.1h13.5v-65.6h-13.5V425.1z"/>
			</g>
			<g>
				<path class="st4" d="M497.5,427.1h-12.4c-0.5,0-0.9-0.4-1-0.8l-11.3-72.4c-0.1-0.5,0.3-1.1,0.8-1.1l12.1-1.9
					c0.3,0,0.5,0,0.7,0.2c0.2,0.2,0.4,0.4,0.4,0.7l2.2,14c0.1,0.5-0.3,1.1-0.8,1.1c-0.5,0.1-1.1-0.3-1.1-0.8l-2-13l-10.1,1.6
					l11,70.6h10.3l-2.8-17.9c-0.1-0.5,0.3-1.1,0.8-1.1c0.5-0.1,1.1,0.3,1.1,0.8l3,19.1c0,0.3,0,0.6-0.2,0.8
					C498,427,497.8,427.1,497.5,427.1z"/>
			</g>
			<g>
				<path class="st4" d="M516.9,475.8h-22.6c-0.6,0-1-0.4-1-1c0-0.6,0.4-1,1-1h21.6v-6.5h-80v6.5h21.5c0.6,0,1,0.4,1,1
					c0,0.6-0.4,1-1,1h-22.5c-0.6,0-1-0.4-1-1v-8.5c0-0.6,0.4-1,1-1h82c0.6,0,1,0.4,1,1v8.5C517.9,475.3,517.4,475.8,516.9,475.8z"/>
			</g>
			<g>
				<path class="st4" d="M473.8,410.9h-15.5c-0.6,0-1-0.4-1-1s0.4-1,1-1h15.5c0.6,0,1,0.4,1,1S474.3,410.9,473.8,410.9z"/>
			</g>
			<g>
				<path class="st4" d="M494.3,490h-36.9c-0.6,0-1-0.4-1-1v-14.2c0-0.6,0.4-1,1-1h36.9c0.6,0,1,0.4,1,1V489
					C495.3,489.5,494.8,490,494.3,490z M458.4,488h34.9v-12.2h-34.9V488z"/>
			</g>
			<g>
				<path class="st4" d="M452.8,504.2h-12.5c-0.6,0-1-0.4-1-1V489c0-0.6,0.4-1,1-1h12.5c0.6,0,1,0.4,1,1v14.2
					C453.8,503.7,453.4,504.2,452.8,504.2z M441.4,502.2h10.5V490h-10.5V502.2z"/>
			</g>
			<g>
				<path class="st4" d="M482.4,410c-0.5,0-0.9-0.4-1-0.8l-6.4-41.2c-0.1-0.5,0.3-1.1,0.8-1.1l12.1-1.9c0.3,0,0.5,0,0.7,0.2
					c0.2,0.2,0.4,0.4,0.4,0.7l6.4,41.2c0.1,0.5-0.3,1.1-0.8,1.1l-12.1,1.9C482.5,410,482.5,410,482.4,410z M477.1,368.6l6.1,39.3
					l10.1-1.6l-6.1-39.3L477.1,368.6z"/>
			</g>
		</g>
	</g>
	<g>
		<g id="XMLID_253_">
			<g>
				<g>
					<polygon class="st1" points="396.8,471.3 396.8,504.9 393.2,504.9 359,504.9 355.2,504.9 355.2,471.3 360.7,471.3 391.4,471.3 
											"/>
				</g>
				<g>
					<path class="st2" d="M393.2,504.9v1.3c0,3.2-2.6,5.8-5.8,5.8h-22.7c-3.2,0-5.8-2.6-5.8-5.8v-1.3H393.2z"/>
				</g>
				<g>
					<path class="st3" d="M390.6,464L390.6,464c0.5,1.7,0.8,3.6,0.8,5.5c0,0.6,0,1.2-0.1,1.9h-30.6c-0.1-0.6-0.1-1.2-0.1-1.9
						c0-1.9,0.3-3.7,0.8-5.4c0,0,0-0.1,0-0.2c1-3.3,2.9-6.2,5.3-8.2c2.6-2.2,5.8-3.5,9.2-3.5l0,0v0c0,0,0,0,0,0
						c3.5,0,6.7,1.3,9.2,3.5C387.8,457.8,389.7,460.6,390.6,464z"/>
				</g>
			</g>
			<g>
				<g>
					<path class="st4" d="M387.4,513h-22.7c-3.7,0-6.8-3-6.8-6.8v-1.3c0-0.6,0.4-1,1-1c0.6,0,1,0.4,1,1v1.3c0,2.6,2.1,4.8,4.8,4.8
						h22.7c2.6,0,4.8-2.1,4.8-4.8v-1.3c0-0.6,0.4-1,1-1c0.6,0,1,0.4,1,1v1.3C394.2,509.9,391.1,513,387.4,513z"/>
				</g>
				<g>
					<path class="st4" d="M396.8,505.9h-41.6c-0.6,0-1-0.4-1-1v-33.6c0-0.6,0.4-1,1-1h41.6c0.6,0,1,0.4,1,1v33.6
						C397.8,505.4,397.4,505.9,396.8,505.9z M356.2,503.9h39.6v-31.6h-39.6V503.9z"/>
				</g>
				<g>
					<path class="st4" d="M360.7,472.3c-0.5,0-0.9-0.4-1-0.9c-0.1-0.7-0.1-1.3-0.1-1.9c0-1.9,0.3-3.8,0.8-5.7c0,0,0-0.1,0.1-0.2
						c1-3.4,3-6.4,5.6-8.6c2.9-2.4,6.3-3.7,9.9-3.7c3.7,0,7.1,1.3,9.9,3.7c2.7,2.3,4.6,5.3,5.7,8.8c0.2,0.5-0.1,1.1-0.7,1.2
						c-0.5,0.2-1.1-0.1-1.2-0.7c-0.9-3.1-2.7-5.8-5-7.8c-2.5-2.1-5.5-3.2-8.6-3.2c-3.2,0-6.1,1.1-8.6,3.2c-2.3,2-4.1,4.7-5,7.8
						c0,0,0,0.1,0,0.1c-0.5,1.6-0.7,3.4-0.7,5.1c0,0.5,0,1.1,0.1,1.8C361.8,471.8,361.4,472.2,360.7,472.3
						C360.8,472.3,360.8,472.3,360.7,472.3z"/>
				</g>
				<g>
					<path class="st4" d="M391.4,472.3C391.3,472.3,391.3,472.3,391.4,472.3c-0.6-0.1-1-0.5-1-1.1c0.1-0.6,0.1-1.2,0.1-1.8
						c0-1.8-0.3-3.5-0.8-5.2c-0.2-0.5,0.1-1.1,0.7-1.2c0.5-0.2,1.1,0.1,1.2,0.7c0.6,1.9,0.8,3.8,0.8,5.7c0,0.7,0,1.3-0.1,1.9
						C392.3,471.9,391.9,472.3,391.4,472.3z"/>
				</g>
				<g>
					<path class="st4" d="M378.8,467.8c-0.3,0-0.5-0.1-0.7-0.3l-5.7-5.7c-0.4-0.4-0.4-1,0-1.4c0.4-0.4,1-0.4,1.4,0l5.7,5.7
						c0.4,0.4,0.4,1,0,1.4C379.4,467.7,379.1,467.8,378.8,467.8z"/>
				</g>
				<g>
					<path class="st4" d="M373.1,467.8c-0.3,0-0.5-0.1-0.7-0.3c-0.4-0.4-0.4-1,0-1.4l5.8-5.6c0.4-0.4,1-0.4,1.4,0
						c0.4,0.4,0.4,1,0,1.4l-5.8,5.6C373.6,467.7,373.4,467.8,373.1,467.8z"/>
				</g>
				<g>
					<path class="st4" d="M393.9,467.4c-0.2,0-0.4-0.1-0.6-0.2l-3.2-2.4c-0.4-0.3-0.5-1-0.2-1.4c0.3-0.4,1-0.5,1.4-0.2l3.2,2.4
						c0.4,0.3,0.5,1,0.2,1.4C394.5,467.2,394.2,467.4,393.9,467.4z"/>
				</g>
				<g>
					<path class="st4" d="M390.6,465c-0.2,0-0.5-0.1-0.6-0.2l-3.2-2.3c-0.4-0.3-0.5-1-0.2-1.4c0.3-0.4,1-0.5,1.4-0.2l3.2,2.4
						c0,0,0.1,0.1,0.1,0.1c0.4,0.4,0.4,1,0,1.4C391.1,464.9,390.9,465,390.6,465z"/>
				</g>
				<g>
					<path class="st4" d="M388.2,468.2c-0.2,0-0.4-0.1-0.6-0.2c-0.4-0.3-0.5-1-0.2-1.4l2.4-3.2c0,0,0.1-0.1,0.1-0.1l2.3-3.1
						c0.3-0.4,1-0.5,1.4-0.2c0.4,0.3,0.5,1,0.2,1.4l-2.4,3.2c0,0-0.1,0.1-0.1,0.1l-2.3,3.1C388.8,468,388.5,468.2,388.2,468.2z"/>
				</g>
				<g>
					<path class="st4" d="M358.1,467.4c-0.3,0-0.6-0.1-0.8-0.4c-0.3-0.4-0.2-1.1,0.2-1.4l6.5-4.7c0.4-0.3,1.1-0.2,1.4,0.2
						c0.3,0.4,0.2,1.1-0.2,1.4l-6.5,4.7C358.5,467.3,358.3,467.4,358.1,467.4z"/>
				</g>
				<g>
					<path class="st4" d="M363.8,468.2c-0.3,0-0.6-0.1-0.8-0.4l-4.8-6.4c-0.3-0.4-0.2-1.1,0.2-1.4c0.4-0.3,1.1-0.2,1.4,0.2l2.4,3.2
						c0,0,0.1,0.1,0.1,0.1l2.4,3.1c0.3,0.4,0.2,1.1-0.2,1.4C364.2,468.1,364,468.2,363.8,468.2z"/>
				</g>
				<g>
					<path class="st4" d="M378.8,456c-0.3,0-0.5-0.1-0.7-0.3l-5.7-5.7c-0.4-0.4-0.4-1,0-1.4c0.4-0.4,1-0.4,1.4,0l5.7,5.7
						c0.4,0.4,0.4,1,0,1.4C379.4,456,379.1,456,378.8,456z"/>
				</g>
				<g>
					<path class="st4" d="M373.1,456c-0.3,0-0.5-0.1-0.7-0.3c-0.4-0.4-0.4-1,0-1.4l2.8-2.7c0,0,0.1-0.1,0.1-0.1l2.9-2.8
						c0.4-0.4,1-0.4,1.4,0c0.4,0.4,0.4,1,0,1.4l-2.8,2.7c0,0-0.1,0.1-0.1,0.1l-2.9,2.8C373.6,455.9,373.4,456,373.1,456z"/>
				</g>
				<g>
					<path class="st4" d="M366.8,456.7c-0.1,0-0.1,0-0.2,0l-5.4-0.9c-0.5-0.1-0.9-0.6-0.8-1.1c0.1-0.5,0.6-0.9,1.1-0.8l4.3,0.7
						l0.1-4.2c0-0.6,0.5-1,1-1c0.6,0,1,0.5,1,1l-0.1,5.4c0,0.3-0.1,0.6-0.4,0.7C367.2,456.6,367,456.7,366.8,456.7z"/>
				</g>
				<g>
					<path class="st4" d="M385.3,456.7c-0.2,0-0.5-0.1-0.6-0.2c-0.2-0.2-0.4-0.4-0.4-0.7l-0.2-5.4c0-0.6,0.4-1,1-1c0.6,0,1,0.4,1,1
						l0.2,4.2l4.2-0.7c0.5-0.1,1.1,0.3,1.1,0.8c0.1,0.5-0.3,1.1-0.8,1.1l-5.4,0.9C385.4,456.7,385.3,456.7,385.3,456.7z"/>
				</g>
			</g>
		</g>
	</g>
	<g>
		<g id="XMLID_186_">
			<g>
				<g>
					<polygon class="st3" points="499.4,311.6 512,336.4 499,328.4 474.6,313.3 476.5,313.2 					"/>
				</g>
				<g>
					<polygon class="st3" points="508.4,278 499.4,311.6 493.6,302.5 					"/>
				</g>
				<g>
					<polygon class="st1" points="493.6,302.5 499.4,311.6 476.5,313.2 478.2,305.8 					"/>
				</g>
				<g>
					<polygon class="st2" points="499,328.4 469.7,328.4 474.6,313.3 					"/>
				</g>
				<g>
					<polygon class="st3" points="473.2,287.7 478.2,305.8 476.5,313.2 474.6,313.3 469.7,328.4 466.1,295.2 465.1,286.5 					"/>
				</g>
				<g>
					<polygon class="st1" points="465.1,286.5 466.1,295.2 451.2,295.2 					"/>
				</g>
			</g>
			<g>
				<g>
					<path class="st4" d="M466.1,296.2C466.1,296.2,466.1,296.2,466.1,296.2l-14.9,0c-0.4,0-0.8-0.3-1-0.7c-0.1-0.4,0.1-0.9,0.4-1.1
						l13.9-8.7c0.5-0.3,1.1-0.2,1.4,0.3c0.3,0.5,0.2,1.1-0.3,1.4l-11,6.9l11.4,0c0.6,0,1,0.5,1,1
						C467.1,295.8,466.6,296.2,466.1,296.2z"/>
				</g>
				<g>
					<path class="st4" d="M499,329.4h-29.3c-0.6,0-1-0.4-1-1c0-0.6,0.4-1,1-1H499c0.6,0,1,0.4,1,1C500,328.9,499.6,329.4,499,329.4z
						"/>
				</g>
				<g>
					<path class="st4" d="M478.2,306.8c-0.5,0-0.9-0.3-1-0.8c-0.1-0.5,0.2-1.1,0.8-1.2l15.4-3.3c0.5-0.1,1.1,0.2,1.2,0.8
						c0.1,0.5-0.2,1.1-0.8,1.2l-15.4,3.3C478.4,306.8,478.3,306.8,478.2,306.8z"/>
				</g>
				<g>
					<path class="st4" d="M499.4,312.6c-0.3,0-0.7-0.2-0.8-0.5l-5.8-9.1c-0.2-0.3-0.2-0.7,0-1.1l14.7-24.5c0.3-0.4,0.8-0.6,1.2-0.4
						c0.5,0.2,0.7,0.7,0.6,1.2l-8.9,33.6c-0.1,0.4-0.4,0.7-0.8,0.7C499.5,312.6,499.5,312.6,499.4,312.6z M494.8,302.5l4.2,6.7
						l6.5-24.6L494.8,302.5z"/>
				</g>
				<g>
					<path class="st4" d="M512,337.4c-0.2,0-0.4,0-0.5-0.1l-37.4-23.1c-0.5-0.3-0.6-0.9-0.3-1.4c0.3-0.5,0.9-0.6,1.4-0.3l0.4,0.3
						c0.2-0.3,0.5-0.5,0.8-0.5l23-1.5c0.4,0,0.8,0.2,1,0.5l12.6,24.8c0.2,0.4,0.1,0.9-0.2,1.2C512.5,337.3,512.2,337.4,512,337.4z
						 M477.8,314.1l31.7,19.6l-10.7-21L477.8,314.1z"/>
				</g>
				<g>
					<path class="st4" d="M469.7,329.4c0,0-0.1,0-0.1,0c-0.5,0-0.8-0.4-0.9-0.9l-4.6-41.9c0-0.3,0.1-0.6,0.3-0.8
						c0.2-0.2,0.5-0.3,0.8-0.3l8.1,1.2c0.4,0.1,0.7,0.3,0.8,0.7l5,18.1c0,0.2,0,0.3,0,0.5l-1.8,7.4c-0.1,0.4-0.5,0.7-0.9,0.8
						l-1.2,0.1l-4.8,14.4C470.5,329.1,470.1,329.4,469.7,329.4z M466.3,287.7l3.9,36l3.5-10.7c0.1-0.4,0.5-0.7,0.9-0.7l1.1-0.1
						l1.5-6.4l-4.8-17.2L466.3,287.7z"/>
				</g>
			</g>
		</g>
	</g>
	<g>
		<g>
			<g id="XMLID_290_">
				<g>
					<g>
						<path class="st1" d="M561.4,387.7V512h-34.8V387.7H561.4z M554.7,419.8v-14.6h-22.1v14.6H554.7z M551.9,491.8
							c0-4.6-3.7-8.3-8.3-8.3c-4.6,0-8.3,3.7-8.3,8.3c0,4.6,3.7,8.3,8.3,8.3C548.2,500.1,551.9,496.4,551.9,491.8z"/>
					</g>
					<g>
						<rect x="532.6" y="405.2" class="st3" width="22.1" height="14.6"/>
					</g>
					<g>
						<path class="st2" d="M543.6,483.5c4.6,0,8.3,3.7,8.3,8.3c0,4.6-3.7,8.3-8.3,8.3c-4.6,0-8.3-3.7-8.3-8.3
							C535.3,487.2,539.1,483.5,543.6,483.5z"/>
					</g>
				</g>
				<g>
					<g>
						<path class="st4" d="M561.4,513h-34.8c-0.6,0-1-0.4-1-1V387.7c0-0.6,0.4-1,1-1h34.8c0.6,0,1,0.4,1,1V512
							C562.4,512.5,562,513,561.4,513z M527.6,511h32.8V388.7h-32.8V511z"/>
					</g>
					<g>
						<path class="st4" d="M554.7,420.8h-22.1c-0.6,0-1-0.4-1-1v-14.6c0-0.6,0.4-1,1-1h22.1c0.6,0,1,0.4,1,1v14.6
							C555.7,420.4,555.2,420.8,554.7,420.8z M533.6,418.8h20.1v-12.6h-20.1V418.8z"/>
					</g>
					<g>
						<path class="st4" d="M543.6,501.1c-5.1,0-9.3-4.2-9.3-9.3c0-5.1,4.2-9.3,9.3-9.3c5.1,0,9.3,4.2,9.3,9.3
							C552.9,496.9,548.7,501.1,543.6,501.1z M543.6,484.5c-4,0-7.3,3.3-7.3,7.3c0,4,3.3,7.3,7.3,7.3c4,0,7.3-3.3,7.3-7.3
							C550.9,487.8,547.6,484.5,543.6,484.5z"/>
					</g>
				</g>
			</g>
		</g>
		<g class="st7">
			<g>
				<rect x="526.6" y="504.3" class="st6" width="34.8" height="7.7"/>
			</g>
		</g>
	</g>
	<g>
		<g>
			<g id="XMLID_185_">
				<g>
					<g>
						<polygon class="st3" points="621.4,435.5 621.4,441.6 616.8,441.6 572.7,441.6 568.1,441.6 568.1,435.5 574.9,435.5 
							614.6,435.5 						"/>
					</g>
					<g>
						<path class="st3" d="M618.5,466.2l-1.5,26.1c-0.1,2.1-1.9,3.8-4,3.8h-0.4h-35.8h-0.4c-2.1,0-3.9-1.7-4-3.8l-1.5-26.1h3.6h40.4
							H618.5z"/>
					</g>
					<g>
						<polygon class="st1" points="616.8,441.6 614.9,466.2 574.6,466.2 572.7,441.6 						"/>
					</g>
					<g>
						<polygon class="st2" points="608.2,428.3 614.6,435.5 574.9,435.5 581.2,428.3 586.6,428.3 592.2,428.3 						"/>
					</g>
					<g>
						<polygon class="st1" points="612.6,496.1 611.4,512 578.1,512 576.8,496.1 						"/>
					</g>
					<g>
						<rect x="586.6" y="402.5" class="st3" width="5.5" height="25.8"/>
					</g>
				</g>
				<g>
					<g>
						<path class="st4" d="M611.4,513h-33.3c-0.5,0-1-0.4-1-0.9l-1.2-15.9c0-0.6,0.4-1,0.9-1.1c0.5,0,1,0.4,1.1,0.9L579,511h31.5
							l1.2-14.9c0-0.6,0.5-1,1.1-0.9c0.6,0,1,0.5,0.9,1.1l-1.2,15.9C612.3,512.6,611.9,513,611.4,513z"/>
					</g>
					<g>
						<path class="st4" d="M614.9,467.2C614.9,467.2,614.9,467.2,614.9,467.2c-0.6,0-1-0.5-1-1.1l1.9-24.7c0-0.6,0.5-1,1.1-0.9
							c0.6,0,1,0.5,0.9,1.1l-1.9,24.7C615.9,466.8,615.4,467.2,614.9,467.2z"/>
					</g>
					<g>
						<path class="st4" d="M574.6,467.2c-0.5,0-1-0.4-1-0.9l-1.9-24.7c0-0.6,0.4-1,0.9-1.1c0.6,0,1,0.4,1.1,0.9l1.9,24.7
							C575.6,466.7,575.2,467.2,574.6,467.2C574.6,467.2,574.6,467.2,574.6,467.2z"/>
					</g>
					<g>
						<path class="st4" d="M613,497.1h-36.6c-2.7,0-4.9-2.1-5-4.7l-1.5-26.1c0-0.3,0.1-0.5,0.3-0.7c0.2-0.2,0.5-0.3,0.7-0.3h47.6
							c0.3,0,0.5,0.1,0.7,0.3c0.2,0.2,0.3,0.5,0.3,0.7l-1.5,26.1C617.9,495,615.7,497.1,613,497.1z M572,467.2l1.4,25
							c0.1,1.6,1.4,2.8,3,2.8H613c1.6,0,2.9-1.3,3-2.8l1.4-25H572z"/>
					</g>
					<g>
						<path class="st4" d="M621.4,442.6h-53.3c-0.6,0-1-0.4-1-1v-6c0-0.6,0.4-1,1-1h6.8c0.6,0,1,0.4,1,1c0,0.6-0.4,1-1,1h-5.8v4
							h51.3v-4h-5.8c-0.6,0-1-0.4-1-1c0-0.6,0.4-1,1-1h6.8c0.6,0,1,0.4,1,1v6C622.4,442.1,622,442.6,621.4,442.6z"/>
					</g>
					<g>
						<path class="st4" d="M614.6,436.5h-39.7c-0.4,0-0.8-0.2-0.9-0.6c-0.2-0.4-0.1-0.8,0.2-1.1l6.4-7.2c0.2-0.2,0.5-0.3,0.8-0.3
							h5.4c0.6,0,1,0.4,1,1c0,0.6-0.4,1-1,1h-5l-4.6,5.2h35.3l-4.6-5.2h-15.6c-0.6,0-1-0.4-1-1c0-0.6,0.4-1,1-1h16.1
							c0.3,0,0.6,0.1,0.8,0.3l6.4,7.2c0.3,0.3,0.3,0.7,0.2,1.1C615.4,436.3,615,436.5,614.6,436.5z"/>
					</g>
					<g>
						<path class="st4" d="M592.2,429.3h-5.5c-0.6,0-1-0.4-1-1v-25.8c0-0.6,0.4-1,1-1h5.5c0.6,0,1,0.4,1,1v25.8
							C593.2,428.9,592.7,429.3,592.2,429.3z M587.6,427.3h3.5v-23.8h-3.5V427.3z"/>
					</g>
				</g>
			</g>
		</g>
		<g class="st7">
			<g>
				<polygon class="st6" points="612,504.1 577.5,504.1 578.1,512 611.4,512 				"/>
			</g>
		</g>
	</g>
	<g id="XMLID_184_">
		<g>
			<g>
				<polygon class="st3" points="1115,391.1 1120.4,399.1 1089.3,420.2 1083.9,412.3 1093.6,405.7 1105.8,397.4 				"/>
			</g>
			<g>
				<path class="st1" d="M1105.8,311.8v85.6l-12.2,8.3h-57.1v-93.9h11.3l4.7,2.7l-4.7,2.8h46.8l-4.7-2.8l4.7-2.7H1105.8z
					 M1097.3,398.7v-22.6h-22.6v22.6H1097.3z M1097.3,332.7v-8h-39v8H1097.3z M1067.2,398.7v-22.6h-22.6v22.6H1067.2z M1052.6,332.7
					v-8h-8v8H1052.6z"/>
			</g>
			<g>
				<rect x="1074.7" y="376.1" class="st2" width="22.6" height="22.6"/>
			</g>
			<g>
				<rect x="1058.3" y="324.6" class="st2" width="39" height="8"/>
			</g>
			<g>
				<polygon class="st3" points="1094.5,306.3 1089.8,309 1094.5,311.7 1094.5,311.8 1089.8,314.5 1094.5,317.3 1047.8,317.3 
					1052.5,314.5 1047.8,311.8 1047.8,311.7 1052.5,309 1047.8,306.3 				"/>
			</g>
			<g>
				<rect x="1044.6" y="376.1" class="st2" width="22.6" height="22.6"/>
			</g>
			<g>
				<rect x="1044.6" y="324.6" class="st2" width="8" height="8"/>
			</g>
			<g>
				<polygon class="st10" points="1027.3,280.2 1027.3,374.1 996.9,374.1 971.2,365.5 971.2,363.5 1019.4,363.5 1019.4,322 
					1019.4,290.9 1010.9,290.9 974.1,290.9 984.8,280.2 				"/>
			</g>
			<g>
				<path class="st2" d="M1019.4,322v41.4h-48.3h-5.3v-21.1c6.6,3.8,14.7,5.2,22.2,3.8c4.2-0.8,8.2-2.4,11.8-4.7
					c2.9-1.8,5.5-4.1,7.6-6.7c2.2-2.7,4-5.7,6.2-8.3C1015.4,324.7,1017.3,323,1019.4,322z"/>
			</g>
			<g>
				<path class="st3" d="M1019.4,290.9V322c-2.2,1-4.1,2.7-5.6,4.5c-2.3,2.6-4,5.6-6.2,8.3c-2.2,2.6-4.8,4.9-7.6,6.7
					c-6.1-2.7-10.3-7-13.3-13c-1.9-3.9-4.2-7.1-6.9-9.5c1.4-3.6,3.8-6.9,6.8-9.4c3.5-2.9,7.7-4.6,11.7-6.6c4-2,8.1-4.4,10.7-8
					c0.9-1.2,1.6-2.7,2-4.2H1019.4z"/>
			</g>
			<g>
				<path class="st2" d="M974.1,290.9h36.8c-0.4,1.5-1.1,2.9-2,4.2c-2.6,3.7-6.7,6-10.7,8c-4,2-8.2,3.8-11.7,6.6
					c-3,2.5-5.3,5.7-6.8,9.4c-3.7-3.3-8.3-5-13.8-4.7v-15.2L974.1,290.9z"/>
			</g>
			<g>
				<polygon class="st1" points="1006.8,377.5 1003.7,386.6 968.1,374.6 968.2,374.1 971.2,365.5 996.9,374.1 				"/>
			</g>
			<g>
				<path class="st1" d="M986.7,328.6c3,6,7.1,10.3,13.3,13c-3.6,2.3-7.6,3.9-11.8,4.7c-7.5,1.4-15.6,0-22.2-3.8v-28
					c5.6-0.3,10.1,1.4,13.8,4.7C982.5,321.4,984.7,324.7,986.7,328.6z"/>
			</g>
			<g>
				<polygon class="st1" points="985,280 984.8,280.2 974.1,290.9 965.9,299.1 958,307 955.3,309.7 948.9,303.4 958,294.3 
					972.1,280.2 978.6,273.6 				"/>
			</g>
			<g>
				<polygon class="st10" points="972.1,280.2 958,294.3 958,280.2 				"/>
			</g>
			<g>
				<polygon class="st10" points="965.9,342.4 965.9,363.5 971.2,363.5 971.2,365.5 968.2,374.1 958,374.1 958,307 965.9,299.1 
					965.9,314.4 				"/>
			</g>
		</g>
		<g>
			<g>
				<path class="st4" d="M1003.7,387.6c-0.1,0-0.2,0-0.3-0.1l-35.7-12c-0.5-0.2-0.8-0.7-0.6-1.3l0.2-0.5c0.2-0.5,0.7-0.8,1.3-0.6
					c0.4,0.1,0.6,0.4,0.7,0.8l33.9,11.4l2.4-7.3l-9-3c-0.5-0.2-0.8-0.7-0.6-1.3c0.2-0.5,0.7-0.8,1.3-0.6l9.9,3.3
					c0.3,0.1,0.5,0.3,0.6,0.5c0.1,0.2,0.1,0.5,0.1,0.8l-3.1,9.2C1004.6,387.4,1004.2,387.6,1003.7,387.6z"/>
			</g>
			<g>
				<path class="st4" d="M958,295.3c-0.6,0-1-0.4-1-1v-14c0-0.6,0.4-1,1-1h14c0.6,0,1,0.4,1,1c0,0.6-0.4,1-1,1h-13v13
					C959,294.8,958.6,295.3,958,295.3z"/>
			</g>
			<g>
				<path class="st4" d="M1027.3,375.1h-30.4c-0.1,0-0.2,0-0.3-0.1l-24.8-8.3l-2.6,7.7c-0.1,0.4-0.5,0.7-0.9,0.7H958
					c-0.6,0-1-0.4-1-1V307c0-0.6,0.4-1,1-1c0.6,0,1,0.4,1,1v66.1h8.5l2.7-8c0.2-0.5,0.7-0.8,1.3-0.6l25.6,8.6h29.2v-91.9h-41.5
					c-0.6,0-1-0.4-1-1c0-0.6,0.4-1,1-1h42.5c0.6,0,1,0.4,1,1v93.9C1028.3,374.7,1027.8,375.1,1027.3,375.1z"/>
			</g>
			<g>
				<path class="st4" d="M1019.4,364.5h-53.5c-0.6,0-1-0.4-1-1v-64.3c0-0.6,0.4-1,1-1c0.6,0,1,0.4,1,1v63.3h51.5v-70.6h-44.3
					c-0.6,0-1-0.4-1-1s0.4-1,1-1h45.3c0.6,0,1,0.4,1,1v72.6C1020.4,364,1020,364.5,1019.4,364.5z"/>
			</g>
			<g>
				<path class="st4" d="M1093.6,406.7h-57.1c-0.6,0-1-0.4-1-1v-93.9c0-0.6,0.4-1,1-1h11.3c0.6,0,1,0.4,1,1c0,0.6-0.4,1-1,1h-10.3
					v91.9h56.1c0.6,0,1,0.4,1,1S1094.1,406.7,1093.6,406.7z"/>
			</g>
			<g>
				<path class="st4" d="M1105.8,398.4c-0.6,0-1-0.4-1-1v-84.6h-10.3c-0.6,0-1-0.4-1-1c0-0.6,0.4-1,1-1h11.3c0.6,0,1,0.4,1,1v85.6
					C1106.8,397.9,1106.3,398.4,1105.8,398.4z"/>
			</g>
			<g>
				<path class="st4" d="M955.3,310.7c-0.3,0-0.5-0.1-0.7-0.3l-6.4-6.4c-0.4-0.4-0.4-1,0-1.4l23.1-23.1h0l6.6-6.6
					c0.4-0.4,1-0.4,1.4,0l6.4,6.4c0.4,0.4,0.4,1,0,1.4L956,310.4C955.8,310.6,955.6,310.7,955.3,310.7z M950.4,303.4l5,5l28.3-28.3
					l-5-5L950.4,303.4z"/>
			</g>
			<g>
				<path class="st4" d="M1089.3,421.2c-0.3,0-0.6-0.2-0.8-0.4l-5.4-7.9c-0.3-0.5-0.2-1.1,0.3-1.4l31.1-21.2
					c0.2-0.1,0.5-0.2,0.7-0.2c0.3,0,0.5,0.2,0.6,0.4l5.4,8c0.1,0.2,0.2,0.5,0.2,0.7c0,0.3-0.2,0.5-0.4,0.6l-31.1,21.2
					C1089.7,421.2,1089.5,421.2,1089.3,421.2z M1085.2,412.5l4.3,6.3l29.5-20l-4.3-6.3l-8.4,5.7l0,0L1085.2,412.5z M1105.8,397.4
					L1105.8,397.4L1105.8,397.4z"/>
			</g>
			<g>
				<path class="st4" d="M1094.5,318.3h-46.8c-0.5,0-0.8-0.3-1-0.7s0.1-0.9,0.5-1.1l3.2-1.9l-3.2-1.9c-0.3-0.2-0.5-0.5-0.5-0.8
					c0-0.4,0.2-0.7,0.5-0.9l3.2-1.9l-3.2-1.9c-0.4-0.2-0.6-0.7-0.5-1.1c0.1-0.4,0.5-0.7,1-0.7h46.8c0.5,0,0.8,0.3,1,0.7
					c0.1,0.4-0.1,0.9-0.5,1.1l-3.2,1.9l3.2,1.9c0.3,0.2,0.5,0.5,0.5,0.9c0,0.4-0.2,0.7-0.6,0.9l-3.2,1.9l3.2,1.9
					c0.4,0.2,0.6,0.7,0.5,1.1S1095,318.3,1094.5,318.3z M1051.5,316.3h39.3l-1.5-0.9c-0.3-0.2-0.5-0.5-0.5-0.9
					c0-0.4,0.2-0.7,0.5-0.9l3.2-1.9l-3.2-1.9c-0.3-0.2-0.5-0.5-0.5-0.9c0-0.4,0.2-0.7,0.5-0.9l1.5-0.9h-39.3l1.5,0.9
					c0.3,0.2,0.5,0.5,0.5,0.9c0,0.4-0.2,0.7-0.5,0.9l-3.2,1.9l3.2,1.9c0.3,0.2,0.5,0.5,0.5,0.9c0,0.4-0.2,0.7-0.5,0.9L1051.5,316.3z
					"/>
			</g>
			<g>
				<path class="st4" d="M982.4,347.8c-5.9,0-11.9-1.5-17-4.5c0,0-0.1,0-0.1,0c-0.1,0-0.1-0.1-0.2-0.1c-0.4-0.4-0.4-1,0-1.4
					c0.3-0.3,0.9-0.4,1.3-0.1c6.4,3.7,14.2,5,21.5,3.7c4-0.7,8-2.3,11.5-4.5c2.8-1.8,5.3-4,7.4-6.5c1-1.2,1.9-2.5,2.8-3.8
					c1.1-1.5,2.2-3.1,3.4-4.5c1.9-2.2,3.9-3.8,6-4.7c0.5-0.2,1.1,0,1.3,0.5c0.2,0.5,0,1.1-0.5,1.3c-1.8,0.9-3.6,2.3-5.3,4.2
					c-1.2,1.4-2.2,2.9-3.3,4.4c-0.9,1.3-1.9,2.7-2.9,3.9c-2.2,2.7-4.9,5.1-7.9,7c-3.7,2.4-7.9,4-12.2,4.8
					C986.3,347.6,984.4,347.8,982.4,347.8z"/>
			</g>
			<g>
				<path class="st4" d="M999.9,342.6c-0.1,0-0.3,0-0.4-0.1c-6.1-2.7-10.6-7.1-13.8-13.5c-2-4-4.2-7-6.7-9.2
					c-3.7-3.3-8-4.7-13.1-4.4c-0.6,0-1-0.4-1.1-0.9c0-0.6,0.4-1,0.9-1.1c5.6-0.3,10.5,1.3,14.6,4.9c2.7,2.4,5.1,5.6,7.2,9.8
					c3,6,7,10,12.8,12.5c0.5,0.2,0.7,0.8,0.5,1.3C1000.7,342.3,1000.3,342.6,999.9,342.6z"/>
			</g>
			<g>
				<path class="st4" d="M979.7,320c-0.1,0-0.2,0-0.4-0.1c-0.5-0.2-0.8-0.8-0.6-1.3c1.5-3.8,4-7.2,7.1-9.8c3-2.4,6.4-4.1,9.8-5.7
					c0.7-0.3,1.4-0.7,2.1-1c3.9-1.9,7.8-4.2,10.3-7.7c0.8-1.1,1.5-2.5,1.8-3.9c0.1-0.5,0.7-0.8,1.2-0.7c0.5,0.1,0.8,0.7,0.7,1.2
					c-0.4,1.6-1.2,3.2-2.1,4.5c-2.8,3.9-7.2,6.4-11,8.3c-0.7,0.3-1.4,0.7-2.1,1c-3.3,1.6-6.6,3.2-9.4,5.5c-2.8,2.3-5.1,5.4-6.5,8.9
					C980.5,319.8,980.1,320,979.7,320z"/>
			</g>
			<g>
				<path class="st4" d="M1052.6,333.7h-8c-0.6,0-1-0.4-1-1v-8c0-0.6,0.4-1,1-1h8c0.6,0,1,0.4,1,1v8
					C1053.6,333.2,1053.2,333.7,1052.6,333.7z M1045.6,331.7h6v-6h-6V331.7z"/>
			</g>
			<g>
				<path class="st4" d="M1067.2,399.7h-22.6c-0.6,0-1-0.4-1-1v-22.6c0-0.6,0.4-1,1-1h22.6c0.6,0,1,0.4,1,1v22.6
					C1068.2,399.2,1067.8,399.7,1067.2,399.7z M1045.6,397.7h20.6v-20.6h-20.6V397.7z"/>
			</g>
			<g>
				<path class="st4" d="M1097.3,399.7h-22.6c-0.6,0-1-0.4-1-1v-22.6c0-0.6,0.4-1,1-1h22.6c0.6,0,1,0.4,1,1v22.6
					C1098.3,399.2,1097.8,399.7,1097.3,399.7z M1075.7,397.7h20.6v-20.6h-20.6V397.7z"/>
			</g>
			<g>
				<path class="st4" d="M1097.3,333.7h-39c-0.6,0-1-0.4-1-1v-8c0-0.6,0.4-1,1-1h39c0.6,0,1,0.4,1,1v8
					C1098.3,333.2,1097.8,333.7,1097.3,333.7z M1059.3,331.7h37v-6h-37V331.7z"/>
			</g>
			<g>
				<path class="st4" d="M1097.3,342.6h-53.5c-0.6,0-1-0.4-1-1c0-0.6,0.4-1,1-1h53.5c0.6,0,1,0.4,1,1
					C1098.3,342.1,1097.8,342.6,1097.3,342.6z"/>
			</g>
			<g>
				<path class="st4" d="M1097.3,351.4h-53.5c-0.6,0-1-0.4-1-1c0-0.6,0.4-1,1-1h53.5c0.6,0,1,0.4,1,1
					C1098.3,351,1097.8,351.4,1097.3,351.4z"/>
			</g>
			<g>
				<path class="st4" d="M1083.9,360.3h-40.1c-0.6,0-1-0.4-1-1s0.4-1,1-1h40.1c0.6,0,1,0.4,1,1S1084.4,360.3,1083.9,360.3z"/>
			</g>
			<g>
				<path class="st4" d="M1083.9,369.1h-40.1c-0.6,0-1-0.4-1-1c0-0.6,0.4-1,1-1h40.1c0.6,0,1,0.4,1,1
					C1084.9,368.7,1084.4,369.1,1083.9,369.1z"/>
			</g>
		</g>
	</g>
	<g id="XMLID_182_">
		<g>
			<g>
				<path class="st2" d="M1189.6,629.9l50.4-8c0,0-1,2.1-3.2,5.1c-6.5,9.1-16.3,15.3-27.2,17.7c-10.8,2.4-30.1,5.9-51.9,5.9
					c0.6-0.1,22.8-1.6,30-15.4C1188.5,633.6,1189.2,631.8,1189.6,629.9z"/>
			</g>
			<g>
				<path class="st3" d="M1165.9,618.7c0,0,7.1,9.5,21.8,16.5c-7.2,13.7-29.4,15.3-30,15.4c0,0,0,0,0,0c-16.7,0-35-2-51.9-8.1
					L1165.9,618.7z"/>
			</g>
		</g>
		<g>
			<g>
				<path class="st4" d="M1157.7,651.6L1157.7,651.6c-19.6,0-37.2-2.8-52.3-8.2c-0.4-0.1-0.7-0.5-0.7-0.9c0-0.4,0.2-0.8,0.6-0.9
					l60.2-23.8c0.4-0.2,0.9,0,1.2,0.3c0.1,0.1,7.2,9.4,21.4,16.2c0.5,0.2,0.7,0.8,0.5,1.3c-0.2,0.5-0.8,0.7-1.3,0.5
					c-12.7-6.1-19.8-14-21.6-16.2l-57,22.5c14.3,4.8,30.8,7.2,49.1,7.2c0.6,0,1,0.4,1,1C1158.7,651.2,1158.3,651.6,1157.7,651.6z"/>
			</g>
			<g>
				<path class="st4" d="M1157.7,651.6c-0.5,0-1-0.4-1-1s0.4-1,0.9-1c2.3-0.2,22.5-2.2,29.2-14.8c0,0,0,0,0,0
					c0.8-1.6,1.4-3.3,1.8-5.1c0.1-0.4,0.4-0.7,0.8-0.8l50.4-8c0.4-0.1,0.7,0.1,1,0.4c0.2,0.3,0.3,0.7,0.1,1c0,0.1-1,2.2-3.3,5.3
					c-6.6,9.2-16.5,15.6-27.7,18.1C1197.7,648.4,1178.9,651.6,1157.7,651.6L1157.7,651.6z M1188.6,635.7c-3.9,7.4-12.1,11.4-19,13.6
					c16.1-0.9,30.2-3.4,39.8-5.5c10.8-2.4,20.2-8.6,26.6-17.3c0.9-1.3,1.6-2.4,2.1-3.2l-47.7,7.5
					C1190,632.5,1189.4,634.2,1188.6,635.7z"/>
			</g>
		</g>
	</g>
	<g>
		<g id="XMLID_176_">
			<g>
				<rect x="963.1" y="436.1" class="st3" width="93.1" height="76"/>
			</g>
			<g>
				<rect x="963.1" y="436.1" class="st11" width="93.1" height="76"/>
			</g>
		</g>
		<g>
			<path class="st4" d="M1056.2,504.7h-93.1c-0.6,0-1,0.4-1,1c0,0.6,0.4,1,1,1h93.1c0.6,0,1-0.4,1-1
				C1057.2,505.2,1056.8,504.7,1056.2,504.7z"/>
			<path class="st4" d="M1056.2,498.4h-93.1c-0.6,0-1,0.4-1,1c0,0.6,0.4,1,1,1h93.1c0.6,0,1-0.4,1-1
				C1057.2,498.8,1056.8,498.4,1056.2,498.4z"/>
			<path class="st4" d="M1056.2,492.1h-93.1c-0.6,0-1,0.4-1,1c0,0.6,0.4,1,1,1h93.1c0.6,0,1-0.4,1-1
				C1057.2,492.5,1056.8,492.1,1056.2,492.1z"/>
			<path class="st4" d="M1056.2,485.7h-93.1c-0.6,0-1,0.4-1,1c0,0.6,0.4,1,1,1h93.1c0.6,0,1-0.4,1-1
				C1057.2,486.2,1056.8,485.7,1056.2,485.7z"/>
			<path class="st4" d="M1056.2,479.4h-93.1c-0.6,0-1,0.4-1,1c0,0.6,0.4,1,1,1h93.1c0.6,0,1-0.4,1-1
				C1057.2,479.9,1056.8,479.4,1056.2,479.4z"/>
			<path class="st4" d="M1056.2,473.1h-93.1c-0.6,0-1,0.4-1,1c0,0.6,0.4,1,1,1h93.1c0.6,0,1-0.4,1-1
				C1057.2,473.6,1056.8,473.1,1056.2,473.1z"/>
			<path class="st4" d="M1056.2,466.8h-93.1c-0.6,0-1,0.4-1,1s0.4,1,1,1h93.1c0.6,0,1-0.4,1-1S1056.8,466.8,1056.2,466.8z"/>
			<path class="st4" d="M1056.2,460.5h-93.1c-0.6,0-1,0.4-1,1c0,0.6,0.4,1,1,1h93.1c0.6,0,1-0.4,1-1
				C1057.2,460.9,1056.8,460.5,1056.2,460.5z"/>
			<path class="st4" d="M1056.2,454.1h-93.1c-0.6,0-1,0.4-1,1c0,0.6,0.4,1,1,1h93.1c0.6,0,1-0.4,1-1
				C1057.2,454.6,1056.8,454.1,1056.2,454.1z"/>
			<path class="st4" d="M1056.2,447.8h-93.1c-0.6,0-1,0.4-1,1c0,0.6,0.4,1,1,1h93.1c0.6,0,1-0.4,1-1
				C1057.2,448.3,1056.8,447.8,1056.2,447.8z"/>
			<path class="st4" d="M963.1,443.5h93.1c0.6,0,1-0.4,1-1c0-0.6-0.4-1-1-1h-93.1c-0.6,0-1,0.4-1,1
				C962.1,443,962.5,443.5,963.1,443.5z"/>
		</g>
		<g id="XMLID_123_">
			<g>
				<g>
					<path class="st3" d="M1054.2,448.8l-19.2,15.3c-27.1-11.8-47.7-15.3-47.7-15.3H1054.2z"/>
				</g>
				<g>
					<path class="st3" d="M1030.4,505.7l-13.5,15.3c-19.1-11.8-33.7-15.3-33.7-15.3H1030.4z"/>
				</g>
				<g>
					<path class="st1" d="M1015,480.4l-15.3,3.3c-15.3,3.3-30.3,7.4-45,12.4l-1.8,0.6l10.2-16.2H1015z"/>
				</g>
			</g>
			<g>
				<g>
					<path class="st4" d="M1035.1,465.1c-0.1,0-0.3,0-0.4-0.1c-26.7-11.6-47.3-15.2-47.5-15.2c-0.5-0.1-0.9-0.6-0.8-1.1
						c0-0.5,0.5-0.9,1-0.9h66.9c0.4,0,0.8,0.3,0.9,0.7c0.1,0.4,0,0.8-0.3,1.1l-19.2,15.3C1035.5,465,1035.3,465.1,1035.1,465.1z
						 M996.5,449.8c8.5,2.1,22.4,6.2,38.4,13.1l16.5-13.1H996.5z"/>
				</g>
				<g>
					<path class="st4" d="M1016.9,522c-0.2,0-0.4,0-0.5-0.1c-18.8-11.6-33.3-15.1-33.4-15.1c-0.5-0.1-0.8-0.6-0.8-1.1
						c0.1-0.5,0.5-0.9,1-0.9h47.2c0.4,0,0.8,0.2,0.9,0.6c0.2,0.4,0.1,0.8-0.2,1.1l-13.5,15.3C1017.5,521.9,1017.2,522,1016.9,522z
						 M989.8,506.7c6,2.1,15.7,6.1,26.9,13l11.5-13H989.8z"/>
				</g>
				<g>
					<path class="st4" d="M952.9,497.7c-0.3,0-0.6-0.1-0.8-0.4c-0.3-0.3-0.3-0.8-0.1-1.2l10.2-16.2c0.2-0.3,0.5-0.5,0.8-0.5h51.9
						c0.5,0,0.9,0.4,1,0.9c0.1,0.5-0.3,1-0.8,1.1l-15.3,3.3c-15.2,3.2-30.3,7.4-44.9,12.3l-1.8,0.6
						C953.1,497.6,953,497.7,952.9,497.7z M963.6,481.4l-8.4,13.4c14.4-4.9,29.2-8.9,44.2-12.1l6-1.3H963.6z"/>
				</g>
			</g>
		</g>
	</g>
	<g class="st12">
		<g>
			<path class="st8" d="M1024.9,512l-1.2,1.4l40.7,11.6c35,9.1,45.2,7,58.5-4.7l10-8.2L1024.9,512z"/>
		</g>
	</g>
	<g id="XMLID_122_">
		<g>
			<g>
				<path class="st3" d="M1139.8,497.4c0,0-21,23-39.9,28.9c0,0,0,0-0.1,0c0,0-0.1,0-0.1,0c-0.1,0-0.4,0-0.7-0.1c0,0-0.1,0-0.1,0
					c-5.3-1.4-0.4-16.1-0.4-16.1c-47,4.2-86.7-11.8-88.9-12.6c0,0-0.1,0-0.1,0c0,0,0,0,0,0l43.1-27.4
					C1052.7,470,1095.6,497.2,1139.8,497.4z"/>
			</g>
			<g>
				<path class="st2" d="M1098.5,510.1c0,0-4.9,14.7,0.4,16.1c-6.8-0.8-49-6.4-89.3-28.8C1011.8,498.3,1051.6,514.3,1098.5,510.1z"
					/>
			</g>
		</g>
		<g>
			<g>
				<path class="st4" d="M1099.8,527.3c-0.1,0-0.2,0-0.3,0c-0.1,0-0.2,0-0.4,0l-0.2,0c-0.1,0-0.2,0-0.3,0c-0.5-0.1-0.9-0.7-0.7-1.2
					c0.1-0.5,0.7-0.9,1.2-0.7c0,0,0,0-0.1,0l0.3,0c0.2,0,0.3,0,0.4,0c15.5-4.9,32.6-21.6,37.8-26.9c-40.5-1-79.8-24.1-84.8-27.2
					l-42.2,26.8c0,0.1-0.1,0.1-0.1,0.1c-0.3,0.3-0.8,0.4-1.2,0.2c0,0,0,0,0,0c-0.3-0.1-0.5-0.3-0.6-0.6c-0.1-0.4,0-0.9,0.4-1.1
					l43.1-27.4c0.3-0.2,0.7-0.2,1.1,0c0.4,0.3,43.2,27,86.6,27.2c0.4,0,0.8,0.2,0.9,0.6c0.2,0.4,0.1,0.8-0.2,1.1
					c-0.9,0.9-21.4,23.3-40.4,29.2l0,0C1100.1,527.3,1099.9,527.3,1099.8,527.3z"/>
			</g>
			<g>
				<path class="st4" d="M1098.9,527.2c0,0-0.1,0-0.1,0c-7.9-0.9-49.6-6.6-89.6-28.9c-0.5-0.3-0.6-0.8-0.4-1.3
					c0.2-0.5,0.8-0.7,1.3-0.5c1.7,0.7,41.7,16.8,88.4,12.6c0.3,0,0.7,0.1,0.9,0.4c0.2,0.3,0.3,0.6,0.2,0.9c-0.9,2.8-3,10.9-1.4,13.9
					c0.3,0.5,0.6,0.8,1.1,0.9c0.5,0.1,0.8,0.6,0.7,1.2C1099.8,526.9,1099.4,527.2,1098.9,527.2z M1022.1,502.8
					c32.1,15.3,63,20.6,74,22.1c-1.6-3.6,0.1-10.6,1-13.6C1065.9,513.7,1037.7,507.4,1022.1,502.8z"/>
			</g>
			<g>
				<path class="st4" d="M1099.7,527.3c-0.3,0-0.7,0-0.9-0.1c-0.5-0.1-0.9-0.7-0.7-1.2c0.1-0.5,0.7-0.9,1.2-0.7c0.1,0,0.2,0,0.4,0
					c0.6,0,1,0.4,1,1C1100.7,526.9,1100.3,527.3,1099.7,527.3z"/>
			</g>
		</g>
	</g>
	<g class="st7">
		<polygon class="st6" points="1012.7,505.7 1004,505.7 1022.4,514.8 1030.4,505.7 		"/>
	</g>
	<g>
		<defs>
			<filter id="Adobe_OpacityMaskFilter" filterUnits="userSpaceOnUse" x="608.2" y="316.5" width="271.4" height="194.4">
				<feFlood  style="flood-color:white;flood-opacity:1" result="back"/>
				<feBlend  in="SourceGraphic" in2="back" mode="normal"/>
			</filter>
		</defs>
		<mask maskUnits="userSpaceOnUse" x="608.2" y="316.5" width="271.4" height="194.4" id="SVGID_1_">
			<g class="st13">
				<defs>
					<filter id="Adobe_OpacityMaskFilter_1_" filterUnits="userSpaceOnUse" x="608.2" y="316.5" width="271.4" height="194.4">
						<feFlood  style="flood-color:white;flood-opacity:1" result="back"/>
						<feBlend  in="SourceGraphic" in2="back" mode="normal"/>
					</filter>
				</defs>
				<mask maskUnits="userSpaceOnUse" x="608.2" y="316.5" width="271.4" height="194.4" id="SVGID_1_">
					<g class="st14">
					</g>
				</mask>
				<linearGradient id="SVGID_2_" gradientUnits="userSpaceOnUse" x1="822.8731" y1="306.2499" x2="724.8729" y2="505.7499">
					<stop  offset="0" style="stop-color:#FFFFFF"/>
					<stop  offset="0.9715" style="stop-color:#080808"/>
				</linearGradient>
				<polygon class="st15" points="808.2,316.5 608.2,511 836.4,511 879.6,343.6 				"/>
			</g>
		</mask>
		<linearGradient id="SVGID_3_" gradientUnits="userSpaceOnUse" x1="822.8731" y1="306.2499" x2="724.8729" y2="505.7499">
			<stop  offset="0" style="stop-color:#E7B399"/>
			<stop  offset="0.9715" style="stop-color:#E7B399"/>
		</linearGradient>
		<polygon class="st16" points="808.2,316.5 608.2,511 836.4,511 879.6,343.6 		"/>
		<g>
			<g id="XMLID_121_">
				<g>
					<g>
						<path class="st2" d="M939.3,503.7c0.2,1.5,0.2,2.8,0.2,4c0,2.3-1.9,4.2-4.3,4.2h-45.2c-2.3,0-4.2-1.9-4.3-4.2
							c0-1.2,0-2.6,0.2-4H939.3z"/>
					</g>
					<g>
						<path class="st1" d="M939.3,503.7h-53.4c0.5-3.9,1.8-8.3,5.4-11.4c7.7-6.8,16.2-15.2,16.2-31.7h10.3
							c0,16.5,8.5,24.8,16.2,31.7C937.4,495.5,938.8,499.9,939.3,503.7z"/>
					</g>
					<g>
						<path class="st10" d="M926,354.5c0.1,4-4.3,5-6.8,4.1l-0.1,0l-9.2-3.5l-101.8-38.6c3.7-8.6,10.7-5.9,10.7-5.9l104.8,40.2
							C925,351.3,926,353.2,926,354.5z"/>
					</g>
					<g>
						<path class="st2" d="M910,355.2l9.2,3.5c-0.6,1.1-1.2,2.5-1.2,3.9c0,3.2-0.2,98.1-0.2,98.1h-10.3v-98.3
							C907.4,362.3,907.6,358.1,910,355.2z"/>
					</g>
				</g>
				<g>
					<g>
						<path class="st4" d="M935.2,513h-45.2c-2.9,0-5.2-2.3-5.3-5.2c0-1.4,0-2.8,0.2-4.2c0.1-0.5,0.6-0.9,1.1-0.9
							c0.5,0.1,0.9,0.6,0.9,1.1c-0.1,1.2-0.2,2.6-0.2,3.9c0,1.8,1.5,3.2,3.3,3.2h45.2c1.8,0,3.2-1.4,3.3-3.2c0-1.3,0-2.7-0.2-3.9
							c-0.1-0.5,0.3-1,0.9-1.1c0.5-0.1,1,0.3,1.1,0.9c0.2,1.3,0.2,2.7,0.2,4.2C940.4,510.7,938.1,513,935.2,513z"/>
					</g>
					<g>
						<path class="st4" d="M939.3,504.7h-53.4c-0.3,0-0.6-0.1-0.7-0.3c-0.2-0.2-0.3-0.5-0.2-0.8c0.6-5.1,2.6-9.3,5.7-12.1
							c8.3-7.4,15.8-15.4,15.8-30.9c0-0.6,0.4-1,1-1c0.6,0,1,0.4,1,1c0,16.3-8.2,25-16.5,32.4c-2.6,2.3-4.2,5.5-4.9,9.7h51.1
							c-0.7-4.1-2.3-7.4-4.9-9.7c-8.4-7.4-16.5-16.1-16.5-32.4c0-0.6,0.4-1,1-1c0.6,0,1,0.4,1,1c0,15.5,7.5,23.5,15.8,30.9
							c3.1,2.8,5.1,7,5.7,12.1c0,0.3-0.1,0.6-0.2,0.8C939.8,504.6,939.5,504.7,939.3,504.7z"/>
					</g>
					<g>
						<path class="st4" d="M917.7,461.6h-10.3c-0.6,0-1-0.4-1-1v-98.3c0-0.2,0.3-4.6,2.8-7.8c0.3-0.4,1-0.5,1.4-0.2
							c0.4,0.3,0.5,1,0.2,1.4c-2.1,2.6-2.4,6.5-2.4,6.6l0,97.3h8.3c0-10.2,0.2-94.2,0.2-97.1c0-1.4,0.5-2.9,1.4-4.4
							c0.3-0.5,0.9-0.6,1.4-0.4c0.5,0.3,0.6,0.9,0.4,1.4c-0.7,1.2-1.1,2.4-1.1,3.4c0,3.1-0.2,97.2-0.2,98.1
							C918.7,461.2,918.3,461.6,917.7,461.6z"/>
					</g>
					<g>
						<path class="st4" d="M921.1,360c-0.8,0-1.5-0.1-2.2-0.4l-0.1-0.1l-9.2-3.5l0,0l-101.8-38.6c-0.3-0.1-0.5-0.3-0.6-0.5
							c-0.1-0.3-0.1-0.5,0-0.8c4-9.4,11.9-6.5,12-6.4L924,349.9c1.8,0.7,3,2.9,3,4.6c0,1.8-0.7,3.3-2.1,4.3
							C923.9,359.6,922.4,360,921.1,360z M910.3,354.2l9.3,3.5c1.1,0.4,2.9,0.3,4.2-0.6c0.9-0.6,1.3-1.5,1.3-2.6
							c0-1-0.9-2.5-1.7-2.8l-104.8-40.2c-0.2-0.1-5.7-2-9,4.4L910.3,354.2z"/>
					</g>
				</g>
			</g>
		</g>
	</g>
	<g>
		<g>
			<g>
				<g>
					<path class="st4" d="M701.5,687.6c-0.6,0-1-0.4-1-1v0c0-0.6,0.4-1,1-1c0.6,0,1,0.4,1,1C702.5,687.2,702,687.6,701.5,687.6z"/>
				</g>
			</g>
			<g>
				<g>
					<path class="st4" d="M784.7,687.6c-0.6,0-1-0.4-1-1v0c0-0.6,0.4-1,1-1c0.6,0,1,0.4,1,1C785.7,687.2,785.2,687.6,784.7,687.6z"
						/>
				</g>
			</g>
			<g>
				<g id="XMLID_225_">
					<g>
						<g>
							<path class="st1" d="M786,754l-9.3-35.4h0l-3.3-12.4l-4.2-16.1c4.8-0.8,10-1.9,15.4-3.4l45.6,196.2c0.5,2.1-1.1,4.1-3.3,4.1
								h-3.5c-1.5,0-2.9-1-3.2-2.5l-23.1-88.1l-3.3-12.4L786,754z"/>
						</g>
						<g>
							<path class="st2" d="M793.9,783.9l3.3,12.4c-0.6,0.2-1.2,0.3-1.9,0.3c-3.6,0-6.4-2.9-6.4-6.4c0-1.2,0.3-2.2,0.8-3.2
								C790.6,785.5,792.1,784.3,793.9,783.9z"/>
						</g>
						<g>
							<path class="st2" d="M773.5,706.1l3.3,12.4c-0.5,0.2-1.1,0.2-1.6,0.2c-2.4,0-4.5-1.3-5.6-3.2c-0.6-0.9-0.9-2-0.9-3.2
								C768.7,709.3,770.7,706.8,773.5,706.1z"/>
						</g>
						<g>
							<path class="st1" d="M716.8,690l-4.2,16.1l-3.3,12.4l-9.3,35.5l-7.8,30l-3.3,12.4l-23.1,88.1c-0.4,1.5-1.7,2.5-3.2,2.5h-3.5
								c-2.2,0-3.8-2-3.3-4.1l45.6-196.2C706.9,688.1,712.1,689.2,716.8,690z"/>
						</g>
						<g>
							<path class="st2" d="M717.5,712.3c0,1.2-0.3,2.3-0.9,3.2c-1.1,1.9-3.2,3.2-5.6,3.2c-0.6,0-1.1-0.1-1.6-0.2l-0.1,0l3.3-12.4
								l0.1,0C715.4,706.8,717.5,709.3,717.5,712.3z"/>
						</g>
						<g>
							<path class="st2" d="M696.5,787c0.5,0.9,0.8,2,0.8,3.2c0,3.5-2.9,6.4-6.4,6.4c-0.6,0-1.3-0.1-1.9-0.3l0,0l3.3-12.4l0,0
								C694.1,784.3,695.6,785.5,696.5,787z"/>
						</g>
					</g>
					<g>
						<g>
							<path class="st4" d="M789.7,788c-0.3,0-0.5-0.1-0.7-0.3l-73.1-71.5c-0.4-0.4-0.4-1,0-1.4c0.4-0.4,1-0.4,1.4,0l73.1,71.5
								c0.4,0.4,0.4,1,0,1.4C790.2,787.9,790,788,789.7,788z"/>
						</g>
						<g>
							<path class="st4" d="M696.5,788c-0.3,0-0.5-0.1-0.7-0.3c-0.4-0.4-0.4-1,0-1.4l73.1-71.5c0.4-0.4,1-0.4,1.4,0
								c0.4,0.4,0.4,1,0,1.4l-73.1,71.5C697,787.9,696.7,788,696.5,788z"/>
						</g>
						<g>
							<path class="st4" d="M700.1,755c-0.3,0-0.5-0.1-0.7-0.3c-0.4-0.4-0.3-1,0.1-1.4l43-39l26.2-24.9c0.4-0.4,1-0.4,1.4,0
								c0.4,0.4,0.4,1,0,1.4l-26.2,25l-43,39C700.6,754.9,700.4,755,700.1,755z"/>
						</g>
						<g>
							<path class="st4" d="M785.3,754.7L785.3,754.7l-42.9-39l-26.3-25c-0.4-0.4-0.4-1,0-1.4c0.4-0.4,1-0.4,1.4,0l26.3,25l42.9,39
								L786,754L785.3,754.7z"/>
						</g>
						<g>
							<path class="st4" d="M662.7,887.9h-3.5c-1.3,0-2.6-0.6-3.4-1.6c-0.8-1-1.1-2.4-0.8-3.7l45.6-196.2c0.1-0.3,0.2-0.5,0.5-0.6
								c0.2-0.1,0.5-0.2,0.8-0.1c5,1.3,10.1,2.4,15.3,3.4c0.3,0,0.5,0.2,0.7,0.4c0.2,0.2,0.2,0.5,0.1,0.8l-50.9,194.4
								C666.4,886.6,664.6,887.9,662.7,887.9z M702.2,687.9l-45.4,195.2c-0.2,0.7,0,1.4,0.4,2c0.4,0.6,1.1,0.9,1.8,0.9h3.5
								c1.1,0,2-0.7,2.3-1.8l50.6-193.4C711.1,690,706.6,689,702.2,687.9z"/>
						</g>
						<g>
							<path class="st4" d="M711.1,719.7c-0.7,0-1.3-0.1-1.9-0.3c-0.5-0.2-0.8-0.7-0.7-1.2c0.2-0.5,0.7-0.8,1.2-0.7
								c0.4,0.1,0.9,0.2,1.4,0.2c1.9,0,3.7-1,4.7-2.7c0.5-0.8,0.7-1.7,0.7-2.7c0-2.5-1.7-4.6-4-5.2c-0.5-0.1-0.9-0.7-0.7-1.2
								c0.1-0.5,0.7-0.9,1.2-0.7c3.3,0.8,5.5,3.8,5.5,7.2c0,1.3-0.3,2.6-1,3.7C716.2,718.3,713.7,719.7,711.1,719.7z"/>
						</g>
						<g>
							<path class="st4" d="M690.9,797.6c-0.7,0-1.5-0.1-2.1-0.3c-0.5-0.2-0.8-0.7-0.7-1.2c0.2-0.5,0.7-0.8,1.2-0.7
								c0.5,0.2,1,0.2,1.6,0.2c3,0,5.4-2.4,5.4-5.4c0-0.9-0.2-1.9-0.7-2.7c-0.8-1.3-2-2.3-3.5-2.6c-0.5-0.1-0.9-0.6-0.8-1.2
								c0.1-0.5,0.7-0.9,1.2-0.8c2,0.4,3.8,1.8,4.9,3.6c0.6,1.1,1,2.4,1,3.7C698.3,794.3,695,797.6,690.9,797.6z"/>
						</g>
						<g>
							<path class="st4" d="M827,887.9h-3.5c-2,0-3.7-1.3-4.2-3.2l-43.5-165.8c0,0,0-0.1,0-0.1l-7.5-28.5c-0.1-0.3,0-0.6,0.1-0.8
								c0.2-0.2,0.4-0.4,0.7-0.4c5.2-0.9,10.4-2.1,15.3-3.4c0.3-0.1,0.5,0,0.8,0.1c0.2,0.1,0.4,0.4,0.5,0.6l45.6,196.2
								c0.3,1.3,0,2.7-0.8,3.7C829.6,887.3,828.3,887.9,827,887.9z M777.7,718.1c0,0,0,0.1,0,0.1l43.5,165.9c0.3,1,1.2,1.8,2.3,1.8
								h3.5c0.7,0,1.4-0.3,1.8-0.9c0.5-0.6,0.6-1.3,0.5-2l-45.4-195.2c-4.4,1.1-8.9,2.1-13.4,3L777.7,718.1z"/>
						</g>
						<g>
							<path class="st4" d="M775.1,719.7c-2.6,0-5.1-1.4-6.4-3.7c-0.6-1.1-1-2.4-1-3.7c0-3.4,2.3-6.3,5.5-7.2
								c0.5-0.1,1.1,0.2,1.2,0.7c0.1,0.5-0.2,1.1-0.7,1.2c-2.4,0.6-4,2.8-4,5.2c0,1,0.3,1.9,0.7,2.7c1,1.7,2.8,2.7,4.7,2.7
								c0.5,0,0.9-0.1,1.3-0.2c0.6-0.2,1.3,0.3,1.3,1c0,0.5-0.3,0.9-0.8,1C776.4,719.7,775.7,719.7,775.1,719.7z"/>
						</g>
						<g>
							<path class="st4" d="M795.3,797.6c-4.1,0-7.4-3.3-7.4-7.4c0-1.3,0.3-2.6,1-3.7c1-1.8,2.8-3.1,4.8-3.6
								c0.5-0.1,1.1,0.2,1.2,0.8c0.1,0.5-0.2,1.1-0.8,1.2c-1.5,0.3-2.8,1.3-3.5,2.6c-0.5,0.8-0.7,1.7-0.7,2.7c0,3,2.4,5.4,5.4,5.4
								c0.5,0,1.1-0.1,1.6-0.2c0.5-0.2,1.1,0.1,1.2,0.7c0.2,0.5-0.1,1.1-0.7,1.2C796.8,797.5,796,797.6,795.3,797.6z"/>
						</g>
					</g>
				</g>
			</g>
			<g id="XMLID_224_">
				<g>
					<g>
						<path class="st3" d="M799.5,524.1c10.8,11.9,45.5,132.1,43.6,138.8c-1.3,4.4-6.4-2.2-11,2.2c-15.2,10.9-32.3,17.5-47.4,21.5v0
							c-5.5,1.5-10.7,2.6-15.4,3.4c-15.4,2.7-26.2,2.7-26.2,2.7s-10.8,0-26.3-2.8c-4.7-0.8-9.9-1.9-15.3-3.4v0
							c-15.1-4-32.1-10.6-47.4-21.5c-4.6-4.3-9.8,2.2-11-2.2c-2-6.8,32.7-126.9,43.6-138.8c10.9-11.9,20.6-12.5,56.4-12.5
							C778.9,511.6,788.6,512.1,799.5,524.1z"/>
					</g>
				</g>
				<g>
					<g>
						<path class="st4" d="M743.1,693.8c-0.1,0-11.1,0-26.4-2.8c-5.2-0.9-10.4-2.1-15.4-3.4c0,0-0.1,0-0.1,0
							c-18.3-4.9-34.3-12.1-47.6-21.6c0,0-0.1-0.1-0.1-0.1c-2-1.9-4.1-1.3-6.1-0.8c-1.8,0.5-4.3,1.2-5.2-1.9
							c-2.2-7.5,33-127.9,43.8-139.8c11.2-12.3,21.1-12.8,57.2-12.8c36.1,0,46,0.5,57.1,12.8c10.8,11.9,46,132.3,43.8,139.8
							c-0.9,3-3.4,2.4-5.2,1.9c-2-0.5-4.1-1.1-6.1,0.8c0,0-0.1,0.1-0.1,0.1c-13.2,9.5-29.2,16.8-47.6,21.6c0,0-0.1,0-0.1,0
							c-5,1.3-10.2,2.5-15.5,3.4C754.1,693.7,743.2,693.8,743.1,693.8z M701.9,685.7c4.9,1.3,10,2.4,15.1,3.3
							c15.2,2.7,26,2.7,26.1,2.7c0.1,0,10.9,0,26-2.7c5.2-0.9,10.3-2,15.2-3.3c0,0,0.1,0,0.1,0c18.1-4.8,33.9-12,47-21.3
							c2.8-2.6,5.8-1.8,7.9-1.2c2.3,0.6,2.5,0.5,2.8-0.5l0,0c0.8-2.6-5.9-30.2-17-66.9c-11.7-38.8-21.8-66-26.4-71
							c-10.6-11.7-20.3-12.2-55.7-12.2c-35.4,0-45.1,0.5-55.7,12.2c-4.5,5-14.7,32.2-26.4,71c-11.1,36.8-17.7,64.3-17,66.9
							c0.3,1,0.5,1.1,2.8,0.5c2.2-0.6,5.1-1.4,7.9,1.2c13,9.4,28.9,16.5,47,21.3C701.8,685.7,701.8,685.7,701.9,685.7z"/>
					</g>
				</g>
			</g>
			<g class="st5">
				<g>
					<path class="st6" d="M835.8,663.5c0,0-19.4-73.5-30.2-104.2c-8.9-25.3-19.4-37-34-37c-15.4,0-17.5,0-27.4,0c-9.9,0-12,0-27.4,0
						c-14.5,0-25.1,11.8-34,37C672.1,590.1,652.5,664,652.5,664s36.4,28.8,90.5,28.8c45.8,0,77.5-20,89.7-27.9
						C834.5,663.7,835.8,663.5,835.8,663.5z"/>
				</g>
			</g>
		</g>
		<path class="st17" d="M784.7,686.6l-15.3,3.4l3.5,13.7c10.2-0.8,15.2-2.5,15.2-2.5L784.7,686.6z"/>
		<g class="st7">
			<g>
				<path class="st6" d="M698.1,701.3c0,0,6.4,2.2,15.1,2.5l3.7-13.7l-15.3-3.4L698.1,701.3z"/>
			</g>
		</g>
	</g>
</g>
</svg>
