<?xml version="1.0" encoding="utf-8"?>
<!-- Generator: Adobe Illustrator 22.1.0, SVG Export Plug-In . SVG Version: 6.00 Build 0)  -->
<svg version="1.1" id="Layer_1" xmlns="http://www.w3.org/2000/svg" xmlns:xlink="http://www.w3.org/1999/xlink" x="0px" y="0px"
	 viewBox="0 0 1080 1080" style="enable-background:new 0 0 1080 1080;" xml:space="preserve">
<style type="text/css">
	.st0{fill:#002347;}
	.st1{fill:#FF5003;}
	.st2{font-family:'MontserratAlt1-SemiBold';}
	.st3{font-size:154.4844px;}
</style>
<path class="st0" d="M470.7,502h-67.8h-66.1c5-14.9,13.7-26.7,26.1-35.3c11.4-7.9,24.8-12,39.9-12.7v-73.7
	c-27.7,0.7-52.9,7.4-75.5,20.3c-23.9,13.6-42.8,32.6-56.6,56.9c-13.8,24.3-20.7,52.2-20.7,83.6c0,30.6,6.8,58,20.4,82.1
	c13.6,24.1,32.6,42.9,57.2,56.3c24.5,13.4,52.6,20.1,84.4,20.1c29.9,0,56.8-6,80.7-18.1c23.9-12.1,44.5-29.4,61.7-52l-58.6-48.8
	c-22.2,28-49.6,41.9-82.1,41.9c-19.9,0-36.9-5.2-50.8-15.5c-14-10.3-23.1-24.5-27.3-42.5h218.8c0.8-6.1,1.1-15.1,1.1-27
	c0-12.6-0.9-24.5-2.7-35.6H470.7z"/>
<path class="st0" d="M756.8,502.1c-2.3,11-7.2,20.4-14.7,28.1c-10.8,11-24.8,16.5-41.9,16.5c-16.8,0-30.5-5.5-41.2-16.5
	c-7.4-7.6-12.2-17-14.5-28.1h-69.3v197.5h72.4v-45.3c0-21.4-0.5-42.1-1.4-62.3c7.9,6.7,17.5,11.8,28.6,15.3
	c11.1,3.5,22.8,5.3,35,5.3c21.7,0,41.7-5.3,60.2-16c18.5-10.7,33.2-25.6,44.2-44.9c8.6-15,13.8-31.6,15.7-49.6H756.8z"/>
<text transform="matrix(1 0 0 1 402.8818 487.5615)" class="st1 st2 st3">EXPO</text>
<circle class="st0" cx="791" cy="665.2" r="34.5"/>
</svg>
