<?xml version="1.0" encoding="utf-8"?>
<!-- Generator: Adobe Illustrator 22.1.0, SVG Export Plug-In . SVG Version: 6.00 Build 0)  -->
<svg version="1.1" id="Layer_1" xmlns="http://www.w3.org/2000/svg" xmlns:xlink="http://www.w3.org/1999/xlink" x="0px" y="0px"
	 viewBox="0 0 500 500" style="enable-background:new 0 0 500 500;" xml:space="preserve">
<style type="text/css">
	.st0{fill:#EBEBEB;}
	.st1{fill:#A6A6A6;}
	.st2{fill:#FFFFFF;}
	.st3{fill:#DBDBDB;}
	.st4{fill:#C7C7C7;}
	.st5{fill:#263238;}
	.st6{fill:#011E5C;}
	.st7{fill:#37474F;}
	.st8{fill:#455A64;}
	.st9{font-family:'Oswald-Regular';}
	.st10{font-size:20.3166px;}
	.st11{fill:#D3766A;}
	.st12{opacity:0.2;enable-background:new    ;}
	.st13{opacity:0.1;enable-background:new    ;}
</style>
<g id="freepik--background-complete--inject-34">
	<path class="st0" d="M60.7,75.6l13.1-0.3l6.7-0.1c2.2,0,4.5,0,6.7,0h0.4v0.4l0.1,11.2v0.5h-0.5L74,87.2c-4.4,0-8.8-0.1-13.2-0.2
		h-0.3v-0.3c0-1.9,0.1-3.8,0.1-5.7L60.7,75.6z M60.7,75.6l0.1,5.7c0,1.9,0.1,3.7,0.1,5.5l-0.3-0.3c4.4,0,8.8-0.2,13.2-0.2l13.2-0.1
		l-0.5,0.5l0.1-11.2l0.4,0.4c-2.2,0-4.4,0-6.5,0l-6.6-0.1L60.7,75.6z"/>
	<path class="st0" d="M75.5,61.5l13.1-0.3l6.7-0.1c2.2,0,4.5,0,6.7,0h0.4v0.5l0.1,11.2v0.5H102l-13.3-0.1c-4.4,0-8.8-0.1-13.2-0.2
		h-0.3v-0.3c0-1.9,0.1-3.8,0.1-5.7L75.5,61.5z M75.5,61.5l0.1,5.7c0,1.9,0.1,3.7,0.1,5.5l-0.3-0.3c4.4,0,8.8-0.2,13.2-0.2l13.3-0.1
		l-0.5,0.5V61.5l0.4,0.5c-2.2,0-4.4,0-6.6-0.1l-6.6-0.1L75.5,61.5z"/>
	<path class="st0" d="M101.2,205.2l13.1-0.2l6.7-0.1c2.2,0,4.5,0,6.7-0.1h0.4v0.4l0.1,11.2v0.5h-0.5l-13.2-0.1
		c-4.4,0-8.8-0.1-13.2-0.2h-0.3v-0.3c0-1.9,0.1-3.8,0.1-5.7L101.2,205.2z M101.2,205.2l0.1,5.6c0,1.9,0.1,3.7,0.1,5.5l-0.3-0.3
		c4.4-0.1,8.8-0.1,13.2-0.2l13.2-0.1l-0.5,0.5v-11.2l0.4,0.4c-2.2,0-4.4,0-6.6-0.1l-6.6-0.1L101.2,205.2z"/>
	<path class="st0" d="M116,191.1l13.1-0.3l6.7-0.1c2.2-0.1,4.5,0,6.7-0.1h0.4v0.4l0.1,11.2v0.5h-0.5l-13.2-0.1
		c-4.4,0-8.8-0.1-13.2-0.2h-0.3v-0.3c0-1.9,0.1-3.8,0.1-5.7L116,191.1z M116,191.1l0.1,5.6c0,1.9,0.1,3.7,0.1,5.5L116,202
		c4.4,0,8.8-0.1,13.2-0.2l13.2-0.1l-0.5,0.5v-11.2l0.4,0.4c-2.2,0-4.4,0-6.6,0l-6.6-0.1L116,191.1z"/>
	<path class="st0" d="M46,61.5l13.1-0.3l6.7-0.1c2.2,0,4.5,0,6.7,0h0.4v0.5L73,72.7v0.5h-0.5l-13.3-0.1c-4.4,0-8.8-0.1-13.2-0.2
		h-0.3v-0.3c0-1.9,0.1-3.8,0.1-5.7L46,61.5z M46,61.5l0.2,5.7c0,1.9,0.1,3.7,0.1,5.5L46,72.4c4.4,0,8.8-0.2,13.2-0.2l13.2-0.1
		L72,72.7l0-11.2l0.4,0.5c-2.2,0-4.3,0-6.5-0.1l-6.6-0.1L46,61.5z"/>
	<path class="st0" d="M439.3,304.5l-13.1,0.3l-6.7,0.1c-2.2,0-4.5,0-6.7,0h-0.4v-0.4l-0.1-11.2v-0.5h0.5l13.2,0.1
		c4.4,0,8.8,0.1,13.2,0.2h0.3v0.3c0,1.9-0.1,3.8-0.1,5.6L439.3,304.5z M439.3,304.5l-0.1-5.7c0-1.9-0.1-3.7-0.1-5.5l0.3,0.3
		c-4.4,0-8.8,0.2-13.2,0.2l-13.2,0.1l0.5-0.5l0,11.2l-0.5-0.5c2.2,0,4.4,0,6.5,0l6.6,0.1L439.3,304.5z"/>
	<path class="st0" d="M454,318.6l-13.1,0.3l-6.7,0.1c-2.2,0-4.5,0-6.7,0h-0.5v-0.4l0-11.2v-0.5h0.5l13.2,0.1c4.4,0,8.8,0.1,13.2,0.2
		h0.3v0.3c0,1.9-0.1,3.8-0.1,5.6L454,318.6z M454,318.6l-0.1-5.6c0-1.9-0.1-3.7-0.1-5.5l0.3,0.3c-4.4,0-8.8,0.2-13.2,0.2l-13.2,0.1
		l0.5-0.5l-0.1,11.1l-0.4-0.5c2.2,0,4.4,0,6.5,0l6.6,0.1L454,318.6z"/>
	<path class="st0" d="M87.4,318.6l-13.1,0.3l-6.7,0.1c-2.2,0-4.5,0-6.7,0h-0.4v-0.4l-0.1-11.2v-0.5H61l13.2,0.1
		c4.4,0,8.8,0.1,13.2,0.2h0.3v0.3c0,1.9-0.1,3.8-0.1,5.6L87.4,318.6z M87.4,318.6l-0.1-5.6c0-1.9-0.1-3.7-0.1-5.5l0.3,0.3
		c-4.4,0-8.8,0.2-13.2,0.2l-13.2,0l0.5-0.5l0,11.2l-0.5-0.5c2.2,0,4.4,0,6.6,0l6.6,0.1L87.4,318.6z"/>
	<path class="st0" d="M412.7,61.5l13.1-0.3l6.7-0.1c2.2,0,4.5,0,6.7,0h0.5v0.5l0,11.2v0.5h-0.5l-13.2-0.1c-4.4,0-8.8-0.1-13.2-0.2
		h-0.3v-0.3c0-1.9,0.1-3.8,0.1-5.7L412.7,61.5z M412.7,61.5l0.1,5.7c0,1.9,0.1,3.7,0.1,5.5l-0.3-0.3c4.4,0,8.8-0.2,13.2-0.2
		l13.2-0.1l-0.5,0.5l0.1-11.2l0.4,0.5c-2.2,0-4.4,0-6.5-0.1l-6.6-0.1L412.7,61.5z"/>
	<path class="st0" d="M206.5,187.6H79.9V101h126.6V187.6z M80.9,186.6h124.6V102H80.9V186.6z"/>
	<path class="st1" d="M89.8,106.6c0,1.4-1.2,2.5-2.5,2.5c-1.4,0-2.5-1.2-2.5-2.5c0-1.4,1.1-2.5,2.5-2.5
		C88.6,104,89.8,105.1,89.8,106.6C89.8,106.5,89.8,106.5,89.8,106.6z"/>
	<path class="st0" d="M100.1,106.6c0,1.4-1.2,2.5-2.5,2.5c-1.4,0-2.5-1.2-2.5-2.5c0-1.4,1.1-2.5,2.5-2.5
		C98.9,104,100.1,105.1,100.1,106.6C100.1,106.5,100.1,106.5,100.1,106.6z"/>
	<path class="st1" d="M110.3,106.6c0,1.4-1.1,2.5-2.5,2.5s-2.5-1.1-2.5-2.5c0-1.4,1.1-2.5,2.5-2.5h0
		C109.2,104,110.3,105.2,110.3,106.6z"/>
	<rect x="80.4" y="111" class="st0" width="125.6" height="1"/>
	<rect x="404.5" y="91.4" class="st2" width="42.3" height="42.3"/>
	<path class="st3" d="M402.3,89.2v46.7H449V89.2H402.3z M446.8,133.7h-42.3V91.4h42.3L446.8,133.7z"/>
	<rect x="410.8" y="110.9" class="st0" width="33" height="14.6"/>
	<rect x="417.2" y="104.1" class="st4" width="16.9" height="16.9"/>
	<rect x="449" y="89.2" class="st4" width="1.8" height="46.7"/>
	<rect x="404.5" y="151.4" class="st2" width="42.3" height="42.3"/>
	<rect x="411.8" y="158.2" class="st4" width="11" height="31.9"/>
	<path class="st3" d="M402.3,149.2v46.7H449v-46.7H402.3z M446.8,193.7h-42.3v-42.3h42.3L446.8,193.7z"/>
	<rect x="417.2" y="164.1" class="st0" width="16.9" height="16.9"/>
	<rect x="449" y="149.2" class="st4" width="1.8" height="46.7"/>
	<rect x="404.5" y="211.4" class="st2" width="42.3" height="42.3"/>
	<rect x="409.2" y="217.2" class="st0" width="23.2" height="13.9"/>
	<path class="st3" d="M402.3,209.3v46.7H449v-46.7H402.3z M446.8,253.7h-42.3v-42.3h42.3L446.8,253.7z"/>
	<rect x="417.2" y="224.1" class="st4" width="16.9" height="16.9"/>
	<rect x="449" y="209.3" class="st4" width="1.8" height="46.7"/>
	<rect x="47.3" y="253.5" class="st0" width="94.2" height="140.4"/>
	<rect x="42.7" y="248.7" class="st3" width="103.3" height="4.8"/>
	<rect x="146" y="248.7" class="st0" width="32.5" height="4.8"/>
	<rect x="141.5" y="253.5" class="st3" width="31.9" height="140.4"/>
	<path class="st4" d="M131.3,313.9H57.4v-41.8h73.9V313.9z M57.6,313.6h73.4v-41.3H57.6V313.6z"/>
	<rect x="84" y="284.3" class="st4" width="14.4" height="8.3"/>
	<path class="st4" d="M102.8,292.1H88.2v-7.3h14.6V292.1z M88.4,291.8h14.1V285H88.4V291.8z"/>
	<path class="st4" d="M131.3,366.4H57.4v-41.8h73.9V366.4z M57.6,366.1h73.4v-41.3H57.6V366.1z"/>
	<rect x="84" y="336.8" class="st4" width="14.4" height="8.3"/>
	<path class="st4" d="M102.8,344.6H88.2v-7.3h14.6V344.6z M88.4,344.3h14.1v-6.8H88.4V344.3z"/>
</g>
<g id="freepik--Shadow--inject-34">
	<ellipse class="st0" cx="250" cy="420.8" rx="194.9" ry="25.3"/>
</g>
<g id="freepik--Plant--inject-34">
	<path class="st5" d="M113.3,304c-3.1-3-7.1-6.7-11.8-5.4c-4.4,1.2-6.1,6.1-6.9,10.1c-1,5.2-1.8,10.5-2.7,15.7s-1.6,10.6-2.4,15.9
		c-0.4,3-0.9,6-1.3,9c-0.2,1.5-0.4,3-0.6,4.5s-0.4,2.9-0.5,4.4c0,0.5,0.7,0.5,0.8,0.1c0.6-2.5,0.8-5.1,1.2-7.6l1.1-7.7
		c0.8-5.1,1.5-10.1,2.3-15.2c0.8-5.1,1.6-10.1,2.4-15.2c0.7-4.3,1-9.6,4.8-12.5c2.1-1.4,4.8-1.7,7.1-0.7c2.4,1.1,4.6,2.6,6.5,4.5
		C113.3,304.2,113.4,304.1,113.3,304z"/>
	<path class="st6" d="M109.1,300.9c0,0-6.3-2.3-9.4,2.3s0.6,16.3,29.4,23c-0.8-9-3.2-17.8-6.9-26C116,286.8,105,291.9,109.1,300.9z"
		/>
	<path class="st5" d="M127.4,324.3c-0.4-0.8-0.9-1.6-1.4-2.3c-0.5-0.7-1-1.5-1.5-2.2c-0.4-0.6-0.7-1.1-1.1-1.6c0-0.1,0-0.3,0.1-0.4
		s0.1-0.5,0.1-0.8c0.1-0.5,0.2-1.1,0.2-1.6s0.2-1.1,0.3-1.6c0.1-0.6,0.2-1.1,0.4-1.7c0-0.1-0.1-0.1-0.1,0c-0.1,0.3-0.1,0.7-0.3,1
		l-0.2,0.7c-0.1,0.5-0.3,1.1-0.4,1.6s-0.2,1-0.3,1.5c0,0.2-0.1,0.5-0.1,0.7c-0.5-0.7-1-1.5-1.6-2.2c-1.5-2-3.1-4-4.8-5.8
		c0,0,0,0,0,0c0-3,0.2-6,0.8-9c0-0.1-0.1-0.1-0.1,0c-0.8,2.8-1.1,5.7-1.1,8.6c-0.6-0.7-1.2-1.3-1.8-2c-1.4-1.5-2.8-3-4.3-4.4
		c0,0-0.1,0-0.1,0s0,0.1,0,0.1c2.4,2.6,4.7,5.3,7,8.1c-1.8,0-3.5,0-5.3,0.2c-2,0.1-3.9,0.4-5.8,0.7c-0.1,0-0.1,0.1,0,0.1
		c1.9-0.3,3.9-0.5,5.8-0.5c1.9-0.1,3.7,0,5.6,0c1.2,1.5,2.4,3,3.6,4.5h-1.6c-0.9,0-1.8,0.1-2.6,0.1c-1.8,0.1-3.6,0.4-5.3,0.8
		c0,0-0.1,0.1,0,0.1c0,0,0,0,0,0c1.8-0.2,3.5-0.4,5.3-0.4c0.8,0,1.7,0,2.5,0h1.3c0.2,0,0.5,0,0.7-0.1c0.8,1,1.6,2,2.3,3
		c0.6,0.8,1.2,1.6,1.8,2.4c0.6,0.8,1.2,1.8,1.8,2.5c0.1,0,0.1,0,0.2,0S127.4,324.3,127.4,324.3L127.4,324.3z"/>
	<path class="st5" d="M111.8,307.5c-1-0.1-2.1-0.2-3.1-0.1c-1,0-2,0-3.1,0.1c0,0-0.1,0-0.1,0c0,0,0,0.1,0,0.1c0,0,0,0,0.1,0
		c1-0.1,2.1-0.1,3.1-0.1S110.8,307.5,111.8,307.5L111.8,307.5z"/>
	<path class="st5" d="M120.9,309.8c0.1-1,0.2-2,0.4-2.9c0-0.1-0.1-0.1-0.1,0c-0.2,1-0.3,1.9-0.5,2.9c-0.1,0.5-0.1,1-0.2,1.5
		c-0.1,0.5-0.1,0.9-0.1,1.4c0,0,0.1,0.1,0.1,0.1c0,0,0,0,0.1-0.1c0.1-0.5,0.1-0.9,0.2-1.4L120.9,309.8z"/>
	<path class="st5" d="M119,298.9c-0.3,1-0.5,1.9-0.7,2.9c-0.1,0.5-0.2,1-0.2,1.5c-0.1,0.5-0.1,1-0.1,1.5c0,0,0.1,0,0.1,0
		c0.1-0.5,0.2-0.9,0.2-1.4c0.1-0.5,0.1-1,0.2-1.4c0.2-1,0.3-2,0.6-3C119.1,298.9,119,298.8,119,298.9z"/>
	<path class="st5" d="M81.5,357.3c-0.2-1.8-0.3-3.6-0.5-5.4c-0.4-3.6-0.8-7.2-1.3-10.7c-0.5-3.6-0.9-7.1-1.5-10.7
		c-0.2-1.6-0.6-3.3-1.1-4.8c-0.4-1.4-1.4-2.5-2.7-3c-3.4-1.2-5.7,2.3-7,4.8c0,0,0,0.1,0,0.1s0.1,0,0.1,0c0.8-1.2,3.1-4.5,5.7-4.3
		c1.7,0.1,3.1,1.3,3.9,5.6c2.1,10.7,3.9,32.5,4.1,33.9c0.1,0.8,0.7,0.7,0.7-0.1C81.9,360.8,81.7,359,81.5,357.3z"/>
	<path class="st6" d="M68.3,326c0,0,3-10.5-3.6-5.2c-10.9,8.7-11.3,27.6-11.3,27.6s19.4-11.2,21.8-18.6
		C78.8,318.7,68.3,326,68.3,326z"/>
	<path class="st5" d="M72,331.1c-1.5,0.3-3,0.5-4.6,0.7l-2.2,0.3c-0.5,0.1-1,0.1-1.5,0.2c1.5-2,2.9-4,4.3-6c0-0.1-0.1-0.2-0.1-0.1
		c-1.2,1.2-2.3,2.4-3.3,3.7c-0.3-0.8-0.6-1.6-0.9-2.4s-0.7-1.9-0.9-2.8c0,0,0-0.1-0.1-0.1c0,0-0.1,0-0.1,0.1c0,0,0,0,0,0
		c0.3,1,0.5,1.9,0.7,2.9s0.5,1.8,0.9,2.7c-0.7,0.9-1.4,1.9-2,2.8c-0.3-0.9-0.8-1.9-1-2.8c0-0.1-0.2,0-0.1,0c0.3,1.1,0.5,2.2,0.9,3.2
		c-0.5,0.6-0.9,1.3-1.3,2c-0.8,1.2-1.5,2.4-2.2,3.7c-0.1,0-0.2,0.2-0.2,0.3c-1.2,2.1-2.4,4.3-3.5,6.4c0,0.1,0.1,0.1,0.1,0.1
		c1.2-2.1,2.4-4.2,3.8-6.3l0,0c0.2-0.1,0.4-0.1,0.6-0.1l0.7-0.1c0.5-0.1,1-0.2,1.5-0.4c1-0.2,2-0.5,2.9-0.6c0.1,0,0-0.1,0-0.1
		c-1.2,0.2-2.3,0.4-3.5,0.5c-0.6,0.1-1.1,0.1-1.7,0.2H59c0.7-1.1,1.4-2.1,2.1-3.1s1.4-2,2.2-3c0.7-0.1,1.3-0.3,2-0.4l2.3-0.4
		C69,331.8,70.5,331.5,72,331.1C72.1,331.3,72,331.1,72,331.1z"/>
	<path class="st5" d="M60.3,332.2l-0.3-0.8c-0.2-0.6-0.3-1.2-0.4-1.8c0-0.1-0.1,0-0.1,0c0.1,0.6,0.3,1.2,0.4,1.8
		c0.1,0.6,0.3,1.2,0.5,1.7c0,0.1,0.1,0.1,0.2,0c0,0,0.1-0.1,0.1-0.1C60.5,332.8,60.4,332.5,60.3,332.2z"/>
	<path class="st5" d="M73.9,328.7c-0.9,0.1-1.8,0.2-2.7,0.3s-1.8,0.2-2.7,0.3v0.1c0.9-0.1,1.8-0.1,2.7-0.3s1.8-0.2,2.7-0.3
		C74,328.9,74,328.7,73.9,328.7z"/>
	<path class="st5" d="M95.8,344c-0.3-7.7-0.8-15.4-1.6-23c-0.4-3.8-0.8-7.6-1.3-11.4c-0.5-3.7-1.2-7.4-2.2-11
		c-0.7-2.8-1.9-5.5-3.7-7.8c-1.7-2.3-4.6-3.5-7.4-3.2c-3.4,0.4-6.1,2.5-8.4,4.8c-2.6,2.6-5,5.4-7.5,8.2c-0.6,0.7-1.2,1.4-1.8,2.1
		c0,0.1,0,0.1,0.1,0.1c2.4-2.7,4.9-5.4,7.4-7.9c2.4-2.3,4.9-4.9,8.2-5.9c1.5-0.5,3.2-0.5,4.8-0.1c1.2,0.4,2.4,1.1,3.2,2
		c1.8,2,3,4.5,3.7,7.1c2.1,7.1,2.8,14.5,3.6,21.8s1.3,14.9,1.7,22.3s0.7,15,1.4,22.5c0.1,0.9,0.2,1.8,0.3,2.8c0.1,0.6,1,0.6,1,0
		C96.5,359.5,96.1,351.8,95.8,344z"/>
	<path class="st6" d="M70.7,293.1c0,0,4.4-8.1-0.8-10.7s-22.6,16.8-27.6,45.1c0,0,28.1-12.4,37.6-24.8S78.5,287.7,70.7,293.1z"/>
	<path class="st5" d="M74.8,299.8c-3.2,0-6.3-0.2-9.4-0.2l1.8-2c0.9-0.9,1.7-1.9,2.5-2.9c0-0.1,0-0.2-0.1-0.1
		c-0.9,0.7-1.7,1.5-2.4,2.4c-0.8,0.8-1.6,1.7-2.4,2.5c-1.2,1.3-2.4,2.6-3.6,4c0-0.1,0-0.3,0-0.4c0-0.5,0-1.1,0-1.7v-3.2
		c0-2.2,0-4.3,0.2-6.5c0-0.1-0.1-0.1-0.1,0c-0.2,2.2-0.4,4.3-0.5,6.5c-0.1,1.1-0.1,2.1-0.1,3.2c0,0.6,0,1.1,0,1.7c0,0.3,0,0.6,0,0.9
		c-0.2,0.2-0.4,0.4-0.6,0.6c-2.5,2.9-4.9,5.9-7.2,8.9c0-0.2,0-0.3,0-0.5c0-0.3-0.1-0.7-0.1-1c-0.1-0.7-0.2-1.4-0.3-2.2
		s-0.2-1.4-0.3-2s-0.3-1.5-0.4-2.3c0,0,0-0.1,0-0.1s-0.1,0-0.1,0c0,0,0,0,0,0.1c0.1,0.8,0.2,1.5,0.3,2.3c0.1,0.7,0.1,1.4,0.2,2.1
		s0.1,1.4,0.2,2.1c0,0.3,0.1,0.7,0.1,1c0,0.2,0,0.3,0.1,0.5c0,0.1,0.1,0.3,0.1,0.4l-1.2,1.6c-1.6,2.1-3.2,4.2-4.7,6.4
		c0,0.1,0,0.2,0.1,0.1c1.5-1.9,3-3.8,4.5-5.7c1.2,0,2.3,0,3.5,0s2.4,0,3.7,0c0,0,0.1-0.1,0-0.1c0,0,0,0,0,0c-1.2,0-2.4,0-3.7,0
		s-2.2,0-3.3,0c1.3-1.6,2.7-3.3,4.1-4.9c0.5-0.6,1-1.2,1.5-1.8c0.5,0.1,0.9,0.1,1.4,0h1.7c1,0,2.1,0,3.1,0c2.1,0,4.3-0.1,6.4-0.1
		c0.1,0,0.1-0.1,0-0.1c-2.1,0-4.3-0.1-6.4-0.2l-3.1-0.1h-1.7c-0.3,0-0.6,0-1,0l3.6-4.3c0,0,0,0,0.1-0.1c1.2-1.4,2.3-2.7,3.5-4.1
		l0.5-0.5c3.3,0.1,6.5-0.1,9.8,0C74.8,299.9,74.8,299.8,74.8,299.8C74.8,299.8,74.8,299.8,74.8,299.8z"/>
	<path class="st5" d="M73.2,305.3h-0.8c-0.1,0-0.1,0.1,0,0.1h0.8C73.2,305.4,73.2,305.4,73.2,305.3
		C73.2,305.3,73.2,305.3,73.2,305.3z"/>
	<path class="st5" d="M71.5,305.3c-1,0-2,0-3-0.1h-1.5c-0.5-0.1-0.9-0.1-1.4,0c-0.1,0,0,0.1,0,0.1c0.5,0.1,0.9,0.1,1.4,0.1h1.5
		c1,0,2,0,3,0C71.5,305.5,71.5,305.4,71.5,305.3C71.5,305.4,71.5,305.3,71.5,305.3z"/>
	<path class="st5" d="M62.6,314.8c-2-0.3-4.1-0.5-6.2-0.6c0,0,0,0,0,0c2.1,0.2,4.1,0.3,6.2,0.6C62.7,315,62.7,314.8,62.6,314.8z"/>
	<path class="st5" d="M54.2,305.8l-0.1-0.5c-0.1-0.4-0.1-0.8-0.2-1.2c-0.1-0.8-0.3-1.5-0.4-2.3c0-0.1-0.1-0.1-0.1,0
		c0.1,0.8,0.2,1.6,0.3,2.4c0,0.4,0.1,0.8,0.1,1.2c0,0.4,0,0.8,0.2,1.1c0.1,0.1,0.2,0.1,0.3,0C54.3,306.2,54.3,306,54.2,305.8z"/>
	<path class="st5" d="M95.5,282.7c-1-1.9-2.3-4.3-4.8-4.2c-2.1,0.1-3,2.2-3.4,4c-1.4,5.4-1.5,11.1-1.7,16.6
		c-0.6,11.7-1.1,23.4-1.1,35.1c0,3.3,0,6.5,0,9.7s0,6.6,0.2,9.9c0,0.1,0.2,0.2,0.3,0.2c0.1,0,0.2-0.1,0.2-0.2c0-2.8-0.1-5.7-0.1-8.5
		s0-5.5,0.1-8.3c0.1-5.6,0.2-11.2,0.4-16.8c0.2-5.6,0.4-11.1,0.7-16.7l0.4-8.3c0.1-2.7,0.2-5.4,0.6-8.1c0.2-1.5,0.4-3,0.7-4.5
		c0.2-1.1,0.6-2.1,1.3-3c1-1,2.5-1.1,3.7-0.3c1.1,0.8,2,1.9,2.6,3.2C95.4,282.9,95.5,282.8,95.5,282.7z"/>
	<path class="st6" d="M94.8,281.8c0,0-2.1-7.3,2.5-3.6c7.6,6.1,7.9,19.2,7.9,19.2s-13.5-7.8-15.2-13
		C87.5,276.7,94.8,281.8,94.8,281.8z"/>
	<path class="st5" d="M102.3,292c-0.1-0.2-0.3-0.4-0.4-0.6c0-0.2,0-0.4,0-0.6c0-0.3,0-0.6,0-0.9c0-0.6,0-1.2,0.1-1.8
		c0-0.1-0.1-0.1-0.1,0c0,0.6-0.1,1.2-0.1,1.8c0,0.3,0,0.6,0,0.9c0,0.1,0,0.3,0,0.4c-0.5-0.8-1.1-1.6-1.6-2.4
		c-0.2-0.2-0.3-0.5-0.5-0.7c-0.1-0.8-0.1-1.6,0-2.4c0-0.9,0-1.7,0.1-2.5c0-0.1-0.1-0.1-0.1,0c0,0.9-0.1,1.8-0.1,2.6
		c0,0.6,0,1.3,0,1.9c-1.3-1.8-2.7-3.5-4.1-5.2c0,0-0.2,0-0.1,0.1c0.9,1.1,1.7,2.2,2.5,3.4c-1.6-0.4-3.2-0.6-4.8-0.8
		c-0.1,0-0.1,0.1,0,0.1c1.7,0.3,3.4,0.7,5.1,1.1l0,0c0.7,0.9,1.3,1.8,1.9,2.7c0.3,0.4,0.5,0.8,0.8,1.1h-0.1L100,290
		c-0.4,0-0.8-0.1-1.1-0.1c-0.8-0.1-1.6-0.1-2.3-0.1c-0.1,0-0.1,0.1,0,0.1c0.8,0,1.5,0.1,2.3,0.2l1.2,0.1l0.5,0.1h0.2l1.3,1.9
		c0.8,1.1,1.4,2.3,2.3,3.4c0,0,0.1,0,0.1,0s0-0.1,0-0.1l0,0C103.8,294.3,103.1,293.1,102.3,292z"/>
	<path class="st5" d="M99,283.8c0-0.3,0-0.6,0-0.9c0-0.6,0-1.2,0.1-1.8c0-0.1-0.1-0.1-0.1,0c0,0.6-0.1,1.2-0.1,1.8
		c0,0.3,0,0.6,0,0.9c0,0.1,0,0.3,0,0.4c0,0.1,0,0.3,0,0.4c0,0,0,0,0.1,0c0,0,0,0,0,0c0-0.1,0-0.3,0-0.4C99,284.1,99,283.9,99,283.8z
		"/>
	<path class="st5" d="M97.3,286.8c-0.5-0.1-1-0.1-1.5-0.2s-1.1-0.1-1.7-0.2c-0.1,0-0.1,0.1,0,0.1C95.2,286.7,96.2,286.9,97.3,286.8
		C97.3,286.9,97.4,286.8,97.3,286.8z"/>
	<path class="st5" d="M101.5,286.9c0,0.1,0,0.2,0,0.3v0.2c0,0.2,0,0.3,0,0.5v0.5c0,0.1,0,0.3,0,0.5l0,0c0-0.1,0-0.1,0-0.2v-1.5
		C101.5,287.1,101.5,286.9,101.5,286.9C101.5,286.8,101.4,286.7,101.5,286.9z"/>
	<path class="st5" d="M95.8,321.5c-2.8-2.1-5.4-5.2-9.2-5.3c-3.2-0.1-5.3,2.2-6.6,4.9c-0.6,1.4-1.2,2.9-1.6,4.4c-0.6,2-1.1,4-1.6,6
		c-1,4-1.8,8-2.5,12c-0.4,2.2-0.7,4.5-1,6.7c-0.4,2.3-0.6,4.6-0.7,6.9c0,0.2,0.2,0.3,0.4,0.3c0.1,0,0.3-0.1,0.3-0.2
		c0.4-1.9,0.6-3.8,0.8-5.7s0.6-3.8,0.9-5.7c0.7-3.8,1.4-7.6,2.3-11.4c0.8-3.6,1.6-7.2,2.8-10.7c0.8-2.5,2.1-5.4,4.8-6.3
		c4.1-1.4,7.8,2.1,10.8,4.4C95.8,321.7,95.9,321.6,95.8,321.5z"/>
	<path class="st6" d="M92.9,319.5c0,0-2.6-7.5,1.1-8.9c5.7-2.2,20.5,14.5,17.6,40.1c-7-3.9-13.7-8.4-19.9-13.4
		c-8.5-7.1-10.6-16.4-6.9-18.8S92.9,319.5,92.9,319.5z"/>
	<path class="st5" d="M109.9,345.2c-0.4-0.9-0.9-1.8-1.4-2.6c-0.5-0.9-1-1.8-1.5-2.6c-1-1.7-2-3.4-3-5l-0.5-0.8l0.1-0.3
		c0-0.3,0.1-0.5,0.2-0.7c0.1-0.6,0.2-1.1,0.3-1.7c0.2-1.1,0.4-2.2,0.7-3.3c0-0.1-0.1-0.1-0.1,0c-0.2,1.1-0.6,2.2-0.9,3.2
		c-0.2,0.5-0.3,1.1-0.5,1.6l-0.2,0.5c-1.2-2-2.4-4-3.8-5.9c0.1-0.3,0.1-0.5,0.1-0.8c0-0.4,0.1-0.7,0.1-1.1c0.1-0.8,0.2-1.7,0.3-2.5
		c0.3-1.6,0.5-3.3,0.9-4.9c0-0.1-0.1-0.1-0.1,0c-0.4,1.6-0.8,3.2-1.2,4.9c-0.2,0.8-0.3,1.6-0.4,2.4c-0.1,0.4-0.1,0.8-0.1,1.2
		c0,0.1,0,0.2,0,0.4c-0.4-0.6-0.8-1.2-1.3-1.7c-1.3-1.7-2.7-3.4-4-5.1c-0.1-0.1-0.2,0-0.1,0.1c2.3,3,4.5,6.1,6.4,9.4
		c0.4,0.6,0.7,1.2,1.1,1.8l-0.4,0c-0.5-0.1-1-0.1-1.4-0.1l-2.9-0.3c-1.9-0.1-3.9-0.3-5.8-0.5c-0.1,0-0.1,0.1,0,0.1
		c2,0.2,3.9,0.5,5.8,0.8l2.9,0.4c0.7,0.1,1.5,0.2,2.2,0.2l2.3,3.7c-0.2,0-0.3,0-0.5,0h-2.8c-1.3,0-2.5,0-3.7,0c-0.1,0-0.1,0.1,0,0.1
		c1.3,0,2.5,0.1,3.8,0.1c0.6,0,1.2,0.1,1.8,0.1l0.9,0.1c0.3,0.1,0.5,0.1,0.8,0c0.6,1,1.3,2.1,1.9,3.1s1.2,1.9,1.8,2.9
		c0.6,1,1.2,2,1.9,2.9C109.8,345.3,109.9,345.3,109.9,345.2z"/>
	<path class="st5" d="M104.4,324.5c-0.1,0.8-0.3,1.6-0.5,2.4c-0.2,0.8-0.4,1.6-0.7,2.5c0,0,0,0.1,0,0.1s0.1,0,0.1,0c0,0,0,0,0-0.1
		c0.3-0.8,0.5-1.6,0.7-2.4s0.3-1.7,0.5-2.5C104.6,324.4,104.5,324.4,104.4,324.5z"/>
	<path class="st5" d="M96,329.5c-0.2-0.2-0.4-0.2-0.6-0.2l-1.1-0.1l-2-0.3c-1.4-0.2-2.8-0.3-4.2-0.5c-0.1,0-0.1,0.1,0,0.1
		c1.3,0.2,2.6,0.4,3.9,0.5c0.6,0.1,1.3,0.2,1.9,0.3l0.9,0.1c0.4,0,0.7,0.1,1.1,0.2C96,329.6,96,329.6,96,329.5
		C96,329.5,96,329.5,96,329.5z"/>
	<path class="st5" d="M104.4,340.8c-0.7-0.1-1.3-0.1-2-0.1h-1H101c-0.2,0-0.4,0-0.6,0c-0.1,0-0.1,0.1,0,0.1c0.2,0,0.4,0,0.6,0h0.5
		l1,0.1c0.7,0,1.3,0.1,2,0.1C104.5,340.9,104.5,340.8,104.4,340.8z"/>
	<path class="st5" d="M108.5,337.9c0.1-0.4,0.2-0.8,0.2-1.1c0.1-0.7,0.3-1.5,0.4-2.2c0-0.1-0.1-0.1-0.1,0l-0.5,2.1l-0.2,1.1
		c0,0.2-0.1,0.3-0.1,0.5c-0.1,0.2-0.1,0.4-0.1,0.5c0,0.1,0.1,0.1,0.1,0C108.4,338.5,108.4,338.2,108.5,337.9z"/>
	<polygon class="st7" points="69.7,354.2 70.5,363.2 73.2,393.9 97.2,393.9 100.6,363.2 101.6,354.2 	"/>
	<polygon class="st5" points="69.7,354.2 70.5,363.2 100.6,363.2 101.6,354.2 	"/>
	<rect x="67.3" y="351.7" class="st7" width="36.6" height="7.4"/>
</g>
<g id="freepik--Floor--inject-34">
	<polygon class="st5" points="15.6,393.9 74.2,393.6 132.8,393.5 250,393.4 367.2,393.5 425.8,393.6 484.4,393.9 425.8,394.1 
		367.2,394.2 250,394.4 132.8,394.2 74.2,394.1 	"/>
</g>
<g id="freepik--Device--inject-34">
	<path class="st5" d="M375.2,65.7v348.5c0,7.1-5.8,12.9-12.9,12.9H137.7c-7.1,0-12.9-5.8-12.9-12.9V65.7c0-7.1,5.8-12.9,12.9-12.9
		h224.6C369.4,52.8,375.2,58.6,375.2,65.7z"/>
	<rect x="135.6" y="79" class="st2" width="229" height="322.1"/>
	<path class="st7" d="M277.2,67.4v1.4c0,0.7-0.6,1.3-1.3,1.3h-52c-0.7,0-1.3-0.6-1.3-1.3v-1.4c0-0.7,0.6-1.3,1.3-1.3h52
		C276.7,66.1,277.2,66.7,277.2,67.4z"/>
	<circle class="st7" cx="250" cy="413.8" r="7"/>
	<rect x="135.6" y="79" class="st2" width="229" height="322.1"/>
	<rect x="135.6" y="79" class="st8" width="229" height="7.9"/>
	<path class="st4" d="M141.8,83c0,1.1-0.9,2-2,2s-2-0.9-2-2s0.9-2,2-2c0,0,0,0,0,0C140.9,81,141.8,81.9,141.8,83z"/>
	<path class="st2" d="M149.7,83c0,1.1-0.9,2-2,2s-2-0.9-2-2s0.9-2,2-2c0,0,0,0,0,0C148.9,81,149.7,81.9,149.7,83z"/>
	<path class="st6" d="M157.7,83c0,1.1-0.9,2-2,2s-2-0.9-2-2s0.9-2,2-2S157.7,81.9,157.7,83z"/>
	<rect x="156" y="168.5" class="st0" width="188.3" height="2.1"/>
	<rect x="156" y="174" class="st0" width="188.3" height="2.1"/>
	<rect x="156" y="179.5" class="st0" width="188.3" height="2.1"/>
	<rect x="156" y="185" class="st0" width="188.3" height="2.1"/>
	<rect x="156" y="190.6" class="st0" width="188.3" height="2.1"/>
	<rect x="156" y="196.1" class="st0" width="188.3" height="2.1"/>
	<rect x="156" y="201.6" class="st0" width="188.3" height="2.1"/>
	<rect x="156" y="207.1" class="st0" width="188.3" height="2.1"/>
	<rect x="156" y="212.6" class="st0" width="188.3" height="2.1"/>
	<rect x="156" y="218.1" class="st0" width="188.3" height="2.1"/>
	<rect x="156" y="223.6" class="st0" width="116.4" height="2.1"/>
	<rect x="156" y="234.6" class="st0" width="188.3" height="2.1"/>
	<rect x="156" y="240.1" class="st0" width="188.3" height="2.1"/>
	<rect x="156" y="245.6" class="st0" width="188.3" height="2.1"/>
	<rect x="156" y="251.1" class="st0" width="188.3" height="2.1"/>
	<rect x="156" y="256.6" class="st0" width="188.3" height="2.1"/>
	<rect x="156" y="262.1" class="st0" width="188.3" height="2.1"/>
	<rect x="156" y="267.6" class="st0" width="188.3" height="2.1"/>
	<rect x="156" y="273.1" class="st0" width="188.3" height="2.1"/>
	<rect x="156" y="278.6" class="st0" width="116.4" height="2.1"/>
	<rect x="156" y="289.6" class="st0" width="188.3" height="2.1"/>
	<rect x="156" y="295.1" class="st0" width="188.3" height="2.1"/>
	<rect x="156" y="300.6" class="st0" width="188.3" height="2.1"/>
	<rect x="156" y="306.1" class="st0" width="188.3" height="2.1"/>
	<rect x="156" y="311.6" class="st0" width="188.3" height="2.1"/>
	<rect x="156" y="317.1" class="st0" width="188.3" height="2.1"/>
	<rect x="156" y="322.7" class="st0" width="188.3" height="2.1"/>
	<rect x="156" y="328.2" class="st0" width="116.4" height="2.1"/>
	<path class="st6" d="M241.5,379.3h-86.1v-25.7h86.1L241.5,379.3z M156.4,378.3h84.1v-23.7h-84.1V378.3z"/>
	<rect x="259.3" y="354" class="st6" width="85.1" height="24.7"/>
	<path class="st6" d="M347.8,382h-91.8v-31.3h91.8V382z M256.9,381h89.8v-29.3h-89.8V381z"/>
	<path class="st2" d="M285.7,362.5h1.2l2.6,6.9h-1.4l-0.6-1.7h-2.4l-0.6,1.7h-1.4L285.7,362.5z M287.3,366.8l-1-2.7l-1,2.7H287.3z"
		/>
	<path class="st2" d="M289.7,365.9c0-0.4,0.1-0.9,0.2-1.3c0.1-0.4,0.4-0.8,0.7-1.1c0.3-0.3,0.7-0.6,1.1-0.8c0.5-0.2,1-0.3,1.5-0.3
		c0.6,0,1.2,0.1,1.7,0.4c0.4,0.3,0.8,0.6,1,1.1l-1,0.7c-0.1-0.2-0.2-0.4-0.3-0.5c-0.1-0.1-0.3-0.2-0.4-0.3c-0.1-0.1-0.3-0.1-0.5-0.2
		c-0.2,0-0.3-0.1-0.5-0.1c-0.3,0-0.6,0.1-0.9,0.2c-0.2,0.1-0.5,0.3-0.6,0.5c-0.2,0.2-0.3,0.5-0.4,0.7c-0.1,0.3-0.1,0.5-0.1,0.8
		c0,0.3,0,0.6,0.1,0.9c0.1,0.3,0.2,0.5,0.4,0.7c0.2,0.2,0.4,0.4,0.6,0.5c0.3,0.1,0.5,0.2,0.8,0.2c0.2,0,0.3,0,0.5-0.1
		c0.2,0,0.3-0.1,0.5-0.2c0.2-0.1,0.3-0.2,0.4-0.3c0.1-0.1,0.2-0.3,0.3-0.5l1.1,0.6c-0.1,0.3-0.3,0.5-0.5,0.7
		c-0.2,0.2-0.4,0.4-0.7,0.5c-0.3,0.1-0.5,0.2-0.8,0.3c-0.3,0.1-0.6,0.1-0.9,0.1c-0.5,0-0.9-0.1-1.4-0.3c-0.4-0.2-0.8-0.5-1.1-0.8
		C290,367.7,289.7,366.8,289.7,365.9L289.7,365.9z"/>
	<path class="st2" d="M296.3,365.9c0-0.4,0.1-0.9,0.2-1.3c0.2-0.4,0.4-0.8,0.7-1.1c0.6-0.7,1.6-1.1,2.5-1.1c0.6,0,1.1,0.1,1.6,0.4
		c0.4,0.3,0.8,0.6,1,1.1l-1,0.7c-0.1-0.2-0.2-0.4-0.3-0.5c-0.1-0.1-0.3-0.2-0.4-0.3c-0.1-0.1-0.3-0.1-0.5-0.2
		c-0.2,0-0.3-0.1-0.5-0.1c-0.3,0-0.6,0.1-0.9,0.2c-0.2,0.1-0.5,0.3-0.6,0.5c-0.2,0.2-0.3,0.5-0.4,0.7c-0.2,0.6-0.2,1.2,0,1.7
		c0.1,0.3,0.2,0.5,0.4,0.7c0.2,0.2,0.4,0.4,0.6,0.5c0.3,0.1,0.5,0.2,0.8,0.2c0.2,0,0.3,0,0.5-0.1c0.2,0,0.3-0.1,0.5-0.2
		c0.2-0.1,0.3-0.2,0.4-0.3c0.1-0.1,0.2-0.3,0.3-0.5l1.1,0.6c-0.1,0.3-0.3,0.5-0.5,0.7c-0.2,0.2-0.4,0.4-0.7,0.5
		c-0.3,0.1-0.5,0.2-0.8,0.3c-0.3,0.1-0.6,0.1-0.9,0.1c-0.5,0-0.9-0.1-1.4-0.3c-0.4-0.2-0.8-0.5-1.1-0.8c-0.3-0.3-0.5-0.7-0.7-1.1
		C296.4,366.8,296.3,366.4,296.3,365.9z"/>
	<path class="st2" d="M308.3,368.3v1.2h-4.8v-6.9h4.7v1.2h-3.4v1.7h2.9v1.1h-2.9v1.8H308.3z"/>
	<path class="st2" d="M309.3,369.5v-6.9h3c0.3,0,0.6,0.1,0.9,0.2c0.3,0.1,0.5,0.3,0.7,0.5c0.2,0.2,0.4,0.5,0.5,0.7
		c0.1,0.3,0.2,0.6,0.2,0.8c0,0.3-0.1,0.6-0.2,0.9c-0.1,0.3-0.2,0.5-0.4,0.7c-0.2,0.2-0.4,0.4-0.7,0.5c-0.3,0.1-0.6,0.2-0.9,0.2h-1.6
		v2.3H309.3z M310.7,365.9h1.6c0.2,0,0.5-0.1,0.6-0.3c0.2-0.2,0.3-0.5,0.3-0.8c0-0.2,0-0.3-0.1-0.5c0-0.1-0.1-0.3-0.2-0.4
		c-0.1-0.1-0.2-0.2-0.3-0.2c-0.1,0-0.2-0.1-0.4-0.1h-1.5V365.9z"/>
	<path class="st2" d="M320.6,363.7h-2.2v5.8H317v-5.8h-2.2v-1.2h5.8V363.7z"/>
	<rect x="357.5" y="86.9" class="st3" width="7.1" height="314.3"/>
	<path class="st1" d="M361.1,312.9L361.1,312.9c-1,0-1.8-0.8-1.8-1.8V90.2c0-1,0.8-1.8,1.8-1.8l0,0c1,0,1.8,0.8,1.8,1.8V311
		C362.9,312,362.1,312.8,361.1,312.9z"/>
	<text transform="matrix(1 0 0 1 202.5996 137.1914)" class="st5 st9 st10">Our Values</text>
</g>
<g id="freepik--Character--inject-34">
	<path class="st11" d="M327.8,459c2.2,0.7,63.7-0.1,66-1.6c0.9-0.6,1.3-9.5,1.5-20.4c0-0.1,0-0.2,0-0.3c0-2.2,0.1-4.5,0.1-6.9
		c0-0.3,0-0.6,0-1l-3-31.9l-41.2,0.4l4.1,31.6l0,1.3l0.3,6.5v0.7c0,0-23.4,10.8-25.8,12.8S325.6,458.3,327.8,459z"/>
	<path class="st0" d="M327.8,459c2.2,0.7,63.7-0.1,66-1.6c0.9-0.6,1.3-9.5,1.5-20.4c0-0.1,0-0.2,0-0.3c0-2.2,0.1-4.5,0.1-6.9
		c0-0.3,0-0.6,0-1l-40.1,0.1l0,1.3l0.3,6.5v0.7c0,0-23.4,10.8-25.8,12.8S325.6,458.3,327.8,459z"/>
	<path class="st6" d="M327.7,459c1.1,0.4,17.8,0.3,34.2,0c3.3-0.1,6.5-0.1,9.7-0.2c11.6-0.3,21.3-0.8,22.2-1.4s1.3-9.3,1.5-19.9
		c0-0.1,0-0.3,0-0.5s0-0.2,0-0.4h0l-39.6,0.1v0.7c0,0-23.4,10.8-25.8,12.8S325.6,458.3,327.7,459z"/>
	<path class="st5" d="M328.4,456.6c10.4-0.4,52.2-1,62.5-0.6c0.1,0,0.1,0.1,0,0.1c-10.3,0.6-52.1,0.9-62.5,0.7
		C328.2,456.8,328.2,456.6,328.4,456.6z"/>
	<path class="st5" d="M351.1,436.9c4.1-0.8,9.1-0.3,12.2,2.6c0.1,0.1,0,0.3-0.2,0.3c-3.9-1.2-7.9-2-12-2.4c-0.1,0-0.3-0.1-0.2-0.3
		C350.9,437,351,436.9,351.1,436.9z"/>
	<path class="st5" d="M348.2,438.7c4.1-0.8,9.1-0.3,12.2,2.6c0.1,0.1,0,0.3-0.2,0.2c-3.9-1.2-7.9-2-12-2.3c-0.1,0-0.3-0.1-0.3-0.2
		C348,438.8,348.1,438.7,348.2,438.7z"/>
	<path class="st5" d="M345.3,440.5c4.1-0.8,9.1-0.3,12.2,2.6c0.1,0.1,0,0.3-0.2,0.2c-3.9-1.2-7.9-2-12-2.3c-0.1,0-0.3-0.1-0.2-0.3
		C345.1,440.6,345.2,440.6,345.3,440.5z"/>
	<path class="st5" d="M361.9,459c3.3-0.1,6.5-0.1,9.7-0.2c11.6-0.3,21.3-0.8,22.2-1.4s1.3-9.3,1.5-19.9c0-0.1,0-0.3,0-0.5
		s0-0.2,0-0.4h0C389.8,440.5,370.6,453.2,361.9,459z"/>
	<path class="st7" d="M352.8,436.9h44.3c0,0-8.9-103.5-8.6-105.3c0.5-2.3,3.1-12.8,6.5-26.5c1.1-4.3,2.3-8.9,3.5-13.6
		c3.3-12.9,6.9-27,10.1-39.2c4.8-18.4,8.5-32.6,8.5-32.6h-37.6c0,0-4.4,13.9-9.9,31.9c-9,29.3-21,69.7-22.2,79.5
		C345.7,347,352.8,436.9,352.8,436.9z"/>
	<path class="st5" d="M354.8,429.3c6.8-0.1,4.8-0.2,11.6-0.3c3.3,0,25.1-0.2,28.2,0.3c0.1,0,0.1,0.1,0,0.1
		c-3.1,0.5-24.9,0.3-28.2,0.3c-6.8-0.1-4.8-0.1-11.6-0.3c-0.1,0-0.1,0-0.1-0.1S354.7,429.3,354.8,429.3z"/>
	<path class="st5" d="M380.2,325.2c1.5-6.4,3.6-12.7,5.5-19c3.8-12.8,7.7-25.5,11.6-38.3c1.9-6.4,3.9-12.8,5.9-19.1
		c1-3.2,2-6.4,3-9.6c1-3.1,2.1-6.3,3-9.4c0.4-1.3,0.6-0.6,0.1,1.1c-0.9,3.3-1.9,6.6-2.8,9.9c-1.9,6.5-3.8,13.1-5.8,19.6
		c-3.8,13-7.7,26-11.6,38.9c-2,6.5-3.9,13-5.9,19.5c-1,3.1-1.8,6.2-2.4,9.4c-0.5,3.3-0.7,6.7-0.4,10.1c0.4,6.8,1.2,13.5,1.8,20.3
		s1.3,13.6,1.9,20.3c1.3,13.5,2.5,27,3.7,40.5c0.1,1.7,0.3,3.4,0.4,5.1c0,0.6-0.8,0.5-0.9,0c-1.5-13.3-2.6-26.7-3.8-40.1
		s-2.5-26.6-3.7-39.9c-0.3-3.3-0.7-6.7-0.7-10C379.2,331.4,379.5,328.3,380.2,325.2z"/>
	<path class="st5" d="M383.9,219.6c2.6,20.2,7.6,58,11.2,85.4c8.5-33.3,22.1-85.4,22.1-85.4H383.9z"/>
	<path class="st11" d="M374.7,459.6c2.2,0.7,63.7,0.1,66-1.4c0.9-0.6,1.3-9.5,1.6-20.4v-0.3c0-2.2,0.1-4.5,0.1-6.9c0-0.3,0-0.6,0-1
		c0.1-15.7-1-31.9-1-31.9l-40.2,0.3l1.1,31.6v1.3l0.2,6.5v0.7c0,0-23.5,10.8-25.8,12.7S372.5,458.9,374.7,459.6z"/>
	<path class="st0" d="M374.7,459.6c2.2,0.7,63.7,0.1,66-1.4c0.9-0.6,1.3-9.5,1.6-20.4v-0.3c0-2.2,0.1-4.5,0.1-6.9c0-0.3,0-0.6,0-1
		h-40.1v1.3l0.2,6.5v0.7c0,0-23.5,10.8-25.8,12.7S372.5,458.9,374.7,459.6z"/>
	<path class="st6" d="M374.7,459.6c2.2,0.7,63.7,0.1,66-1.4c0.9-0.6,1.3-9.5,1.6-20.4v-0.3l-39.7-0.1v0.7c0,0-23.5,10.8-25.8,12.7
		S372.5,458.9,374.7,459.6z"/>
	<path class="st5" d="M375.4,457.2c10.4-0.4,52.2-0.8,62.5-0.4c0.1,0,0.1,0.1,0,0.1c-10.3,0.6-52.1,0.7-62.5,0.5
		C375.1,457.4,375.1,457.2,375.4,457.2z"/>
	<path class="st5" d="M398.1,437.6c4.1-0.8,9.1-0.2,12.2,2.7c0.1,0.1,0,0.3-0.2,0.2c-3.9-1.2-7.9-2-12-2.4c-0.1,0-0.3-0.1-0.2-0.3
		C398,437.7,398,437.6,398.1,437.6z"/>
	<path class="st5" d="M395.2,439.4c4.1-0.8,9.1-0.2,12.2,2.7c0.1,0.1,0,0.3-0.2,0.2c-3.9-1.2-7.9-2-12-2.4c-0.1,0-0.3-0.1-0.3-0.2
		C395,439.5,395.1,439.4,395.2,439.4L395.2,439.4z"/>
	<path class="st5" d="M392.3,441.2c4.1-0.8,9.1-0.2,12.2,2.7c0.1,0.1,0,0.3-0.2,0.2c-3.9-1.2-7.9-2-12-2.4c-0.1,0-0.3-0.1-0.3-0.2
		C392,441.3,392.1,441.2,392.3,441.2L392.3,441.2z"/>
	<path class="st7" d="M380.9,219.6c0,0,0.9,18,5,32.2c0.3,1.2,0.7,2.3,1.1,3.4c3.8,1.5,7.4,3.4,10.8,5.6c0,0,0.4,14.5,0.9,30.6
		c0.5,18,1,38.1,0.9,42.4c-0.4,16,2,103.7,2,103.7l44.3,0.2c0,0-8-98-8-103.8c0.1-9.4-2.1-50.9-3.9-81.2c-1-18.7-1.9-33-1.9-33
		L380.9,219.6z"/>
	<path class="st5" d="M403,429.6c6.8-0.1,4.8-0.2,11.6-0.2c3.3,0,25.1-0.1,28.2,0.4c0,0,0.1,0,0.1,0.1s0,0.1-0.1,0.1l0,0
		c-3.1,0.5-24.9,0.2-28.2,0.2c-6.8-0.1-4.8-0.1-11.6-0.3c-0.1,0-0.1,0-0.1-0.1C402.9,429.7,402.9,429.6,403,429.6L403,429.6z"/>
	<path class="st5" d="M428.3,226.1c0.8,24.7,1.7,49.4,2.8,74.1s2.6,49.6,4.7,74.3c1.2,13.8,2.3,33.3,3.7,47c0,0.1-0.1,0.1-0.1,0
		c-3.2-24.5-5-54.8-6.6-79.5s-2.7-49.4-3.5-74.1c-0.5-14-0.8-28-1.3-41.9C428,225.9,428.3,225.9,428.3,226.1z"/>
	<path class="st5" d="M385.1,254.2c4.4,1.8,8.6,4.1,12.7,6.6c0.1,0.1,0.1,0.1,0,0.2c0,0-0.1,0.1-0.1,0c-4.3-2.1-8.6-4.1-12.8-6.4
		c-0.1-0.1-0.2-0.3-0.1-0.4C384.8,254.2,385,254.2,385.1,254.2z"/>
	<path class="st5" d="M384.8,239c0.3,1.6,0.7,3.1,1,4.7s0.6,3,0.9,4.4c0.3,1.4,1,2.7,2.1,3.7c0.6,0.5,1.2,1,1.8,1.5
		c0.3,0.3,0.7,0.5,1,0.8l-0.1-0.6l-0.3-1.8c-0.2-1.3-0.4-2.6-0.6-4c-0.4-2.6-0.8-5.3-1.3-7.8c0,0,0-0.1,0.1-0.1c0,0,0.1,0,0.1,0.1
		c0.6,2.6,1.4,5.1,1.9,7.7c0.3,1.3,1.3,7.5,1.3,8s0.1,0.9,0.1,1.4c0.1,0.5,0.1,0.9,0,1.4c0,0.1-0.2,0.1-0.2,0l0,0
		c-0.2-0.4-0.3-0.9-0.4-1.4c-0.1-0.5-0.2-0.9-0.3-1.4c0-0.2-0.1-0.3-0.1-0.5c-0.6-0.4-1.2-0.9-1.8-1.3s-1.3-0.9-1.8-1.4
		c-1.1-0.9-1.9-2.1-2.3-3.5c-0.4-1.5-0.6-3-0.7-4.5c-0.2-1.8-0.4-3.6-0.6-5.3C384.6,238.9,384.8,238.9,384.8,239z"/>
	<path class="st11" d="M401,178.9c-3.4,10.3-18.8,43.2-25.3,45.5c-6.7,2.4-32.7,5.4-38.4,0.8c-2.8-2.2-3.8-26,0-25.4
		s26.7,1.4,29.4,0.4s20.9-27.4,28.3-33.9C407.8,155.4,402.9,173.4,401,178.9z"/>
	<path class="st6" d="M343.1,199.4l0.4,29.6c0,0,26.6,0.1,33.7-3.7s22.1-37.9,25.8-51s-2.3-15.1-11.8-5.5s-23.9,29.7-25.6,30.1
		S343.1,199.4,343.1,199.4z"/>
	<path class="st12" d="M402.3,165.8c-0.6,0-1,0.4-1,1s0.4,1,1,1s1-0.4,1-1S402.8,165.8,402.3,165.8z M402.3,167.5
		c-0.4,0-0.7-0.3-0.7-0.7s0.3-0.7,0.7-0.7s0.7,0.3,0.7,0.7S402.6,167.5,402.3,167.5z M381.5,180.4c-0.1,0-0.3,0-0.4,0.1l-0.6,0.7
		c0,0.1,0,0.2,0,0.2c0,0.6,0.4,1,1,1s1-0.4,1-1C382.5,180.8,382.1,180.4,381.5,180.4C381.5,180.4,381.5,180.4,381.5,180.4
		L381.5,180.4z M381.5,182.1c-0.4,0-0.7-0.3-0.7-0.7c0-0.4,0.3-0.7,0.7-0.7c0.4,0,0.7,0.3,0.7,0.7c0,0,0,0,0,0
		C382.2,181.8,381.8,182.1,381.5,182.1L381.5,182.1z M391.9,180.4c-0.6,0-1,0.4-1,1s0.4,1,1,1s1-0.4,1-1S392.4,180.4,391.9,180.4z
		 M391.9,182.1c-0.4,0-0.7-0.3-0.7-0.7c0-0.4,0.3-0.7,0.7-0.7c0.4,0,0.7,0.3,0.7,0.7c0,0,0,0,0,0
		C392.5,181.8,392.2,182.1,391.9,182.1L391.9,182.1z M387.2,173.2l-0.2,0.3c0.2,0.1,0.4,0.4,0.4,0.6c0,0.4-0.3,0.7-0.7,0.7
		c0,0,0,0,0,0c-0.2,0-0.5-0.1-0.6-0.3l-0.2,0.2c0.3,0.4,1,0.5,1.4,0.2c0.4-0.3,0.5-1,0.2-1.4C387.4,173.4,387.3,173.3,387.2,173.2
		L387.2,173.2z M397.1,173.1c-0.6,0-1,0.4-1,1s0.4,1,1,1s1-0.4,1-1S397.6,173.1,397.1,173.1C397,173.1,397,173.1,397.1,173.1
		L397.1,173.1z M397.1,174.8c-0.4,0-0.7-0.3-0.7-0.7s0.3-0.7,0.7-0.7s0.7,0.3,0.7,0.7S397.4,174.8,397.1,174.8z M371.1,195
		c-0.6,0-1,0.4-1,1s0.4,1,1,1s1-0.4,1-1S371.6,195,371.1,195z M371.1,196.7c-0.4,0-0.6-0.4-0.6-0.8c0-0.3,0.3-0.6,0.6-0.6
		c0.4,0,0.7,0.2,0.8,0.6s-0.2,0.7-0.6,0.8C371.2,196.7,371.1,196.7,371.1,196.7z M381.5,195c-0.6,0-1,0.4-1,1s0.4,1,1,1s1-0.4,1-1
		S382,195,381.5,195z M381.5,196.7c-0.4,0-0.6-0.4-0.6-0.8c0-0.3,0.3-0.6,0.6-0.6c0.4,0,0.7,0.2,0.8,0.6s-0.2,0.7-0.6,0.8
		C381.6,196.7,381.5,196.7,381.5,196.7z M391.9,195c-0.6,0-1,0.4-1,1s0.4,1,1,1s1-0.4,1-1S392.4,195,391.9,195z M391.9,196.7
		c-0.4,0-0.6-0.4-0.6-0.8c0-0.3,0.3-0.6,0.6-0.6c0.4,0,0.7,0.2,0.8,0.6s-0.2,0.7-0.6,0.8C392,196.7,391.9,196.7,391.9,196.7z
		 M376.3,187.7c-0.6,0-1,0.4-1,1s0.4,1,1,1s1-0.4,1-1C377.3,188.2,376.9,187.7,376.3,187.7C376.3,187.7,376.3,187.7,376.3,187.7
		L376.3,187.7z M376.3,189.4c-0.4,0-0.7-0.3-0.7-0.7s0.3-0.7,0.7-0.7s0.7,0.3,0.7,0.7S376.7,189.4,376.3,189.4z M386.7,187.7
		c-0.6,0-1,0.4-1,1s0.4,1,1,1s1-0.4,1-1C387.7,188.2,387.3,187.7,386.7,187.7C386.7,187.7,386.7,187.7,386.7,187.7L386.7,187.7z
		 M386.7,189.4c-0.4,0-0.7-0.3-0.7-0.7s0.3-0.7,0.7-0.7s0.7,0.3,0.7,0.7S387.1,189.4,386.7,189.4L386.7,189.4z M397.1,187.7
		c-0.6,0-1,0.4-1,1s0.4,1,1,1c0.1,0,0.3,0,0.4-0.1l0,0l0.5-1.3C397.8,188,397.5,187.7,397.1,187.7L397.1,187.7z M397.1,189.4
		c-0.4,0-0.7-0.3-0.7-0.7c0-0.4,0.3-0.7,0.7-0.7c0.4,0,0.7,0.3,0.7,0.7c0,0,0,0,0,0C397.7,189.1,397.4,189.4,397.1,189.4
		L397.1,189.4z M350.3,209.6c-0.6,0-1,0.4-1,1s0.4,1,1,1s1-0.4,1-1C351.3,210,350.9,209.6,350.3,209.6
		C350.3,209.6,350.3,209.6,350.3,209.6L350.3,209.6z M350.3,211.3c-0.4,0-0.7-0.3-0.7-0.7s0.3-0.7,0.7-0.7s0.7,0.3,0.7,0.7
		S350.7,211.3,350.3,211.3L350.3,211.3z M360.7,209.6c-0.6,0-1,0.4-1,1s0.4,1,1,1s1-0.4,1-1C361.7,210,361.3,209.6,360.7,209.6
		C360.7,209.6,360.7,209.6,360.7,209.6L360.7,209.6z M360.7,211.3c-0.4,0-0.7-0.3-0.7-0.7s0.3-0.7,0.7-0.7s0.7,0.3,0.7,0.7
		S361.1,211.3,360.7,211.3L360.7,211.3z M371.1,209.6c-0.6,0-1,0.4-1,1s0.4,1,1,1s1-0.4,1-1C372.1,210,371.7,209.6,371.1,209.6
		C371.1,209.6,371.1,209.6,371.1,209.6L371.1,209.6z M371.1,211.3c-0.4,0-0.7-0.3-0.7-0.7s0.3-0.7,0.7-0.7s0.7,0.3,0.7,0.7
		S371.5,211.3,371.1,211.3z M381.5,209.6c-0.6,0-1,0.4-1,1s0.4,1,1,1s1-0.4,1-1C382.5,210,382.1,209.6,381.5,209.6
		C381.5,209.6,381.5,209.6,381.5,209.6L381.5,209.6z M381.5,211.3c-0.4,0-0.7-0.3-0.7-0.7s0.3-0.7,0.7-0.7s0.7,0.3,0.7,0.7
		S381.9,211.3,381.5,211.3z M345.1,202.3c-0.6,0-1,0.4-1,1s0.4,1,1,1s1-0.4,1-1S345.7,202.3,345.1,202.3z M345.1,204
		c-0.4,0-0.6-0.4-0.6-0.8c0-0.3,0.3-0.6,0.6-0.6c0.4,0,0.7,0.2,0.8,0.6s-0.2,0.7-0.6,0.8C345.2,204,345.2,204,345.1,204z
		 M355.5,202.3c-0.6,0-1,0.4-1,1s0.4,1,1,1s1-0.4,1-1C356.5,202.8,356,202.3,355.5,202.3L355.5,202.3z M355.5,204
		c-0.4,0-0.6-0.4-0.6-0.8c0-0.3,0.3-0.6,0.6-0.6c0.4,0,0.7,0.2,0.8,0.6s-0.2,0.7-0.6,0.8C355.6,204,355.6,204,355.5,204z
		 M365.9,202.3c-0.6,0-1,0.4-1,1s0.4,1,1,1s1-0.4,1-1C366.9,202.8,366.4,202.3,365.9,202.3L365.9,202.3z M365.9,204
		c-0.4,0-0.6-0.4-0.6-0.8c0-0.3,0.3-0.6,0.6-0.6c0.4,0,0.7,0.2,0.8,0.6s-0.2,0.7-0.6,0.8C366,204,365.9,204,365.9,204z M376.3,202.3
		c-0.6,0-1,0.4-1,1s0.4,1,1,1s1-0.4,1-1C377.3,202.8,376.8,202.3,376.3,202.3L376.3,202.3z M376.3,204c-0.4,0-0.7-0.2-0.8-0.6
		s0.2-0.7,0.6-0.8c0.1,0,0.1,0,0.2,0c0.4,0,0.6,0.4,0.6,0.8C376.8,203.7,376.6,204,376.3,204z M386.7,202.3c-0.6,0-1,0.4-1,1
		s0.4,1,1,1s1-0.4,1-1C387.7,202.8,387.2,202.3,386.7,202.3L386.7,202.3z M386.7,204c-0.4,0-0.7-0.2-0.8-0.6s0.2-0.7,0.6-0.8
		c0.1,0,0.1,0,0.2,0c0.4,0,0.6,0.4,0.6,0.8C387.2,203.7,387,204,386.7,204z M350.3,224.2c-0.6,0-1,0.4-1,1s0.4,1,1,1s1-0.4,1-1
		C351.3,224.6,350.9,224.2,350.3,224.2L350.3,224.2z M350.3,225.9c-0.4,0-0.7-0.3-0.7-0.7s0.3-0.7,0.7-0.7s0.7,0.3,0.7,0.7
		S350.7,225.9,350.3,225.9L350.3,225.9z M360.7,224.2c-0.6,0-1,0.4-1,1s0.4,1,1,1s1-0.4,1-1C361.7,224.6,361.2,224.2,360.7,224.2
		L360.7,224.2z M360.7,225.9c-0.4,0-0.7-0.3-0.7-0.7s0.3-0.7,0.7-0.7s0.7,0.3,0.7,0.7S361.1,225.9,360.7,225.9L360.7,225.9z
		 M371.1,224.2c-0.6,0-1,0.4-1,1s0.4,1,1,1s1-0.4,1-1C372.1,224.6,371.6,224.2,371.1,224.2L371.1,224.2z M371.1,225.9
		c-0.4,0-0.7-0.3-0.7-0.7c0-0.4,0.3-0.7,0.7-0.7c0.4,0,0.7,0.3,0.7,0.7c0,0,0,0,0,0C371.8,225.6,371.5,225.9,371.1,225.9
		C371.1,225.9,371.1,225.9,371.1,225.9L371.1,225.9z M345.1,216.9c-0.6,0-1,0.4-1,1s0.4,1,1,1s1-0.4,1-1
		C346,217.3,345.6,216.9,345.1,216.9L345.1,216.9z M345.1,218.6c-0.4,0-0.7-0.3-0.7-0.7s0.3-0.7,0.7-0.7s0.7,0.3,0.7,0.7
		S345.5,218.6,345.1,218.6z M355.5,216.9c-0.6,0-1,0.4-1,1s0.4,1,1,1s1-0.4,1-1C356.4,217.3,356,216.9,355.5,216.9L355.5,216.9z
		 M355.5,218.6c-0.4,0-0.7-0.3-0.7-0.7s0.3-0.7,0.7-0.7s0.7,0.3,0.7,0.7S355.9,218.6,355.5,218.6z M365.9,216.9c-0.6,0-1,0.4-1,1
		s0.4,1,1,1s1-0.4,1-1C366.8,217.3,366.4,216.9,365.9,216.9L365.9,216.9z M365.9,218.6c-0.4,0-0.7-0.3-0.7-0.7s0.3-0.7,0.7-0.7
		s0.7,0.3,0.7,0.7S366.2,218.6,365.9,218.6z M376.3,216.9c-0.6,0-1,0.4-1,1s0.4,1,1,1s1-0.4,1-1
		C377.2,217.3,376.8,216.9,376.3,216.9L376.3,216.9z M376.3,218.6c-0.4,0-0.7-0.3-0.7-0.7s0.3-0.7,0.7-0.7s0.7,0.3,0.7,0.7
		S376.6,218.6,376.3,218.6z"/>
	<path class="st5" d="M350.9,214c0-2.3-0.2-11.7-0.4-14c0,0-0.1,0-0.1,0c-0.2,2.3-0.4,11.5-0.3,13.9c-0.1,4.7,0.1,9.3,0.5,14
		c0,0.1,0.1,0.1,0.1,0C351.1,223.3,350.9,218.7,350.9,214z"/>
	<path class="st13" d="M403,174.4c-3.8,13.1-18.8,47.3-25.8,51c-3.4,1.8-11.3,2.7-18.6,3.2l41.8-65.6
		C404,162.5,405.3,166.4,403,174.4z"/>
	<path class="st6" d="M436.7,246.4c-0.2,0.2-65.1-4.3-65.6-5c-0.8-1,19.8-67,24.9-76.7c2.2-4.1,12.7-4.7,16.8-0.8
		c10.4,9.8,17.6,41.4,19.1,50.8C434.5,230.3,437.2,245.8,436.7,246.4z"/>
	<path class="st12" d="M402.3,165.8c-0.6,0-1,0.4-1,1s0.4,1,1,1s1-0.4,1-1S402.8,165.8,402.3,165.8z M402.3,167.5
		c-0.4,0-0.7-0.3-0.7-0.7s0.3-0.7,0.7-0.7s0.7,0.3,0.7,0.7S402.6,167.5,402.3,167.5z M412.6,165.8c-0.6,0-1,0.4-1,1s0.4,1,1,1
		s1-0.4,1-1S413.2,165.8,412.6,165.8z M412.6,167.5c-0.4,0-0.7-0.3-0.7-0.7s0.3-0.7,0.7-0.7s0.7,0.3,0.7,0.7S413,167.5,412.6,167.5
		L412.6,167.5z M391.9,180.4c-0.6,0-1,0.4-1,1s0.4,1,1,1s1-0.4,1-1S392.4,180.4,391.9,180.4z M391.9,182.1c-0.4,0-0.7-0.3-0.7-0.7
		c0-0.4,0.3-0.7,0.7-0.7c0.4,0,0.7,0.3,0.7,0.7c0,0,0,0,0,0C392.5,181.8,392.2,182.1,391.9,182.1L391.9,182.1z M402.3,180.4
		c-0.6,0-1,0.4-1,1s0.4,1,1,1s1-0.4,1-1S402.8,180.4,402.3,180.4C402.3,180.4,402.3,180.4,402.3,180.4L402.3,180.4z M402.3,182.1
		c-0.4,0-0.7-0.3-0.7-0.7s0.3-0.7,0.7-0.7s0.7,0.3,0.7,0.7S402.6,182.1,402.3,182.1L402.3,182.1z M412.6,180.4c-0.6,0-1,0.4-1,1
		s0.4,1,1,1s1-0.4,1-1S413.2,180.4,412.6,180.4C412.6,180.4,412.6,180.4,412.6,180.4L412.6,180.4z M412.6,182.1
		c-0.4,0-0.7-0.3-0.7-0.7s0.3-0.7,0.7-0.7s0.7,0.3,0.7,0.7S413,182.1,412.6,182.1L412.6,182.1z M423.1,182.1H423
		c-0.4,0-0.7-0.3-0.7-0.7c0-0.2,0.1-0.5,0.3-0.6c0-0.1-0.1-0.2-0.1-0.3c-0.3,0.2-0.5,0.5-0.5,0.9c0,0.6,0.4,1,1,1c0.1,0,0.2,0,0.2,0
		C423.2,182.3,423.2,182.2,423.1,182.1L423.1,182.1z M397.1,173.1c-0.6,0-1,0.4-1,1s0.4,1,1,1s1-0.4,1-1
		C398.1,173.6,397.6,173.1,397.1,173.1C397.1,173.1,397.1,173.1,397.1,173.1L397.1,173.1z M397.1,174.8c-0.4,0-0.7-0.3-0.7-0.7
		s0.3-0.7,0.7-0.7s0.7,0.3,0.7,0.7S397.4,174.8,397.1,174.8z M407.4,173.1c-0.6,0-1,0.4-1,1s0.4,1,1,1s1-0.4,1-1
		C408.4,173.6,408,173.1,407.4,173.1C407.4,173.1,407.4,173.1,407.4,173.1L407.4,173.1z M407.4,174.8c-0.4,0-0.7-0.3-0.7-0.7
		s0.3-0.7,0.7-0.7s0.7,0.3,0.7,0.7S407.8,174.8,407.4,174.8z M417.8,173.1c-0.6,0-1,0.4-1,1s0.4,1,1,1s1-0.4,1-1
		C418.8,173.6,418.4,173.1,417.8,173.1C417.8,173.1,417.8,173.1,417.8,173.1L417.8,173.1z M417.8,174.8c-0.4,0-0.7-0.3-0.7-0.7
		s0.3-0.7,0.7-0.7s0.7,0.3,0.7,0.7S418.2,174.8,417.8,174.8L417.8,174.8z M391.8,195c-0.6,0-1,0.4-1,1s0.4,1,1,1s1-0.4,1-1
		C392.8,195.4,392.4,195,391.8,195L391.8,195z M391.8,196.7c-0.4,0-0.6-0.4-0.6-0.8c0-0.3,0.3-0.6,0.6-0.6c0.4,0,0.7,0.2,0.8,0.6
		s-0.2,0.7-0.6,0.8C391.9,196.7,391.9,196.7,391.8,196.7z M402.3,195c-0.6,0-1,0.4-1,1s0.4,1,1,1s1-0.4,1-1S402.8,195,402.3,195z
		 M402.3,196.7c-0.4,0-0.7-0.2-0.8-0.6s0.2-0.7,0.6-0.8c0.1,0,0.1,0,0.2,0c0.4,0,0.6,0.4,0.6,0.8
		C402.8,196.4,402.6,196.7,402.3,196.7z M412.6,195c-0.6,0-1,0.4-1,1s0.4,1,1,1s1-0.4,1-1S413.2,195,412.6,195z M412.6,196.7
		c-0.4,0-0.7-0.2-0.8-0.6s0.2-0.7,0.6-0.8c0.1,0,0.1,0,0.2,0c0.4,0,0.6,0.4,0.6,0.8C413.2,196.4,413,196.7,412.6,196.7z M423,195
		c-0.6,0-1,0.4-1,1s0.4,1,1,1s1-0.4,1-1S423.6,195,423,195z M423,196.7c-0.4,0-0.6-0.4-0.6-0.8c0-0.3,0.3-0.6,0.6-0.6
		c0.4,0,0.7,0.2,0.8,0.6s-0.2,0.7-0.6,0.8C423.1,196.7,423.1,196.7,423,196.7z M387.3,188l-0.1,0.3c0.1,0.1,0.2,0.3,0.2,0.5
		c0,0.3-0.2,0.6-0.5,0.7c0,0.1-0.1,0.2-0.1,0.3c0.6,0,1-0.4,1-1C387.7,188.4,387.5,188.1,387.3,188L387.3,188z M397,187.7
		c-0.6,0-1,0.4-1,1s0.4,1,1,1s1-0.4,1-1C398,188.2,397.6,187.7,397,187.7C397.1,187.7,397.1,187.7,397,187.7L397,187.7z M397,189.4
		c-0.4,0-0.7-0.3-0.7-0.7c0-0.4,0.3-0.7,0.7-0.7c0.4,0,0.7,0.3,0.7,0.7c0,0,0,0,0,0C397.7,189.1,397.4,189.4,397,189.4L397,189.4z
		 M407.4,187.7c-0.6,0-1,0.4-1,1s0.4,1,1,1s1-0.4,1-1C408.4,188.2,408,187.7,407.4,187.7C407.4,187.7,407.4,187.7,407.4,187.7
		L407.4,187.7z M407.4,189.4c-0.4,0-0.7-0.3-0.7-0.7c0-0.4,0.3-0.7,0.7-0.7c0.4,0,0.7,0.3,0.7,0.7c0,0,0,0,0,0
		C408.1,189.1,407.8,189.4,407.4,189.4L407.4,189.4z M417.8,187.7c-0.6,0-1,0.4-1,1s0.4,1,1,1s1-0.4,1-1S418.4,187.7,417.8,187.7z
		 M417.8,189.4c-0.4,0-0.7-0.3-0.7-0.7c0-0.4,0.3-0.7,0.7-0.7c0.4,0,0.7,0.3,0.7,0.7c0,0,0,0,0,0
		C418.5,189.1,418.2,189.4,417.8,189.4L417.8,189.4z M381.5,209.6c-0.6,0-1,0.4-1,1s0.4,1,1,1s1-0.4,1-1
		C382.5,210,382,209.6,381.5,209.6C381.5,209.6,381.5,209.6,381.5,209.6L381.5,209.6z M381.5,211.3c-0.4,0-0.7-0.3-0.7-0.7
		s0.3-0.7,0.7-0.7s0.7,0.3,0.7,0.7S381.8,211.3,381.5,211.3L381.5,211.3z M391.8,209.6c-0.6,0-1,0.4-1,1s0.4,1,1,1s1-0.4,1-1
		C392.9,210,392.4,209.6,391.8,209.6C391.9,209.6,391.9,209.6,391.8,209.6L391.8,209.6z M391.8,211.3c-0.4,0-0.7-0.3-0.7-0.7
		s0.3-0.7,0.7-0.7s0.7,0.3,0.7,0.7S392.2,211.3,391.8,211.3z M402.2,209.6c-0.6,0-1,0.4-1,1s0.4,1,1,1s1-0.4,1-1
		C403.2,210,402.8,209.6,402.2,209.6C402.3,209.6,402.3,209.6,402.2,209.6L402.2,209.6z M402.2,211.3c-0.4,0-0.7-0.3-0.7-0.7
		s0.3-0.7,0.7-0.7s0.7,0.3,0.7,0.7S402.6,211.3,402.2,211.3z M412.6,209.6c-0.6,0-1,0.4-1,1s0.4,1,1,1s1-0.4,1-1
		C413.6,210,413.2,209.6,412.6,209.6C412.6,209.6,412.6,209.6,412.6,209.6L412.6,209.6z M412.6,211.3c-0.4,0-0.7-0.3-0.7-0.7
		s0.3-0.7,0.7-0.7s0.7,0.3,0.7,0.7S413,211.3,412.6,211.3z M423,209.6c-0.6,0-1,0.4-1,1s0.4,1,1,1s1-0.4,1-1
		C424,210,423.6,209.6,423,209.6C423,209.6,423,209.6,423,209.6L423,209.6z M423,211.3c-0.4,0-0.7-0.3-0.7-0.7s0.3-0.7,0.7-0.7
		s0.7,0.3,0.7,0.7S423.4,211.3,423,211.3L423,211.3z M386.7,202.3c-0.6,0-1,0.4-1,1s0.4,1,1,1s1-0.4,1-1
		C387.6,202.8,387.2,202.3,386.7,202.3L386.7,202.3z M386.7,204c-0.4,0-0.7-0.2-0.8-0.6s0.2-0.7,0.6-0.8c0.1,0,0.1,0,0.2,0
		c0.4,0,0.6,0.4,0.6,0.8C387.2,203.7,387,204,386.7,204z M397,202.3c-0.6,0-1,0.4-1,1s0.4,1,1,1s1-0.4,1-1S397.6,202.3,397,202.3z
		 M397,204c-0.4,0-0.6-0.4-0.6-0.8c0-0.3,0.3-0.6,0.6-0.6c0.4,0,0.7,0.2,0.8,0.6s-0.2,0.7-0.6,0.8C397.1,204,397.1,204,397,204z
		 M407.4,202.3c-0.6,0-1,0.4-1,1s0.4,1,1,1s1-0.4,1-1C408.4,202.8,408,202.3,407.4,202.3L407.4,202.3z M407.4,204
		c-0.4,0-0.6-0.4-0.6-0.8c0-0.3,0.3-0.6,0.6-0.6c0.4,0,0.7,0.2,0.8,0.6s-0.2,0.7-0.6,0.8C407.5,204,407.5,204,407.4,204z
		 M417.8,202.3c-0.6,0-1,0.4-1,1s0.4,1,1,1s1-0.4,1-1C418.8,202.8,418.4,202.3,417.8,202.3L417.8,202.3z M417.8,204
		c-0.4,0-0.6-0.4-0.6-0.8c0-0.3,0.3-0.6,0.6-0.6c0.4,0,0.7,0.2,0.8,0.6s-0.2,0.7-0.6,0.8C417.9,204,417.9,204,417.8,204z
		 M428.2,202.3c-0.6,0-1,0.4-1,1s0.4,1,1,1s1-0.4,1-1C429.2,202.8,428.8,202.3,428.2,202.3L428.2,202.3z M428.2,204
		c-0.4,0-0.7-0.2-0.8-0.6s0.2-0.7,0.6-0.8c0.1,0,0.1,0,0.2,0c0.4,0,0.6,0.4,0.6,0.8C428.8,203.7,428.5,204,428.2,204z M381.5,224.2
		c-0.6,0-1,0.4-1,1s0.4,1,1,1s1-0.4,1-1C382.4,224.6,382,224.2,381.5,224.2L381.5,224.2z M381.5,225.9c-0.4,0-0.7-0.3-0.7-0.7
		c0-0.4,0.3-0.7,0.7-0.7c0.4,0,0.7,0.3,0.7,0.7c0,0,0,0,0,0C382.1,225.5,381.8,225.9,381.5,225.9L381.5,225.9z M391.8,224.2
		c-0.6,0-1,0.4-1,1s0.4,1,1,1s1-0.4,1-1S392.4,224.2,391.8,224.2z M391.8,225.9c-0.4,0-0.7-0.3-0.7-0.7c0-0.4,0.3-0.7,0.7-0.7
		c0.4,0,0.7,0.3,0.7,0.7c0,0,0,0,0,0C392.5,225.5,392.2,225.9,391.8,225.9L391.8,225.9z M402.2,224.2c-0.6,0-1,0.4-1,1s0.4,1,1,1
		s1-0.4,1-1C403.2,224.6,402.8,224.2,402.2,224.2L402.2,224.2z M402.2,225.9c-0.4,0-0.7-0.3-0.7-0.7s0.3-0.7,0.7-0.7
		s0.7,0.3,0.7,0.7S402.6,225.9,402.2,225.9z M412.6,224.2c-0.6,0-1,0.4-1,1s0.4,1,1,1s1-0.4,1-1
		C413.6,224.6,413.2,224.2,412.6,224.2L412.6,224.2z M412.6,225.9c-0.4,0-0.7-0.3-0.7-0.7s0.3-0.7,0.7-0.7s0.7,0.3,0.7,0.7
		S413,225.9,412.6,225.9z M423,224.2c-0.6,0-1,0.4-1,1s0.4,1,1,1s1-0.4,1-1C424,224.6,423.5,224.2,423,224.2L423,224.2z M423,225.9
		c-0.4,0-0.7-0.3-0.7-0.7c0-0.4,0.3-0.7,0.7-0.7c0.4,0,0.7,0.3,0.7,0.7c0,0,0,0,0,0C423.7,225.6,423.4,225.9,423,225.9
		C423,225.9,423,225.9,423,225.9L423,225.9z M433.8,225.8c-0.1,0.1-0.2,0.1-0.4,0.1c-0.4,0-0.7-0.3-0.7-0.7s0.3-0.7,0.7-0.7h0.1
		c0-0.1,0-0.2,0-0.3h-0.1c-0.6,0-1,0.4-1,1s0.4,1,1,1c0.1,0,0.3,0,0.4-0.1L433.8,225.8z M386.7,216.9c-0.6,0-1,0.4-1,1s0.4,1,1,1
		s1-0.4,1-1C387.6,217.4,387.2,216.9,386.7,216.9L386.7,216.9z M386.7,218.6c-0.4,0-0.7-0.3-0.7-0.7s0.3-0.7,0.7-0.7
		s0.7,0.3,0.7,0.7S387,218.6,386.7,218.6z M397,216.9c-0.6,0-1,0.4-1,1s0.4,1,1,1s1-0.4,1-1C398,217.4,397.6,216.9,397,216.9
		L397,216.9z M397,218.6c-0.4,0-0.7-0.3-0.7-0.7s0.3-0.7,0.7-0.7s0.7,0.3,0.7,0.7S397.4,218.6,397,218.6z M407.4,216.9
		c-0.6,0-1,0.4-1,1s0.4,1,1,1s1-0.4,1-1C408.4,217.4,408,216.9,407.4,216.9L407.4,216.9z M407.4,218.6c-0.4,0-0.7-0.3-0.7-0.7
		s0.3-0.7,0.7-0.7s0.7,0.3,0.7,0.7S407.8,218.6,407.4,218.6z M417.8,216.9c-0.6,0-1,0.4-1,1s0.4,1,1,1s1-0.4,1-1
		C418.8,217.4,418.4,216.9,417.8,216.9L417.8,216.9z M417.8,218.6c-0.4,0-0.7-0.3-0.7-0.7s0.3-0.7,0.7-0.7s0.7,0.3,0.7,0.7
		S418.2,218.6,417.8,218.6L417.8,218.6z M428.2,216.9c-0.6,0-1,0.4-1,1s0.4,1,1,1s1-0.4,1-1C429.2,217.4,428.8,216.9,428.2,216.9
		L428.2,216.9z M428.2,218.6c-0.4,0-0.7-0.3-0.7-0.7s0.3-0.7,0.7-0.7l0,0c0.4,0,0.7,0.3,0.7,0.7S428.6,218.6,428.2,218.6z
		 M371.5,238.9c0,0.1-0.1,0.2-0.1,0.3c0.2,0.1,0.3,0.4,0.3,0.6c0,0.4-0.3,0.7-0.6,0.7c0,0.1,0,0.2,0,0.3c0.6,0,1-0.4,1-1
		C372.1,239.4,371.8,239,371.5,238.9L371.5,238.9z M381.5,238.8c-0.6,0-1,0.4-1,1s0.4,1,1,1s1-0.4,1-1
		C382.5,239.2,382,238.8,381.5,238.8C381.5,238.8,381.5,238.8,381.5,238.8L381.5,238.8z M381.5,240.5c-0.4,0-0.7-0.3-0.7-0.7
		c0-0.4,0.2-0.7,0.6-0.8c0.4,0,0.7,0.2,0.8,0.6c0,0.1,0,0.1,0,0.2C382.2,240.2,381.9,240.5,381.5,240.5
		C381.5,240.5,381.5,240.5,381.5,240.5L381.5,240.5z M391.9,238.8c-0.6,0-1,0.4-1,1s0.4,1,1,1s1-0.4,1-1
		C392.9,239.2,392.4,238.8,391.9,238.8C391.9,238.8,391.9,238.8,391.9,238.8L391.9,238.8z M391.9,240.5c-0.4,0-0.7-0.3-0.7-0.7
		c0-0.4,0.2-0.7,0.6-0.8c0.4,0,0.7,0.2,0.8,0.6c0,0.1,0,0.1,0,0.2C392.6,240.2,392.3,240.5,391.9,240.5
		C391.9,240.5,391.9,240.5,391.9,240.5L391.9,240.5z M402.3,238.8c-0.6,0-1,0.4-1,1s0.4,1,1,1s1-0.4,1-1
		C403.3,239.2,402.8,238.8,402.3,238.8C402.3,238.8,402.3,238.8,402.3,238.8L402.3,238.8z M402.3,240.5c-0.4,0-0.7-0.3-0.7-0.7
		c0-0.4,0.3-0.7,0.7-0.7l0,0c0.4,0,0.7,0.3,0.7,0.7c0,0,0,0,0,0C403,240.1,402.7,240.5,402.3,240.5
		C402.3,240.5,402.3,240.5,402.3,240.5L402.3,240.5z M412.7,238.8c-0.6,0-1,0.4-1,1s0.4,1,1,1s1-0.4,1-1
		C413.6,239.2,413.2,238.8,412.7,238.8C412.6,238.8,412.6,238.8,412.7,238.8L412.7,238.8z M412.7,240.5c-0.4,0-0.7-0.3-0.7-0.7
		c0-0.4,0.3-0.7,0.7-0.7l0,0c0.4,0,0.7,0.3,0.7,0.7c0,0,0,0,0,0C413.4,240.1,413.1,240.5,412.7,240.5
		C412.7,240.5,412.7,240.5,412.7,240.5L412.7,240.5z M423,238.8c-0.6,0-1,0.4-1,1s0.4,1,1,1s1-0.4,1-1S423.6,238.8,423,238.8z
		 M423,240.5c-0.4,0-0.7-0.3-0.7-0.7c0-0.4,0.2-0.7,0.6-0.8c0.4,0,0.7,0.2,0.8,0.6c0,0.1,0,0.1,0,0.2
		C423.7,240.2,423.4,240.5,423,240.5C423,240.5,423,240.5,423,240.5L423,240.5z M433.4,238.8c-0.6,0-1,0.4-1,1s0.4,1,1,1s1-0.4,1-1
		C434.4,239.2,434,238.8,433.4,238.8C433.4,238.8,433.4,238.8,433.4,238.8L433.4,238.8z M433.4,240.5c-0.4,0-0.7-0.3-0.7-0.7
		c0-0.4,0.2-0.7,0.6-0.8c0.4,0,0.7,0.2,0.8,0.6c0,0.1,0,0.1,0,0.2C434.1,240.2,433.8,240.5,433.4,240.5
		C433.4,240.5,433.4,240.5,433.4,240.5L433.4,240.5z M376.3,231.5c-0.6,0-1,0.4-1,1s0.4,1,1,1s1-0.4,1-1
		C377.3,231.9,376.8,231.5,376.3,231.5L376.3,231.5z M376.3,233.2c-0.4,0-0.7-0.3-0.7-0.7s0.3-0.7,0.7-0.7s0.7,0.3,0.7,0.7
		S376.7,233.2,376.3,233.2L376.3,233.2z M386.7,231.5c-0.6,0-1,0.4-1,1s0.4,1,1,1s1-0.4,1-1C387.7,231.9,387.2,231.5,386.7,231.5
		L386.7,231.5z M386.7,233.2c-0.4,0-0.7-0.3-0.7-0.7s0.3-0.7,0.7-0.7s0.7,0.3,0.7,0.7S387.1,233.2,386.7,233.2z M397.1,231.5
		c-0.6,0-1,0.4-1,1s0.4,1,1,1s1-0.4,1-1C398,231.9,397.6,231.5,397.1,231.5L397.1,231.5z M397.1,233.2c-0.4,0-0.7-0.3-0.7-0.7
		c0-0.4,0.3-0.7,0.7-0.7c0.4,0,0.7,0.3,0.7,0.7c0,0,0,0,0,0C397.8,232.9,397.5,233.2,397.1,233.2
		C397.1,233.2,397.1,233.2,397.1,233.2L397.1,233.2z M407.5,231.5c-0.6,0-1,0.4-1,1s0.4,1,1,1s1-0.4,1-1
		C408.4,231.9,408,231.5,407.5,231.5L407.5,231.5z M407.5,233.2c-0.4,0-0.7-0.3-0.7-0.7c0-0.4,0.3-0.7,0.7-0.7
		c0.4,0,0.7,0.3,0.7,0.7c0,0,0,0,0,0C408.2,232.9,407.9,233.2,407.5,233.2C407.5,233.2,407.5,233.2,407.5,233.2L407.5,233.2z
		 M417.9,231.5c-0.6,0-1,0.4-1,1s0.4,1,1,1s1-0.4,1-1S418.4,231.5,417.9,231.5z M417.9,233.2c-0.4,0-0.7-0.3-0.7-0.7
		c0-0.4,0.3-0.7,0.7-0.7c0.4,0,0.7,0.3,0.7,0.7c0,0,0,0,0,0C418.6,232.9,418.3,233.2,417.9,233.2
		C417.9,233.2,417.9,233.2,417.9,233.2L417.9,233.2z M428.2,231.5c-0.6,0-1,0.4-1,1s0.4,1,1,1s1-0.4,1-1
		C429.2,231.9,428.8,231.5,428.2,231.5L428.2,231.5z M428.2,233.2c-0.4,0-0.7-0.3-0.7-0.7s0.3-0.7,0.7-0.7s0.7,0.3,0.7,0.7
		S428.6,233.2,428.2,233.2L428.2,233.2z"/>
	<path class="st11" d="M421.5,171.4c17.2,19,36.7,51.1,28.4,58c-7.6,6.3-35.3,0.3-52.7-6.5c-3.3-1.3,10.1-30.6,13.5-28.9
		c3.6,1.9,7.2,3.6,11,5c1,0.3-4.3-6.1-10.1-21.5C405.6,161.7,411.7,160.5,421.5,171.4z"/>
	<path class="st11" d="M368.3,191.7c0,3.4,8.4,2.7,8.4,2.7c-1.2,0.8-2.1,2-2.6,3.4c-0.6,2.5,3,4.6,3,4.6c-1.1,1.1-1.8,2.5-2.1,4
		c-0.4,2.5,3,5.1,3,5.1c-0.5,1.6-0.3,3.2,0.4,4.7c2,3.9,8.7,4,12.9,4.8c4.6,1.1,9.2,2.5,13.6,4.3l7.8-30.5c0,0-18-10.7-23-10.5
		C385.4,184.7,368.3,186.5,368.3,191.7z"/>
	<path class="st5" d="M376.8,194.4c4.5-1.3,9.2-1.5,13.8-1.7c0,0,0.1,0,0.1,0.1s0,0.1-0.1,0.1c-4.6,0.1-9.2,1.4-13.8,1.8
		C376.7,194.6,376.6,194.4,376.8,194.4z"/>
	<path class="st5" d="M377.3,202.2c1-0.2,2.1-0.2,3.2-0.2c1.1,0,2.2,0.1,3.4,0.1c2.2,0.1,4.5,0.3,6.7,0.5c0.1,0,0.1,0.2,0,0.2
		c-2.2-0.1-4.5-0.2-6.7-0.2c-1.1,0-2.2,0-3.4,0c-1.1,0.1-2.1,0-3.2-0.1C377.2,202.4,377.2,202.3,377.3,202.2
		C377.2,202.2,377.3,202.2,377.3,202.2z"/>
	<path class="st5" d="M378.2,211.7c0.9-0.2,1.9-0.2,2.9,0c1,0.1,2,0.1,3.1,0.2c2,0.1,4.1,0.2,6.1,0.3c0,0,0.1,0,0.1,0.1
		s0,0.1-0.1,0.1c-2.1,0-4.1,0-6.2-0.1c-1,0-2,0-3.1-0.1c-0.9,0.1-1.9-0.1-2.8-0.3C378.1,211.8,378.1,211.7,378.2,211.7
		C378.1,211.7,378.1,211.7,378.2,211.7z"/>
	<path class="st6" d="M413.5,194.6l-6.6,33c0,0,41.3,10.8,45.5,0.3s-20-49.2-34-60.3s-8.7,6.4-8.3,7.8c1.9,6.2,10.7,22.3,10.7,22.3
		L413.5,194.6z"/>
	<path class="st12" d="M412.6,165.8c-0.6,0-1,0.4-1,1s0.4,1,1,1s1-0.4,1-1S413.2,165.8,412.6,165.8z M412.6,167.5
		c-0.4,0-0.7-0.3-0.7-0.7s0.3-0.7,0.7-0.7s0.7,0.3,0.7,0.7S413,167.5,412.6,167.5L412.6,167.5z M412.6,180.4c-0.2,0-0.4,0.1-0.5,0.2
		c0,0.1,0.1,0.2,0.1,0.3c0.1-0.1,0.3-0.1,0.4-0.1c0.4,0,0.7,0.3,0.7,0.7c0,0,0,0,0,0c0,0.3-0.2,0.6-0.5,0.7c0,0.1,0.1,0.2,0.1,0.3
		c0.4-0.1,0.7-0.5,0.7-0.9C413.7,180.8,413.2,180.4,412.6,180.4C412.7,180.4,412.7,180.4,412.6,180.4L412.6,180.4z M423,180.4
		c-0.6,0-1,0.4-1,1s0.4,1,1,1s1-0.4,1-1C424,180.8,423.6,180.4,423,180.4C423,180.4,423,180.4,423,180.4L423,180.4z M423,182.1
		c-0.4,0-0.7-0.3-0.7-0.7c0-0.4,0.3-0.7,0.7-0.7c0.4,0,0.7,0.3,0.7,0.7c0,0,0,0,0,0C423.7,181.8,423.4,182.1,423,182.1
		C423,182.1,423,182.1,423,182.1L423,182.1z M417.8,173.1c-0.6,0-1,0.4-1,1s0.4,1,1,1s1-0.4,1-1S418.4,173.1,417.8,173.1
		C417.8,173.1,417.8,173.1,417.8,173.1L417.8,173.1z M417.8,174.8c-0.4,0-0.7-0.3-0.7-0.7s0.3-0.7,0.7-0.7s0.7,0.3,0.7,0.7
		S418.2,174.8,417.8,174.8L417.8,174.8z M413.3,195.2l-0.1,0.4c0,0.1,0.1,0.2,0.1,0.3c0,0.2-0.1,0.4-0.2,0.5l-0.1,0.4
		c0.5-0.2,0.8-0.8,0.6-1.3C413.5,195.5,413.4,195.3,413.3,195.2L413.3,195.2z M423,195c-0.6,0-1,0.4-1,1s0.4,1,1,1s1-0.4,1-1
		S423.6,195,423,195z M423,196.7c-0.4,0-0.6-0.4-0.6-0.8c0-0.3,0.3-0.6,0.6-0.6c0.4,0,0.7,0.2,0.8,0.6s-0.2,0.7-0.6,0.8
		C423.1,196.7,423.1,196.7,423,196.7z M433.4,195c-0.6,0-1,0.4-1,1s0.4,1,1,1s1-0.4,1-1S434,195,433.4,195z M433.4,196.7
		c-0.4,0-0.6-0.4-0.6-0.8c0-0.3,0.3-0.6,0.6-0.6c0.4,0,0.7,0.2,0.8,0.6s-0.2,0.7-0.6,0.8C433.5,196.7,433.5,196.7,433.4,196.7z
		 M417.8,187.7c-0.6,0-1,0.4-1,1s0.4,1,1,1s1-0.4,1-1S418.4,187.7,417.8,187.7z M417.8,189.4c-0.4,0-0.7-0.3-0.7-0.7
		c0-0.4,0.3-0.7,0.7-0.7c0.4,0,0.7,0.3,0.7,0.7c0,0,0,0,0,0C418.5,189.1,418.2,189.4,417.8,189.4L417.8,189.4z M428.2,187.7
		c-0.6,0-1,0.4-1,1s0.4,1,1,1s1-0.4,1-1C429.2,188.2,428.8,187.7,428.2,187.7C428.2,187.7,428.2,187.7,428.2,187.7L428.2,187.7z
		 M428.2,189.4c-0.4,0-0.7-0.3-0.7-0.7s0.3-0.7,0.7-0.7l0,0c0.4,0,0.7,0.3,0.7,0.7S428.6,189.4,428.2,189.4z M412.6,209.6
		c-0.6,0-1,0.4-1,1s0.4,1,1,1s1-0.4,1-1C413.7,210,413.2,209.6,412.6,209.6C412.7,209.6,412.7,209.6,412.6,209.6L412.6,209.6z
		 M412.6,211.3c-0.4,0-0.7-0.3-0.7-0.7s0.3-0.7,0.7-0.7s0.7,0.3,0.7,0.7S413,211.3,412.6,211.3L412.6,211.3z M423,209.6
		c-0.6,0-1,0.4-1,1s0.4,1,1,1s1-0.4,1-1C424,210,423.6,209.6,423,209.6C423,209.6,423,209.6,423,209.6L423,209.6z M423,211.3
		c-0.4,0-0.7-0.3-0.7-0.7s0.3-0.7,0.7-0.7s0.7,0.3,0.7,0.7S423.4,211.3,423,211.3L423,211.3z M433.4,209.6c-0.6,0-1,0.4-1,1
		s0.4,1,1,1s1-0.4,1-1C434.4,210,434,209.6,433.4,209.6C433.4,209.6,433.4,209.6,433.4,209.6L433.4,209.6z M433.4,211.3
		c-0.4,0-0.7-0.3-0.7-0.7s0.3-0.7,0.7-0.7s0.7,0.3,0.7,0.7S433.8,211.3,433.4,211.3z M443.8,209.6c-0.6,0-1,0.4-1,1s0.4,1,1,1
		s1-0.4,1-1C444.8,210,444.4,209.6,443.8,209.6C443.8,209.6,443.8,209.6,443.8,209.6L443.8,209.6z M443.8,211.3
		c-0.4,0-0.7-0.3-0.7-0.7s0.3-0.7,0.7-0.7s0.7,0.3,0.7,0.7S444.2,211.3,443.8,211.3z M417.8,202.3c-0.6,0-1,0.4-1,1s0.4,1,1,1
		s1-0.4,1-1C418.8,202.8,418.4,202.3,417.8,202.3L417.8,202.3z M417.8,204c-0.4,0-0.6-0.4-0.6-0.8c0-0.3,0.3-0.6,0.6-0.6
		c0.4,0,0.7,0.2,0.8,0.6s-0.2,0.7-0.6,0.8C417.9,204,417.9,204,417.8,204z M428.2,202.3c-0.6,0-1,0.4-1,1s0.4,1,1,1s1-0.4,1-1
		C429.2,202.8,428.8,202.3,428.2,202.3L428.2,202.3z M428.2,204c-0.4,0-0.7-0.2-0.8-0.6s0.2-0.7,0.6-0.8c0.1,0,0.1,0,0.2,0
		c0.4,0,0.6,0.4,0.6,0.8C428.8,203.7,428.5,204,428.2,204z M438.6,202.3c-0.6,0-1,0.4-1,1s0.4,1,1,1s1-0.4,1-1
		C439.6,202.8,439.1,202.3,438.6,202.3L438.6,202.3z M438.6,204c-0.4,0-0.7-0.2-0.8-0.6s0.2-0.7,0.6-0.8c0.1,0,0.1,0,0.2,0
		c0.4,0,0.6,0.4,0.6,0.8C439.1,203.7,438.9,204,438.6,204z M412.6,224.2c-0.6,0-1,0.4-1,1s0.4,1,1,1s1-0.4,1-1
		C413.6,224.6,413.2,224.2,412.6,224.2L412.6,224.2z M412.6,225.9c-0.4,0-0.7-0.3-0.7-0.7s0.3-0.7,0.7-0.7s0.7,0.3,0.7,0.7
		S413,225.9,412.6,225.9z M423,224.2c-0.6,0-1,0.4-1,1s0.4,1,1,1s1-0.4,1-1C423.9,224.6,423.5,224.2,423,224.2L423,224.2z
		 M423,225.9c-0.4,0-0.7-0.3-0.7-0.7c0-0.4,0.3-0.7,0.7-0.7c0.4,0,0.7,0.3,0.7,0.7c0,0,0,0,0,0C423.7,225.5,423.4,225.8,423,225.9
		L423,225.9z M433.4,224.2c-0.6,0-1,0.4-1,1s0.4,1,1,1s1-0.4,1-1C434.3,224.6,433.9,224.2,433.4,224.2L433.4,224.2z M433.4,225.9
		c-0.4,0-0.7-0.3-0.7-0.7c0-0.4,0.3-0.7,0.7-0.7c0.4,0,0.7,0.3,0.7,0.7c0,0,0,0,0,0C434,225.5,433.8,225.8,433.4,225.9L433.4,225.9z
		 M443.7,224.2c-0.6,0-1,0.4-1,1s0.4,1,1,1s1-0.4,1-1S444.3,224.2,443.7,224.2z M443.7,225.9c-0.4,0-0.7-0.3-0.7-0.7
		c0-0.4,0.3-0.7,0.7-0.7c0.4,0,0.7,0.3,0.7,0.7c0,0,0,0,0,0C444.4,225.5,444.2,225.8,443.7,225.9L443.7,225.9z M417.7,216.9
		c-0.6,0-1,0.4-1,1s0.4,1,1,1s1-0.4,1-1C418.7,217.4,418.3,217,417.7,216.9L417.7,216.9z M417.7,218.6c-0.4,0-0.7-0.3-0.7-0.7
		s0.3-0.7,0.7-0.7s0.7,0.3,0.7,0.7S418.1,218.6,417.7,218.6z M428.1,216.9c-0.6,0-1,0.4-1,1s0.4,1,1,1s1-0.4,1-1
		C429.1,217.4,428.7,217,428.1,216.9L428.1,216.9z M428.1,218.6c-0.4,0-0.7-0.3-0.7-0.7s0.3-0.7,0.7-0.7s0.7,0.3,0.7,0.7
		S428.5,218.6,428.1,218.6L428.1,218.6z M438.5,216.9c-0.6,0-1,0.4-1,1s0.4,1,1,1s1-0.4,1-1C439.5,217.4,439.1,217,438.5,216.9
		L438.5,216.9z M438.5,218.6c-0.4,0-0.7-0.3-0.7-0.7s0.3-0.7,0.7-0.7s0.7,0.3,0.7,0.7S438.9,218.6,438.5,218.6z M448.9,216.9
		c-0.6,0-1,0.4-1,1s0.4,1,1,1s1-0.4,1-1C449.9,217.4,449.5,217,448.9,216.9L448.9,216.9z M448.9,218.6c-0.4,0-0.7-0.3-0.7-0.7
		s0.3-0.7,0.7-0.7s0.7,0.3,0.7,0.7S449.3,218.6,448.9,218.6z M428.1,231.4c-0.1,0-0.3,0-0.4,0.1l1.1,0.1
		C428.6,231.6,428.4,231.5,428.1,231.4L428.1,231.4z M438.5,231.4c-0.5,0-1,0.4-1,0.9h0.3c0-0.3,0.3-0.6,0.7-0.6
		c0.3,0,0.6,0.3,0.7,0.6h0.3C439.4,231.9,439.1,231.6,438.5,231.4L438.5,231.4z"/>
	<path class="st5" d="M414.2,194.6c4.7,1.7,17.2,7.9,19.9,10.4c0.1,0.1,0,0.2-0.1,0.1c-2.7-1.9-18-9.4-20.4-10.3
		c0,0.1-0.1,0.3-0.2,0.4c-0.1,0.1-0.1,0.1-0.1-0.1c0-0.3,0.1-0.5,0.2-0.8L414.2,194.6z"/>
	<path class="st5" d="M417.7,213.1c0.4-2.3,2.2-11.5,2.4-13.8c0,0-0.1-0.1-0.1,0c-0.7,2.2-2.6,11.2-3.1,13.5
		c-1,4.6-1.8,9.2-2.3,13.9c0,0.1,0.1,0.1,0.1,0C416.1,222.2,416.8,217.6,417.7,213.1z"/>
	<path class="st5" d="M421.1,197.9c-1.3-2.8-2.9-5.5-4.3-8.2s-2.9-5.4-4.2-8.2c0,0-0.1,0-0.1,0c0.8,1.9,1.6,3.8,2.5,5.6
		c-0.3-0.3-0.5-0.6-0.8-0.9c-0.4-0.6-0.8-1.1-1.2-1.8 M413,184.4c0.3,0.7,0.7,1.3,1.1,1.9c0.3,0.4,0.7,0.8,1.1,1.2
		c0.4,0.8,0.7,1.5,1.1,2.3c1.2,2.8,2.7,5.5,4.3,8.1c0.1,0.2,0.5,0.2,0.5,0.1L413,184.4z"/>
	<path class="st5" d="M434.8,232.2c-4.9-0.1-23.3-3.7-27.8-4.6c0.1-0.5,0-0.6,0.1-1.3c0-0.1-0.1-0.1-0.1,0c-0.1,0.6-0.6,1.9-0.4,2
		c2.2,0.9,23.4,4.6,28.2,4.2c0.1,0,0.1-0.1,0.1-0.1S434.9,232.2,434.8,232.2L434.8,232.2z"/>
	<polygon class="st5" points="385.3,228.9 351,233.5 338,185.9 372.3,181.3 	"/>
	<polygon class="st7" points="383.6,229.1 349.4,233.7 336.4,186.1 370.6,181.5 	"/>
	<path class="st2" d="M355.2,206.1c0.4,1.8,2.2,3.1,4.1,2.8c1.6-0.2,2.8-1.6,2.7-3.3c0-0.1,0-0.3-0.1-0.4c-0.4-1.8-2.2-3.1-4.1-2.8
		c-1.6,0.2-2.8,1.6-2.7,3.3C355.1,205.8,355.2,206,355.2,206.1z"/>
	<path class="st11" d="M336.7,195.9c-1.4,4-5.5,9.2-5.6,12.4c-0.1,1.6,0.9,3.1,2.4,3.6c0,0-3,1.9-2.5,4.7c0.2,1.5,2.8,2.4,2.8,2.4
		c-1.3,0.9-2,2.5-1.8,4.1c0.4,2,2.9,2.7,2.9,2.7s-1.5,2.6-0.4,4.5c2.2,3.9,19.8,2.1,21.9-4.7c1-3.1-3.3-2.5-3.3-2.5s5.9-2.4,5.6-6.1
		s-5.8-2.4-5.8-2.4s5.7-2.4,5-6.2c-0.7-3.9-6-1.8-6-1.8s3.6-3,2.5-5.8c-1.9-4.5-8.7,2.1-12.7,1.6l-2.8-6.2L336.7,195.9z"/>
	<path class="st11" d="M333.7,201.9c1-3.9-4.1-8.1-3.7-12c0.6-5.2,6.9-0.8,8.9,6.5l0.6,6L333.7,201.9z"/>
	<path class="st5" d="M335.3,226.2c6.2,0.9,12.4-0.2,18-2.9c0.2-0.1,0.1-0.4-0.1-0.4C347.4,224.8,341.4,225.9,335.3,226.2
		L335.3,226.2z"/>
	<path class="st5" d="M333.7,219.1C333.6,219.2,333.6,219.2,333.7,219.1c0,0.1,0,0.1,0,0.1c6.8,0.9,13.7-0.7,19.5-4.4
		c0.2-0.1,0.2-0.4,0-0.3C349.1,216.9,339.4,219.1,333.7,219.1z"/>
	<path class="st5" d="M352.3,206.4c-5.7,3.6-11.9,5-18.5,5.6c-0.1,0-0.1,0.1,0,0.1c3.3,0.6,7.5-0.2,10.7-1.1c3-0.8,5.7-2.3,8-4.5
		C352.5,206.5,352.4,206.3,352.3,206.4z"/>
	<path class="st5" d="M395.7,167.8C395.7,167.8,395.7,167.8,395.7,167.8c0.1,2.9,0.5,9.8,5,9c1.8-0.5,3.5-1.5,4.8-2.9
		c1.3-1.3,2.5-2.7,3.6-4.3c1.2-1.7,2.3-3.5,3.2-5.4c0-0.1,0.2,0,0.1,0.1c-0.9,1.9-1.7,3.8-2.8,5.6c-1.1,1.7-2.4,3.3-3.9,4.8
		c-1.4,1.4-3.1,2.4-5.1,2.9c-1.8,0.2-3.4-0.8-4-2.5C395.8,172.7,395.4,170.2,395.7,167.8z"/>
	<path class="st11" d="M400.2,173.6c3.3,0,8.3-6.6,9.6-11c0.1-0.3-1-3-2.1-6.5c-0.7-2.1-1.4-4.4-1.8-6.6l-12.8,6.3
		c1.4,2.5,2.4,5.2,3.2,8c0.1,0.3,0.1,0.6,0.1,0.9c0,0,0,0.1,0,0.1C396.4,166.8,397,173.6,400.2,173.6z"/>
	<path class="st5" d="M396.3,164.9c0,0,0,0.1,0,0.1c0.5,0,0.9-0.1,1.4-0.2c7.8-1.9,7.5-11.9,7.3-14.7l-3.2,1.6l-8.8,4.3
		c1.4,2.5,2.4,5.2,3.1,8C396.3,164.2,396.3,164.5,396.3,164.9z"/>
	<path class="st11" d="M405,134.4c2.4,4.6,2.7,19-0.2,22.8c-4.1,5.5-12.2,7.6-17.2,2.3c-4.9-5.1-4.8-23.9-1.5-27.5
		C390.9,126.7,401.4,127.7,405,134.4z"/>
	<path class="st5" d="M393.3,146.2C393.3,146.2,393.4,146.3,393.3,146.2c0.1,1.1,0.2,2.2,1.1,2.5c0,0,0,0.1,0,0.1
		C393.3,148.6,393.1,147.1,393.3,146.2z"/>
	<path class="st5" d="M394.2,145.2c1.6-0.1,1.8,3,0.3,3.1S392.8,145.3,394.2,145.2z"/>
	<path class="st5" d="M387.8,146.4C387.8,146.4,387.7,146.4,387.8,146.4c0,1.1-0.1,2.2-0.9,2.6 M386.9,149c1.1-0.2,1.1-1.7,0.9-2.6
		L386.9,149z"/>
	<path class="st5" d="M386.8,145.4c-1.6,0-1.5,3.1,0,3.1S388.2,145.4,386.8,145.4z"/>
	<path class="st5" d="M395.3,143.7c-0.4-0.1-0.8-0.2-1.2-0.4c-0.5-0.1-0.9-0.3-1.2-0.6c-0.2-0.3-0.1-0.6,0.1-0.8
		c0.5-0.4,1.1-0.5,1.6-0.3c0.6,0.1,1.1,0.5,1.5,1c0.2,0.4,0,0.8-0.3,1C395.6,143.7,395.5,143.7,395.3,143.7z"/>
	<path class="st5" d="M385.7,144.7c0.4-0.1,0.8-0.3,1.2-0.4c0.5-0.1,0.9-0.3,1.2-0.6c0.2-0.3,0.1-0.6-0.1-0.8
		c-0.5-0.4-1.1-0.4-1.7-0.2c-0.6,0.1-1.1,0.5-1.4,1c-0.2,0.3-0.1,0.8,0.2,1C385.3,144.7,385.5,144.7,385.7,144.7z"/>
	<path class="st5" d="M395.1,154.8c-0.2,0.2-0.4,0.6-0.8,0.6c-0.4,0-0.7,0-1.1-0.2 M393.3,155.3c0.3,0.4,0.8,0.5,1.3,0.4
		c0.4-0.1,0.7-0.5,0.7-0.9c0-0.1-0.1-0.1-0.1,0L393.3,155.3z"/>
	<path class="st5" d="M393.9,151.9c-0.5,0.8-1.2,1.4-2.1,1.6c-0.4,0.1-0.8,0.1-1.2,0.1c-0.1,0-0.3,0-0.5,0c-0.1,0-0.2-0.1-0.2-0.2
		l0,0c0,0,0-0.1,0-0.1l0,0v-0.1c-0.1-0.8-0.1-1.9-0.1-1.9c-0.3,0.1-1.6,0.9-1.6,0.5c-0.1-3.4,0.1-6.8,0.7-10.1c0,0,0-0.1,0.1-0.1
		c0,0,0.1,0,0.1,0.1c0.1,3.1-0.3,6.3-0.2,9.4c0.5-0.3,1-0.5,1.5-0.6c0.1,0,0,2.2,0,2.6l0,0c1.2,0.1,2.5-0.4,3.4-1.3
		C393.9,151.8,394,151.9,393.9,151.9z"/>
	<path class="st5" d="M407.6,147c0,0,2.1-9.6,0.1-14c-0.9-2-4.2-2.4-4.2-2.4c-0.2-1.9-1.3-3.5-3.1-4.2c-3.2-1.5-9,1.1-9,1.1
		s-5.7-4.3-10.4-0.2s1,9,1,9s-1,3.5,4.6,4.1c5.5,0.6,14.5-4.9,14.5-4.9c0.7,3.5,1.9,6.9,3.6,10C405.2,146.5,406.4,147.1,407.6,147z"
		/>
	<path class="st5" d="M390.5,127.8c1-0.9,2.3-1.6,3.6-2c1.2-0.4,2.4-0.6,3.6-0.6c2.2-0.1,4.3,1,5.5,2.9c0.5,1,0.6,2.2,0.3,3.3
		c0,0-0.1,0-0.1,0c0.7-2-0.8-4.2-2.5-5c-2.1-0.8-4.4-0.9-6.5-0.2c-1.4,0.4-2.7,1-3.9,1.8c0,0-0.1,0-0.1-0.1
		C390.4,127.9,390.5,127.8,390.5,127.8L390.5,127.8z"/>
	<path class="st5" d="M378,131.1c0-1.6,0.8-3.2,2.2-4.1c1.5-1.1,3.3-1.6,5.2-1.6c1.9,0.1,3.7,0.7,5.3,1.7c0,0,0,0.1,0,0.1
		c-2.9-1.8-6.5-1.9-9.5-0.3c-1.4,0.7-2.4,2-2.7,3.6c-0.1,1.5,0.4,3,1.5,4c1.3,1.2,2.9,2,4.7,2.3v0.1c-1.6-0.2-3.2-0.8-4.5-1.8
		C378.9,134.2,378.1,132.7,378,131.1z"/>
	<path class="st5" d="M385.5,140.9c2.5,0.1,4.9-0.2,7.3-1.1c2.4-0.9,4.7-2,6.9-3.4c1.3-0.8,2.5-1.6,3.7-2.5c0,0,0.1,0,0,0.1
		c-2,1.8-4.2,3.4-6.6,4.8c-2.2,1.2-4.6,2-7.1,2.4C388.2,141.2,386.8,141.2,385.5,140.9L385.5,140.9z"/>
	<path class="st11" d="M404.3,146.4c0,0,2.4-5.1,4.6-4.3s1,7.8-1.2,9.1c-1.1,0.8-2.7,0.5-3.5-0.6c0,0,0-0.1-0.1-0.1L404.3,146.4z"/>
	<path class="st5" d="M408.5,144C408.5,144,408.5,144.1,408.5,144c-1.4,1.1-2.3,2.7-2.5,4.5c0.2-0.7,1-1.1,1.7-0.9
		c0.1,0,0.2,0.1,0.3,0.1c0,0,0,0.1,0,0.1c-0.6-0.1-1.3,0.2-1.6,0.8c-0.2,0.5-0.4,1-0.6,1.5c0,0.2-0.3,0.1-0.3-0.1l0,0
		C405.1,148,406.2,144.7,408.5,144z"/>
	<path class="st2" d="M396.3,164.8l4.6,7.6l8.4-11.9l3.4,2.8c0,0-7.1,17.9-7.3,17.1l-4.5-6.4l-4,5.6l-1.6-12.2L396.3,164.8z"/>
	<path class="st5" d="M395.6,173.6c-0.2-2-0.5-4.1-0.6-6.1c0-0.1,0.1-0.1,0.1,0c0.7,1.9,1.5,9.6,1.8,11.5l0,0c0.2-0.2,3.8-5,3.8-4.9
		c0.9,1,4.2,5.6,4.4,6.1c1.1-2.8,5.5-13.2,7-16c0,0,0.1-0.1,0.1,0c0,0,0,0,0,0c-0.9,3-6.7,16.9-6.8,16.9c-1.7-2.2-3.3-4.4-4.7-6.8
		c-0.6,1-4.1,6.3-4.2,6C396.2,178.1,395.8,175.8,395.6,173.6z"/>
</g>
<g id="freepik--speech-bubble--inject-34">
	<path class="st2" d="M457.7,112.5c-1.2,11.9-11.9,20.6-23.9,19.4c-4.6-0.5-9-2.5-12.5-5.6l-10.9,1.6l5.4-9.4
		c-4.5-11.1,0.8-23.8,11.9-28.3c11.1-4.5,23.8,0.8,28.3,11.9C457.5,105.4,458,109,457.7,112.5z"/>
	<path class="st5" d="M457.7,112.5c-0.4,4-1.9,7.8-4.4,11c-0.6,0.8-1.3,1.6-2,2.3c-0.7,0.7-1.5,1.4-2.3,2c-3.2,2.4-7.1,3.9-11.1,4.3
		c-1,0.1-2,0.1-3,0.1c-1,0-2-0.1-3-0.3c-4-0.7-7.7-2.6-10.8-5.3l0.3,0.1l-10.9,1.7l-0.8,0.1l0.4-0.7l5.4-9.4v0.4
		c-2.6-6.3-2.1-13.5,1.3-19.4c1.7-2.9,4-5.4,6.8-7.3c10.1-6.7,23.8-3.9,30.5,6.3C456.9,102.5,458.2,107.5,457.7,112.5L457.7,112.5z
		 M457.7,112.5c1.3-11.8-7.3-22.4-19.1-23.7c-1.9-0.2-3.7-0.2-5.6,0.1c-3.2,0.5-6.3,1.7-9,3.5c-2.7,1.9-4.9,4.3-6.5,7.1
		c-1.6,2.8-2.5,6-2.8,9.2c-0.2,3.2,0.3,6.5,1.5,9.5l0.1,0.2l-0.1,0.2l-5.5,9.4l-0.4-0.6l10.9-1.5h0.1l0.1,0.1
		c2.9,2.7,6.5,4.6,10.5,5.3c1,0.2,2,0.3,3,0.4c3,0.2,6-0.2,8.8-1.3c1.9-0.7,3.6-1.6,5.2-2.8c1.6-1.2,3.1-2.6,4.3-4.2
		C455.7,120.3,457.2,116.5,457.7,112.5z"/>
	<polygon class="st6" points="433.5,122.7 424.2,113.3 427.3,110.2 432.8,115.7 444,98 447.7,100.4 	"/>
</g>
<g>
	<g>
		<path class="st6" d="M173.5,361.4h2.1c2.3,0,3.7,1.3,3.7,3.9c0,2.6-1.4,4-3.6,4h-2.1V361.4z M175.5,368.2c1.5,0,2.4-0.9,2.4-2.8
			c0-1.9-0.9-2.8-2.4-2.8h-0.6v5.6H175.5z"/>
		<path class="st6" d="M181,361.4h5v1.2h-3.6v2h3.1v1.2h-3.1v2.3h3.8v1.2H181V361.4z"/>
		<path class="st6" d="M187.7,365.4c0-2.6,1.6-4.1,3.6-4.1c1,0,1.7,0.5,2.2,1l-0.8,0.9c-0.4-0.4-0.9-0.6-1.5-0.6
			c-1.3,0-2.2,1.1-2.2,2.8c0,1.8,0.9,2.9,2.2,2.9c0.6,0,1.1-0.3,1.6-0.8l0.8,0.8c-0.6,0.7-1.5,1.1-2.5,1.1
			C189.3,369.4,187.7,368,187.7,365.4z"/>
		<path class="st6" d="M195.6,361.4h1.4v6.7h3.7v1.2h-5.1V361.4z"/>
		<path class="st6" d="M202.4,368.1h1.9v-5.5h-1.9v-1.2h5.2v1.2h-1.9v5.5h1.9v1.2h-5.2V368.1z"/>
		<path class="st6" d="M209.5,361.4h1.5l2.1,4.4l0.7,1.7h0c-0.1-0.8-0.2-1.8-0.2-2.7v-3.4h1.3v7.8h-1.5l-2.1-4.4l-0.7-1.7h0
			c0.1,0.8,0.2,1.8,0.2,2.6v3.4h-1.3V361.4z"/>
		<path class="st6" d="M217,361.4h5v1.2h-3.6v2h3.1v1.2h-3.1v2.3h3.8v1.2H217V361.4z"/>
	</g>
</g>
</svg>
